<?xml version="1.0" encoding="UTF-8"?>
<svg width="99px" height="130px" viewBox="0 0 99 130" version="1.1" xmlns="http://www.w3.org/2000/svg" xmlns:xlink="http://www.w3.org/1999/xlink">
    <!-- Generator: Sketch 61.2 (89653) - https://sketch.com -->
    <title>编组</title>
    <desc>Created with Sketch.</desc>
    <g id="页面-1" stroke="none" stroke-width="1" fill="none" fill-rule="evenodd">
        <g id="形状素材" transform="translate(-1207.000000, -405.000000)" fill="#FFFFFF">
            <g id="编组" transform="translate(1207.000000, 405.000000)">
                <path d="M10.2429259,117 L13,119.758523 L9.25707414,123.49908 L13,127.241477 L10.2429259,130 L6.5,126.257604 L2.75707414,130 L0,127.241477 L3.74292586,123.49908 L0,119.758523 L2.75707414,117 L6.5,120.742396 L10.2429259,117 Z M96.2429259,117 L99,119.758523 L95.2570741,123.49908 L99,127.241477 L96.2429259,130 L92.5,126.257604 L88.7570741,130 L86,127.241477 L89.7429259,123.49908 L86,119.758523 L88.7570741,117 L92.5,120.742396 L96.2429259,117 Z M67.2443753,117 L70,119.758523 L66.258384,123.49908 L70,127.241477 L67.2443753,130 L63.4990802,126.257604 L59.7574643,130 L57,127.241477 L60.741616,123.49908 L57,119.758523 L59.7574643,117 L63.4990802,120.742396 L67.2443753,117 Z M38.2429259,117 L41,119.758523 L37.2570741,123.49908 L41,127.241477 L38.2429259,130 L34.5,126.257604 L30.7570741,130 L28,127.241477 L31.7429259,123.49908 L28,119.758523 L30.7570741,117 L34.5,120.742396 L38.2429259,117 Z M67.2429259,91 L70,93.7566841 L66.2570741,97.4990805 L70,101.241477 L67.2429259,104 L63.5,100.255765 L59.7570741,104 L57,101.241477 L60.7410866,97.4990805 L57,93.7566841 L59.7570741,91 L63.5,94.7423964 L67.2429259,91 Z M38.2410866,91 L41,93.7566841 L37.2570741,97.4990805 L41,101.241477 L38.2410866,104 L34.5,100.255765 L30.7570741,104 L28,101.241477 L31.7410866,97.4990805 L28,93.7566841 L30.7570741,91 L34.5,94.7423964 L38.2410866,91 Z M10.2429259,91 L13,93.7566841 L9.25707414,97.4990805 L13,101.241477 L10.2429259,104 L6.5,100.257604 L2.75707414,104 L0,101.241477 L3.74292586,97.4990805 L0,93.7566841 L2.75707414,91 L6.5,94.7423964 L10.2429259,91 Z M96.2429259,91 L99,93.7566841 L95.2570741,97.4990805 L99,101.241477 L96.2429259,104 L92.5,100.257604 L88.7570741,104 L86,101.241477 L89.7429259,97.4990805 L86,93.7566841 L88.7570741,91 L92.5,94.7423964 L96.2429259,91 Z M10.2429259,60 L13,62.7566841 L9.25707414,66.4990805 L13,70.2414769 L10.2429259,73 L6.5,69.2576036 L2.75707414,73 L0,70.2414769 L3.74292586,66.4990805 L0,62.7566841 L2.75707414,60 L6.5,63.7423964 L10.2429259,60 Z M96.2429259,60 L99,62.7566841 L95.2570741,66.4990805 L99,70.2414769 L96.2429259,73 L92.5,69.2576036 L88.7570741,73 L86,70.2414769 L89.7429259,66.4990805 L86,62.7566841 L88.7570741,60 L92.5,63.7423964 L96.2429259,60 Z M38.2410866,60 L41,62.7570741 L37.2570741,66.5 L41,70.2429259 L38.2410866,73 L34.5,69.2570741 L30.7570741,73 L28,70.2429259 L31.7410866,66.5 L28,62.7570741 L30.7570741,60 L34.5,63.7410866 L38.2410866,60 Z M67.2429259,60 L70,62.7570741 L66.2570741,66.5 L70,70.2429259 L67.2429259,73 L63.5,69.2570741 L59.7570741,73 L57,70.2429259 L60.7410866,66.5 L57,62.7570741 L59.7570741,60 L63.5,63.7410866 L67.2429259,60 Z M67.2429259,31 L70,33.7566841 L66.2570741,37.4990805 L70,41.2414769 L67.2429259,44 L63.5,40.2576036 L59.7570741,44 L57,41.2414769 L60.7410866,37.4990805 L57,33.7566841 L59.7570741,31 L63.5,34.7423964 L67.2429259,31 Z M38.2410866,31 L41,33.7566841 L37.2570741,37.4990805 L41,41.2414769 L38.2410866,44 L34.5,40.2576036 L30.7570741,44 L28,41.2414769 L31.7410866,37.4990805 L28,33.7566841 L30.7570741,31 L34.5,34.7423964 L38.2410866,31 Z M96.2429259,31 L99,33.7566841 L95.2570741,37.4990805 L99,41.2414769 L96.2429259,44 L92.5,40.2576036 L88.7570741,44 L86,41.2414769 L89.7429259,37.4990805 L86,33.7566841 L88.7570741,31 L92.5,34.7423964 L96.2429259,31 Z M10.2429259,31 L13,33.7566841 L9.25707414,37.4990805 L13,41.2414769 L10.2429259,44 L6.5,40.2576036 L2.75707414,44 L0,41.2414769 L3.74292586,37.4990805 L0,33.7566841 L2.75707414,31 L6.5,34.7423964 L10.2429259,31 Z M10.2429259,0 L13,2.75668411 L9.25891341,6.49908049 L13,10.2414769 L10.2429259,13 L6.5,9.25760362 L2.75707414,13 L0,10.2414769 L3.74292586,6.49908049 L0,2.75668411 L2.75707414,0 L6.5,3.74239638 L10.2429259,0 Z M38.2429259,0 L41,2.75668411 L37.2589134,6.49908049 L41,10.2414769 L38.2429259,13 L34.5,9.25760362 L30.7570741,13 L28,10.2414769 L31.7429259,6.49908049 L28,2.75668411 L30.7570741,0 L34.5,3.74239638 L38.2429259,0 Z M67.2429259,0 L70,2.75668411 L66.2570741,6.49908049 L70,10.2414769 L67.2429259,13 L63.4981607,9.25760362 L59.7570741,13 L57,10.2414769 L60.7410866,6.49908049 L57,2.75668411 L59.7570741,0 L63.4981607,3.74239638 L67.2429259,0 Z M96.2429259,0 L99,2.75668411 L95.2570741,6.49908049 L99,10.2414769 L96.2429259,13 L92.5,9.25760362 L88.7570741,13 L86,10.2414769 L89.7429259,6.49908049 L86,2.75668411 L88.7570741,0 L92.5,3.74239638 L96.2429259,0 Z" id="形状结合"></path>
            </g>
        </g>
    </g>
</svg>