<?xml version="1.0" encoding="UTF-8"?>
<svg width="95px" height="95px" viewBox="0 0 95 95" version="1.1" xmlns="http://www.w3.org/2000/svg" xmlns:xlink="http://www.w3.org/1999/xlink">
    <!-- Generator: Sketch 61.2 (89653) - https://sketch.com -->
    <title>编组</title>
    <desc>Created with Sketch.</desc>
    <defs>
        <path d="M95,47.5 C95,73.7336869 73.7324174,95 47.5008178,95 C21.2675826,95 0,73.7336869 0,47.5 C0,21.2663131 21.2675826,0 47.5008178,0 C73.7324174,0 95,21.2663131 95,47.5" id="path-1"></path>
    </defs>
    <g id="页面-1" stroke="none" stroke-width="1" fill="none" fill-rule="evenodd">
        <g id="形状素材" transform="translate(-570.000000, -269.000000)">
            <g id="编组" transform="translate(570.000000, 269.000000)">
                <mask id="mask-2" fill="white">
                    <use xlink:href="#path-1"></use>
                </mask>
                <g id="Clip-383"></g>
                <path d="M85.6398866,84 C88.6621872,84 91.394926,85.392279 93.1405226,87.8190535 L94.5718789,89.8087173 C95.2826213,90.7995019 96.3980921,91.366127 97.6303747,91.366127 C98.8643025,91.366127 99.978128,90.7995019 100.68887,89.8087173 L102.559505,87.2103362 L107,90.3024907 L105.131011,92.9008717 C103.385414,95.3276463 100.65103,96.7199253 97.6303747,96.7199253 C94.6097193,96.7199253 91.8753353,95.3260274 90.1297387,92.8992528 L88.7000277,90.909589 C87.9892852,89.9220423 86.8721692,89.3537983 85.6398866,89.3537983 C84.407604,89.3537983 83.2937785,89.9220423 82.5813908,90.909589 L81.8410341,91.9408468 C80.0970828,94.3676214 77.3626987,95.7599004 74.3403982,95.7599004 C71.3197428,95.7599004 68.5853588,94.3676214 66.8414074,91.9408468 C66.130665,90.9500623 65.0151942,90.385056 63.7812664,90.385056 C62.5489838,90.385056 61.4351583,90.9500623 60.7227706,91.9408468 L59.8310521,93.1809465 C58.0871008,95.607721 55.3527167,97 52.3320614,97 C49.3097608,97 46.5753767,95.607721 44.8314254,93.1809465 L44.3444352,92.5042341 C43.6320476,91.5134496 42.5165768,90.9452055 41.2842942,90.9452055 C40.0520116,90.9452055 38.9365409,91.5134496 38.2257984,92.5026152 L37.8375225,93.0400996 C36.0935711,95.4668742 33.3608323,96.8607721 30.3385317,96.8607721 C27.3162312,96.8607721 24.5834923,95.4668742 22.8378958,93.0400996 L22.2834509,92.2678705 C21.5727084,91.2787049 20.4572377,90.7120797 19.2249551,90.7120797 C17.9926725,90.7120797 16.8772017,91.2787049 16.164814,92.2678705 L15.880188,92.666127 C14.1345915,95.0929016 11.4002074,96.4851806 8.37955205,96.4851806 C5.35889672,96.4851806 2.62451265,95.0929016 0.878916079,92.666127 L0.663390018,92.3650062 C-0.0506428868,91.3726027 -1.16611365,90.8043587 -2.39839624,90.8043587 C-3.63067883,90.8043587 -4.74450436,91.3726027 -5.45689202,92.3617684 L-7.56279552,95.2871731 L-12,92.1933998 L-9.89738698,89.2696139 C-8.15179041,86.8428394 -5.41740633,85.4521793 -2.39839624,85.4521793 C0.62225909,85.4521793 3.35499793,86.8444583 5.1005945,89.2712329 L5.3177658,89.5707347 C6.0317987,90.5631382 7.14726946,91.1313823 8.37955205,91.1313823 C9.61183465,91.1313823 10.7273054,90.5647572 11.4380478,89.5755915 L11.7259643,89.177335 C13.4699157,86.7505604 16.2026545,85.3582814 19.2233098,85.3582814 C22.2439652,85.3582814 24.9783492,86.7505604 26.7239458,89.177335 L27.2800359,89.9495641 C27.9907784,90.9387298 29.1062491,91.5069738 30.3385317,91.5069738 C31.5708143,91.5069738 32.6862851,90.9387298 33.3986727,89.9495641 L33.7836582,89.4120797 C35.5292548,86.9853051 38.2636389,85.5930262 41.2842942,85.5930262 C44.3049495,85.5930262 47.0393336,86.9836862 48.7849302,89.4104608 L49.2719204,90.0920299 C49.984308,91.0795766 51.0997788,91.6478207 52.3320614,91.6478207 C53.5626987,91.6478207 54.6781695,91.0795766 55.3905572,90.088792 L56.2822757,88.8486924 C58.0278723,86.4219178 60.7606111,85.0312578 63.7812664,85.0312578 C66.803567,85.0312578 69.5379511,86.4219178 71.2819024,88.8486924 C71.9942901,89.839477 73.1081156,90.4061021 74.3403982,90.4061021 C75.5726808,90.4061021 76.6881515,89.839477 77.4005392,88.8486924 L78.1408959,87.8190535 C79.8848472,85.392279 82.6192313,84 85.6398866,84 Z M85.6398866,66 C88.6621872,66 91.394926,67.3908332 93.1405226,69.8179101 L94.5718789,71.8094408 C95.2826213,72.7987296 96.3980921,73.3654253 97.6303747,73.3654253 C98.8643025,73.3654253 99.978128,72.7987296 100.68887,71.8094408 L102.559505,69.2074978 L107,72.3016565 L105.131011,74.9019803 C103.385414,77.327438 100.65103,78.7182713 97.6303747,78.7182713 C94.6097193,78.7182713 91.8753353,77.327438 90.1313839,74.9003612 L88.7000277,72.9104496 C87.9892852,71.9211608 86.8721692,71.3528459 85.6398866,71.3528459 C84.407604,71.3528459 83.2937785,71.9211608 82.5830361,72.9104496 L81.8410341,73.9418358 C80.0954376,76.3672936 77.3626987,77.7581268 74.3403982,77.7581268 C71.3197428,77.7581268 68.587004,76.3672936 66.8414074,73.9418358 C66.130665,72.952547 65.0151942,72.3842322 63.7812664,72.3842322 C62.5489838,72.3842322 61.4351583,72.952547 60.7227706,73.9418358 L59.8310521,75.1820899 C58.0854556,77.6091668 55.3527167,79 52.3320614,79 C49.3097608,79 46.577022,77.6091668 44.8314254,75.1820899 L44.34279,74.5020551 C43.6320476,73.5127662 42.5165768,72.9460705 41.2842942,72.9460705 C40.0520116,72.9460705 38.9365409,73.5127662 38.2257984,74.5020551 L37.8375225,75.0412256 C36.0935711,77.4683024 33.3591871,78.8591356 30.3385317,78.8591356 C27.3162312,78.8591356 24.5834923,77.4699215 22.839541,75.0428447 L22.2834509,74.2672811 C21.5727084,73.2796114 20.4572377,72.7112966 19.2249551,72.7112966 C17.9926725,72.7112966 16.8772017,73.2796114 16.164814,74.2689002 L15.8785428,74.6672064 C14.1345915,77.0926641 11.4002074,78.4851165 8.37955205,78.4851165 C5.35889672,78.4851165 2.62451265,77.0926641 0.878916079,74.6655872 L0.663390018,74.3660481 C-0.0506428868,73.3719019 -1.16611365,72.8052061 -2.39839624,72.8052061 C-3.63067883,72.8052061 -4.74614959,73.3719019 -5.45689202,74.3628098 L-7.56279552,77.2885789 L-12,74.1928011 L-9.89738698,71.2702703 C-8.15179041,68.8431934 -5.41905157,67.4507411 -2.39839624,67.4507411 C0.62225909,67.4507411 3.35664316,68.8431934 5.10223973,71.2718894 L5.3177658,71.5698094 C6.0317987,72.5639557 7.14726946,73.1322705 8.37955205,73.1322705 C9.61183465,73.1322705 10.7273054,72.5639557 11.4380478,71.5746668 L11.7243191,71.1779798 C13.4699157,68.7492838 16.2026545,67.3584506 19.2233098,67.3584506 C22.2439652,67.3584506 24.9783492,68.7492838 26.7239458,71.1747416 L27.2800359,71.9503051 C27.9907784,72.939594 29.1062491,73.5062897 30.3385317,73.5062897 C31.5708143,73.5062897 32.6862851,72.939594 33.3970275,71.9503051 L33.7836582,71.4111346 C35.5292548,68.9824387 38.2636389,67.5916054 41.2842942,67.5916054 C44.3049495,67.5916054 47.0393336,68.9824387 48.7849302,71.4111346 L49.2719204,72.0895504 C49.984308,73.0788392 51.0981336,73.6455349 52.3320614,73.6455349 C53.564344,73.6455349 54.6798147,73.0788392 55.3905572,72.0895504 L56.2822757,70.8492963 C58.0278723,68.4222195 60.7606111,67.028148 63.7812664,67.028148 C66.8019217,67.028148 69.5363058,68.4222195 71.2819024,70.8492963 C71.9942901,71.8385851 73.1081156,72.4069 74.3403982,72.4069 C75.5726808,72.4069 76.6897968,71.8385851 77.4005392,70.8492963 L78.1408959,69.8179101 C79.8848472,67.3908332 82.6192313,66 85.6398866,66 Z M85.6398866,49 C88.6621872,49 91.394926,50.3924524 93.1405226,52.8195292 L94.5718789,54.8094408 C95.2826213,55.7987296 96.3980921,56.3670445 97.6303747,56.3670445 C98.8626573,56.3670445 99.978128,55.7987296 100.68887,54.8094408 L102.559505,52.2107361 L107,55.3016565 L105.131011,57.9019803 C103.385414,60.3290572 100.65103,61.7198904 97.6303747,61.7198904 C94.6097193,61.7198904 91.8753353,60.327438 90.1297387,57.9003612 L88.7000277,55.9104496 C87.98764,54.9195417 86.8721692,54.3544651 85.6398866,54.3544651 C84.407604,54.3544651 83.2937785,54.9195417 82.5813908,55.9104496 L81.8410341,56.9402167 C80.0970828,59.3672936 77.3626987,60.7613651 74.3403982,60.7613651 C71.3197428,60.7613651 68.5853588,59.3672936 66.8414074,56.9402167 C66.130665,55.9509279 65.0151942,55.3842322 63.7812664,55.3842322 C62.5489838,55.3842322 61.4351583,55.9509279 60.7227706,56.9402167 L59.8310521,58.1820899 C58.0871008,60.6091668 55.3527167,62 52.3320614,62 C49.3097608,62 46.5753767,60.6091668 44.8314254,58.1820899 L44.3444352,57.5036742 C43.6320476,56.5143854 42.5165768,55.9460705 41.2842942,55.9460705 C40.0520116,55.9460705 38.9365409,56.5143854 38.2257984,57.5036742 L37.8375225,58.0412256 C36.0935711,60.4683024 33.3608323,61.8623739 30.3385317,61.8623739 C27.3162312,61.8623739 24.5834923,60.4683024 22.8378958,58.0412256 L22.2834509,57.2689002 C21.5727084,56.2779923 20.4572377,55.7129157 19.2249551,55.7129157 C17.9926725,55.7129157 16.8772017,56.2779923 16.164814,57.2689002 L15.880188,57.6672064 C14.1345915,60.0942832 11.4002074,61.4867356 8.37955205,61.4867356 C5.35889672,61.4867356 2.62451265,60.0942832 0.878916079,57.6672064 L0.663390018,57.3660481 C-0.0506428868,56.373521 -1.16611365,55.8052061 -2.39839624,55.8052061 C-3.63067883,55.8052061 -4.74450436,56.373521 -5.45689202,57.3628098 L-7.56279552,60.2885789 L-12,57.1944202 L-9.89738698,54.2702703 C-8.15179041,51.8431934 -5.41740633,50.4523602 -2.39839624,50.4523602 C0.62225909,50.4523602 3.35499793,51.8431934 5.1005945,54.2702703 L5.3177658,54.5714286 C6.0317987,55.5639557 7.14726946,56.1306514 8.37955205,56.1306514 C9.61183465,56.1306514 10.7273054,55.5639557 11.4380478,54.576286 L11.7259643,54.1763607 C13.4699157,51.7492838 16.2026545,50.3584506 19.2233098,50.3584506 C22.2439652,50.3584506 24.9783492,51.7492838 26.7239458,54.1763607 L27.2800359,54.9503051 C27.9907784,55.9379748 29.1062491,56.5062897 30.3385317,56.5062897 C31.5708143,56.5062897 32.6862851,55.9379748 33.3970275,54.9503051 L33.7853035,54.4111346 C35.5292548,51.9856769 38.2636389,50.5932246 41.2842942,50.5932246 C44.3049495,50.5932246 47.0393336,51.9840578 48.7849302,54.4111346 L49.2719204,55.0911695 C49.984308,56.0804583 51.0997788,56.6471541 52.3320614,56.6471541 C53.5626987,56.6471541 54.6781695,56.0804583 55.3905572,55.0895504 L56.2822757,53.8492963 C58.0278723,51.4222195 60.7606111,50.0313862 63.7812664,50.0313862 C66.803567,50.0313862 69.5379511,51.4222195 71.2819024,53.8492963 C71.9942901,54.8385851 73.1081156,55.4052809 74.3403982,55.4052809 C75.5726808,55.4052809 76.6897968,54.8385851 77.4005392,53.8492963 L78.1408959,52.8195292 C79.8848472,50.3924524 82.6192313,49 85.6398866,49 Z M85.6398866,32 C88.6621872,32 91.394926,33.3908332 93.1405226,35.8179101 L94.5718789,37.8062025 C95.2826213,38.7971105 96.3980921,39.3638062 97.6303747,39.3638062 C98.8643025,39.3638062 99.978128,38.7971105 100.68887,37.8078216 L102.559505,35.2074978 L107,38.3016565 L105.131011,40.9019803 C103.385414,43.327438 100.65103,44.7182713 97.6303747,44.7182713 C94.6097193,44.7182713 91.8753353,43.327438 90.1313839,40.9003612 L88.7000277,38.9088305 C87.9892852,37.9211608 86.8721692,37.3528459 85.6398866,37.3528459 C84.407604,37.3528459 83.2937785,37.9211608 82.5830361,38.9088305 L81.8410341,39.9402167 C80.0954376,42.3672936 77.3626987,43.7581268 74.3403982,43.7581268 C71.3197428,43.7581268 68.587004,42.3672936 66.8414074,39.9402167 C66.130665,38.9509279 65.0151942,38.382613 63.7812664,38.382613 C62.5489838,38.382613 61.4351583,38.9509279 60.7227706,39.9402167 L59.8310521,41.1804708 C58.0854556,43.6075476 55.3527167,45 52.3320614,45 C49.3097608,45 46.577022,43.6075476 44.8314254,41.1804708 L44.34279,40.5020551 C43.6320476,39.5127662 42.5165768,38.9460705 41.2842942,38.9460705 C40.0520116,38.9460705 38.9365409,39.5127662 38.2257984,40.5020551 L37.8375225,41.0412256 C36.0935711,43.4683024 33.3591871,44.8591356 30.3385317,44.8591356 C27.3162312,44.8591356 24.5834923,43.4683024 22.839541,41.0412256 L22.2818056,40.265662 C21.5727084,39.2796114 20.4572377,38.7112966 19.2249551,38.7112966 C17.9926725,38.7112966 16.8772017,39.2796114 16.164814,40.2672811 L15.880188,40.6655872 C14.1345915,43.0926641 11.4002074,44.4851165 8.37955205,44.4851165 C5.35889672,44.4851165 2.62451265,43.0926641 0.878916079,40.6655872 L0.663390018,40.3660481 C-0.0506428868,39.3719019 -1.16611365,38.8052061 -2.39839624,38.8052061 C-3.63067883,38.8052061 -4.74450436,39.3719019 -5.45689202,40.3628098 L-7.56279552,43.2885789 L-12,40.1928011 L-9.89738698,37.2686511 C-8.15179041,34.8415743 -5.41905157,33.4507411 -2.39839624,33.4507411 C0.62225909,33.4507411 3.35664316,34.8415743 5.1005945,37.2686511 L5.3177658,37.5698094 C6.0317987,38.5623365 7.14726946,39.1306514 8.37955205,39.1306514 C9.61183465,39.1306514 10.7273054,38.5639557 11.4380478,37.5746668 L11.7243191,37.1763607 C13.4699157,34.7492838 16.2026545,33.3568315 19.2233098,33.3568315 C22.2439652,33.3568315 24.9783492,34.7492838 26.7239458,37.1747416 L27.2800359,37.948686 C27.9907784,38.939594 29.1062491,39.5046706 30.3385317,39.5046706 C31.5708143,39.5046706 32.6862851,38.939594 33.3970275,37.948686 L33.7853035,37.4095155 C35.5292548,34.9824387 38.2636389,33.5916054 41.2842942,33.5916054 C44.3049495,33.5916054 47.0376884,34.9824387 48.7849302,37.4095155 L49.2719204,38.0879312 C49.984308,39.0788392 51.0981336,39.6455349 52.3320614,39.6455349 C53.564344,39.6455349 54.6798147,39.0788392 55.3905572,38.0879312 L56.2822757,36.8492963 C58.0278723,34.4222195 60.7606111,33.0297671 63.7812664,33.0297671 C66.803567,33.0297671 69.5363058,34.4222195 71.2819024,36.8492963 C71.9942901,37.836966 73.1081156,38.4052809 74.3403982,38.4052809 C75.5726808,38.4052809 76.6881515,37.836966 77.4005392,36.8492963 L78.1408959,35.8179101 C79.8848472,33.3908332 82.6192313,32 85.6398866,32 Z M85.6398866,15 C88.6621872,15 91.394926,16.3908332 93.1405226,18.8179101 L94.5718789,20.8078216 C95.2826213,21.7971105 96.3980921,22.3654253 97.6303747,22.3654253 C98.8643025,22.3654253 99.978128,21.7971105 100.68887,20.8078216 L102.559505,18.2074978 L107,21.3032756 L105.131011,23.9019803 C103.385414,26.327438 100.65103,27.7182713 97.6303747,27.7182713 C94.6097193,27.7182713 91.8769805,26.327438 90.1313839,23.9003612 L88.7000277,21.9104496 C87.9892852,20.9195417 86.8721692,20.3544651 85.6398866,20.3544651 C84.407604,20.3544651 83.2937785,20.9195417 82.5830361,21.9104496 L81.8410341,22.9402167 C80.0954376,25.3672936 77.3626987,26.7597459 74.3403982,26.7597459 C71.3197428,26.7597459 68.587004,25.3672936 66.8414074,22.9402167 C66.130665,21.9509279 65.0151942,21.382613 63.7812664,21.382613 C62.5489838,21.382613 61.4351583,21.9509279 60.7227706,22.9402167 L59.8310521,24.1820899 C58.0854556,26.6091668 55.3527167,28 52.3320614,28 C49.3097608,28 46.577022,26.6091668 44.8314254,24.1820899 L44.34279,23.5020551 C43.6320476,22.5127662 42.5165768,21.9444514 41.2842942,21.9444514 C40.0520116,21.9444514 38.9365409,22.5127662 38.2257984,23.5020551 L37.8375225,24.0412256 C36.0935711,26.4683024 33.3591871,27.8591356 30.3385317,27.8591356 C27.3162312,27.8591356 24.5834923,26.4683024 22.839541,24.0412256 L22.2834509,23.265662 C21.5727084,22.2779923 20.4572377,21.7129157 19.2249551,21.7129157 C17.9926725,21.7129157 16.8772017,22.2779923 16.164814,23.2672811 L15.880188,23.6672064 C14.1345915,26.0942832 11.4002074,27.4851165 8.37955205,27.4851165 C5.35889672,27.4851165 2.62451265,26.0942832 0.878916079,23.6672064 L0.663390018,23.3644289 C-0.0506428868,22.373521 -1.16611365,21.8052061 -2.39839624,21.8052061 C-3.63067883,21.8052061 -4.74450436,22.373521 -5.45689202,23.3628098 L-7.56279552,26.2885789 L-12,23.1928011 L-9.89738698,20.2702703 C-8.15179041,17.8431934 -5.41905157,16.4507411 -2.39839624,16.4507411 C0.62225909,16.4507411 3.35664316,17.8431934 5.1005945,20.2702703 L5.3177658,20.5698094 C6.0317987,21.5639557 7.14726946,22.1306514 8.37955205,22.1306514 C9.61183465,22.1306514 10.7273054,21.5639557 11.4380478,20.5746668 L11.7243191,20.1763607 C13.4699157,17.7492838 16.2026545,16.3568315 19.2233098,16.3568315 C22.2439652,16.3568315 24.9783492,17.7492838 26.7239458,20.1747416 L27.2800359,20.9503051 C27.9907784,21.939594 29.1062491,22.5062897 30.3385317,22.5062897 C31.5708143,22.5062897 32.6846398,21.939594 33.3986727,20.9503051 L33.7853035,20.4111346 C35.5292548,17.9840578 38.2636389,16.5916054 41.2842942,16.5916054 C44.3049495,16.5916054 47.0376884,17.9840578 48.7849302,20.4095155 L49.2719204,21.0895504 C49.984308,22.0788392 51.0981336,22.6471541 52.3320614,22.6471541 C53.564344,22.6471541 54.6798147,22.0788392 55.3905572,21.0895504 L56.2822757,19.8492963 C58.0278723,17.4222195 60.7606111,16.0297671 63.7812664,16.0297671 C66.803567,16.0297671 69.5363058,17.4222195 71.2819024,19.8492963 C71.9942901,20.836966 73.1081156,21.4052809 74.3403982,21.4052809 C75.5726808,21.4052809 76.6881515,20.836966 77.4005392,19.8492963 L78.1408959,18.8179101 C79.8848472,16.3908332 82.6192313,15 85.6398866,15 Z M85.6398866,-2 C88.6621872,-2 91.394926,-0.607721046 93.1405226,1.81905355 L94.5718789,3.80709838 C95.2826213,4.79788294 96.3980921,5.36450809 97.6303747,5.36450809 C98.8643025,5.36450809 99.978128,4.79788294 100.68887,3.80871731 L102.559505,1.20709838 L107,4.30249066 L105.131011,6.90087173 C103.385414,9.32764633 100.65103,10.7183064 97.6303747,10.7183064 C94.6097193,10.7183064 91.8769805,9.32764633 90.1313839,6.90087173 L88.7000277,4.90958904 C87.9892852,3.92042341 86.8721692,3.35379826 85.6398866,3.35379826 C84.407604,3.35379826 83.2937785,3.92042341 82.5830361,4.90958904 L81.8410341,5.9392279 C80.0954376,8.36600249 77.3626987,9.75828144 74.3403982,9.75828144 C71.3197428,9.75828144 68.587004,8.36600249 66.8414074,5.9392279 C66.130665,4.95006227 65.0151942,4.38343711 63.7812664,4.38343711 C62.5489838,4.38343711 61.4351583,4.95006227 60.7227706,5.9392279 L59.8310521,7.18094645 C58.0854556,9.60772105 55.3527167,11 52.3320614,11 C49.3097608,11 46.577022,9.60772105 44.8314254,7.18094645 L44.34279,6.50261519 C43.6320476,5.51183064 42.5165768,4.94520548 41.2842942,4.94520548 C40.0520116,4.94520548 38.9365409,5.51183064 38.2257984,6.50099626 L37.8375225,7.04009963 C36.0935711,9.46687422 33.3591871,10.8591532 30.3385317,10.8591532 C27.3162312,10.8591532 24.5834923,9.46687422 22.839541,7.04009963 L22.2834509,6.26625156 C21.5727084,5.27870486 20.4572377,4.71046077 19.2249551,4.71046077 C17.9926725,4.71046077 16.8772017,5.27870486 16.164814,6.26787049 L15.880188,6.66450809 C14.1345915,9.09290162 11.4002074,10.4835616 8.37955205,10.4835616 C5.35889672,10.4835616 2.62451265,9.09290162 0.878916079,6.66612702 L0.663390018,6.36500623 C-0.0506428868,5.37260274 -1.16611365,4.80435866 -2.39839624,4.80435866 C-3.63067883,4.80435866 -4.74450436,5.37260274 -5.45689202,6.36176837 L-7.56279552,9.2871731 L-12,6.19178082 L-9.89738698,3.26961395 C-8.15179041,0.842839352 -5.41905157,-0.549439601 -2.39839624,-0.549439601 C0.62225909,-0.549439601 3.35499793,0.842839352 5.1005945,3.26961395 L5.3177658,3.56911582 C6.0317987,4.56313823 7.14726946,5.13138232 8.37955205,5.13138232 C9.61183465,5.13138232 10.7273054,4.56313823 11.4380478,3.5739726 L11.7243191,3.17571606 C13.4699157,0.748941469 16.2026545,-0.641718555 19.2233098,-0.641718555 C22.2439652,-0.641718555 24.9783492,0.748941469 26.7239458,3.17571606 L27.2800359,3.94956413 C27.9907784,4.93872976 29.1062491,5.50535492 30.3385317,5.50535492 C31.5708143,5.50535492 32.6846398,4.93872976 33.3986727,3.94956413 L33.7853035,3.41046077 C35.5292548,0.983686177 38.2636389,-0.408592777 41.2842942,-0.408592777 C44.3049495,-0.408592777 47.0376884,0.983686177 48.7849302,3.41046077 L49.2719204,4.08879203 C49.984308,5.07795766 51.0981336,5.64620174 52.3320614,5.64620174 C53.564344,5.64620174 54.6798147,5.07795766 55.3905572,4.08879203 L56.2822757,2.8486924 C58.0278723,0.421917808 60.7606111,-0.968742217 63.7812664,-0.968742217 C66.803567,-0.968742217 69.5363058,0.421917808 71.2819024,2.8486924 C71.9942901,3.83785803 73.1081156,4.40448319 74.3403982,4.40448319 C75.5726808,4.40448319 76.6881515,3.83785803 77.4005392,2.8486924 L78.1408959,1.81905355 C79.8848472,-0.607721046 82.6192313,-2 85.6398866,-2 Z" id="形状结合" fill="#FFFFFF" mask="url(#mask-2)"></path>
            </g>
        </g>
    </g>
</svg>