<?xml version="1.0" encoding="UTF-8"?>
<svg width="164px" height="164px" viewBox="0 0 164 164" version="1.1" xmlns="http://www.w3.org/2000/svg" xmlns:xlink="http://www.w3.org/1999/xlink">
    <!-- Generator: Sketch 61.2 (89653) - https://sketch.com -->
    <title>形状结合</title>
    <desc>Created with Sketch.</desc>
    <g id="页面-1" stroke="none" stroke-width="1" fill="none" fill-rule="evenodd">
        <g id="形状素材" transform="translate(-444.000000, -59.000000)" fill="#FFFFFF">
            <path d="M525.999411,59 C571.287118,59 608,95.7119677 608,141 L608,141 L607.989014,142.35604 C607.264885,187.0186 570.834241,223 525.999411,223 C480.712882,223 444,186.288032 444,141 C444,95.7119677 480.712882,59 525.999411,59 Z M525.999411,59.2946291 C503.436874,59.2946291 483.012152,68.4399172 468.225411,83.2255853 C453.439849,98.0112534 444.294627,118.437301 444.294627,141 C444.294627,163.562699 453.439849,183.988747 468.225411,198.774415 C483.012152,213.560083 503.436874,222.705371 525.999411,222.705371 C548.563126,222.705371 568.987848,213.560083 583.774589,198.774415 C598.560151,183.988747 607.705373,163.562699 607.705373,141 L607.705373,141 L607.702272,140.280644 C607.510155,118.003343 598.402857,97.8539591 583.774589,83.2255853 C568.987848,68.4399172 548.563126,59.2946291 525.999411,59.2946291 Z M525.49941,66 C567.197075,66 601,99.8026614 601,141.5 C601,183.197339 567.197075,217 525.49941,217 C483.802925,217 450,183.197339 450,141.5 L450,141.5 L450.010115,140.251474 C450.676848,99.1299884 484.21989,66 525.49941,66 Z M525.49941,66.4834679 C504.783238,66.4834679 486.030433,74.8793009 472.454312,88.4553157 C458.878191,102.031331 450.482292,120.78399 450.482292,141.5 L450.482292,141.5 L450.485468,142.197544 C450.671618,162.636765 459.030732,181.121209 472.454312,194.544684 C486.030433,208.120699 504.783238,216.516532 525.49941,216.516532 C546.216762,216.516532 564.969567,208.120699 578.545688,194.544684 C592.121809,180.968669 600.517708,162.21601 600.517708,141.5 C600.517708,120.78399 592.121809,102.031331 578.545688,88.4553157 C564.969567,74.8793009 546.216762,66.4834679 525.49941,66.4834679 Z M525.99941,72 C564.108211,72 595,102.892704 595,141 C595,179.107296 564.108211,210 525.99941,210 C487.891789,210 457,179.107296 457,141 L457,141 L457.009244,139.858969 C457.618557,102.27794 488.272865,72 525.99941,72 Z M525.99941,72.6702466 C507.129683,72.6702466 490.050048,80.317902 477.683421,92.6844238 C465.317973,105.049766 457.670252,122.130434 457.670252,141 L457.670252,141 L457.673423,141.665237 C457.850852,160.270811 465.463449,177.095709 477.683421,189.315576 C490.050048,201.682098 507.129683,209.329753 525.99941,209.329753 C544.870317,209.329753 561.949952,201.682098 574.316579,189.315576 C586.682027,176.950234 594.329748,159.869566 594.329748,141 C594.329748,122.130434 586.682027,105.049766 574.316579,92.6844238 C561.949952,80.317902 544.870317,72.6702466 525.99941,72.6702466 Z M525.49941,79 C560.017517,79 588,106.981567 588,141.5 C588,176.018433 560.017517,204 525.49941,204 C490.982483,204 463,176.018433 463,141.5 L463,141.5 L463.008373,140.46643 C463.560303,106.424734 491.327653,79 525.49941,79 Z M525.49941,79.8585911 C508.476555,79.8585911 493.069301,86.7568451 481.913627,97.9126245 C470.757953,109.069585 463.859764,124.476985 463.859764,141.5 L463.859764,141.5 L463.863249,142.162411 C464.039656,158.922491 470.902832,174.075311 481.913627,185.087376 C493.069301,196.241974 508.476555,203.141409 525.49941,203.141409 C542.523445,203.141409 557.930699,196.241974 569.086373,185.087376 C580.242047,173.930415 587.140236,158.523015 587.140236,141.5 C587.140236,124.476985 580.242047,109.069585 569.086373,97.9126245 C557.930699,86.7568451 542.523445,79.8585911 525.49941,79.8585911 Z M525.999409,85 C556.928655,85.0011822 582,110.072262 582,141 C582,171.927738 556.928655,196.998818 525.999409,197 C495.071345,196.998818 470,171.927738 470,141 L470,141 L470.007502,140.073944 C470.502013,109.573348 495.380626,85.0011704 525.999409,85 Z M525.999409,86.0486183 C510.823248,86.0486183 497.089395,92.1984631 487.143376,102.143195 C477.197357,112.089109 471.048629,125.823999 471.047447,141 L471.047447,141 L471.051255,141.649511 C471.225082,156.567653 477.339443,170.052976 487.143376,179.856805 C497.089395,189.801537 510.823248,195.951382 525.999409,195.951382 C541.176752,195.951382 554.910605,189.801537 564.856624,179.856805 C574.802643,169.910891 580.951371,156.176001 580.952553,141 C580.951371,125.823999 574.802643,112.089109 564.856624,102.143195 C554.910605,92.1984631 541.176752,86.0486183 525.999409,86.0486183 Z M525.499408,92 C552.838612,92 575,114.162306 575,141.5 C575,168.837694 552.838612,191 525.499408,191 C498.161388,191 476,168.837694 476,141.5 L476,141.5 L476.006631,140.681404 C476.443745,113.720116 498.434768,92 525.499408,92 Z M525.499408,93.2382103 C512.17014,93.2382103 500.108692,98.6385116 491.372458,107.373458 C482.638591,116.109587 477.237041,128.170892 477.237041,141.5 L477.237041,141.5 L477.24099,142.123866 C477.406653,155.205212 482.775058,167.026915 491.372458,175.626542 C500.108692,184.361488 512.17014,189.76179 525.499408,189.76179 C538.82986,189.76179 550.891308,184.361488 559.627542,175.626542 C568.361409,166.890413 573.762959,154.829108 573.762959,141.5 C573.762959,128.170892 568.361409,116.109587 559.627542,107.373458 C550.891308,98.6385116 538.82986,93.2382103 525.499408,93.2382103 Z M525.499414,99 C548.971776,99 567.998828,118.027314 568,141.5 C567.998828,164.972686 548.971776,184 525.499414,184 C502.028224,184 483.001172,164.972686 483,141.5 L483,141.5 L483.005728,140.797168 C483.382157,117.648671 502.262936,99 525.499414,99 Z M525.499414,100.41108 C514.151157,100.412252 503.884636,105.008811 496.446096,112.446281 C489.0099,119.883752 484.412233,130.151587 484.412233,141.5 L484.412233,141.5 L484.416186,142.076098 C484.568901,153.195662 489.135937,163.242307 496.446096,170.553719 C503.884636,177.991189 514.151157,182.587748 525.499414,182.58892 C536.848843,182.587748 547.115364,177.991189 554.553904,170.553719 C561.9901,163.116248 566.587767,152.848413 566.587767,141.5 C566.587767,130.151587 561.9901,119.883752 554.553904,112.446281 C547.115364,105.008811 536.848843,100.412252 525.499414,100.41108 Z M525.999414,105 C545.882906,105.001172 562,121.118003 562,141 C562,160.881997 545.882906,176.998828 525.999414,177 C506.117094,176.998828 490,160.881997 490,141 L490,141 L490.004823,140.404682 C490.322718,120.797278 506.315917,105.00116 525.999414,105 Z M525.999414,106.598906 C516.497257,106.598906 507.902411,110.448471 501.674313,116.675295 C495.447388,122.90212 491.598932,131.497997 491.598932,141 L491.598932,141 L491.602882,141.526948 C491.742283,150.819556 495.562701,159.213192 501.674313,165.324705 C507.902411,171.551529 516.497257,175.401094 525.999414,175.401094 C535.502743,175.401094 544.097589,171.551529 550.325687,165.324705 C556.552612,159.09788 560.401068,150.502003 560.401068,141 C560.401068,131.497997 556.552612,122.90212 550.325687,116.675295 C544.097589,110.448471 535.502743,106.598906 525.999414,106.598906 Z M525.499414,112 C541.792865,112.001173 555,125.206873 555,141.5 C555,157.793127 541.792865,170.998827 525.499414,171 C509.207135,170.998827 496,157.793127 496,141.5 L496,141.5 L496.003952,141.012143 C496.264451,124.944079 509.370058,112.001161 525.499414,112 Z M525.499414,113.785853 C517.843426,113.785853 510.920322,116.886179 505.902713,121.902516 C500.886276,126.921198 497.785889,133.844165 497.784716,141.5 L497.784716,141.5 L497.789175,141.998243 C497.921594,149.455934 500.995329,156.187904 505.902713,161.097484 C510.920322,166.113821 517.843426,169.214147 525.499414,169.214147 C533.156574,169.214147 540.079678,166.113821 545.097287,161.097484 C550.113724,156.078802 553.214111,149.155835 553.215284,141.5 C553.214111,133.844165 550.113724,126.921198 545.097287,121.902516 C540.079678,116.886179 533.156574,113.785853 525.499414,113.785853 Z M525.999413,118 C538.703349,118 548.998827,128.296914 549,141 C548.998827,153.703086 538.703349,164 525.999413,164 C513.296651,164 503.001173,153.703086 503,141 L503,141 L503.003116,140.619637 C503.207323,128.092005 513.423679,118 525.999413,118 Z M525.999413,119.973272 C520.190023,119.973272 514.940221,122.324305 511.132208,126.131242 C507.325368,129.939352 504.973222,135.190462 504.973222,141 L504.973222,141 L504.978092,141.457471 C505.098026,147.084913 507.425548,152.160861 511.132208,155.868758 C514.940221,159.675695 520.190023,162.026728 525.999413,162.026728 C531.809977,162.026728 537.059779,159.675695 540.867792,155.868758 C544.674632,152.060648 547.026778,146.809538 547.026778,141 C547.026778,135.190462 544.674632,129.939352 540.867792,126.131242 C537.059779,122.324305 531.809977,119.973272 525.999413,119.973272 Z M525.499413,125 C534.613307,125.001174 542,132.387604 542,141.5 C542,150.612396 534.613307,157.998826 525.499413,158 C516.386693,157.998826 509,150.612396 509,141.5 L509,141.5 L509.003058,141.179112 C509.174043,132.214828 516.493901,125.00116 525.499413,125 Z M525.499413,127.161567 C521.536595,127.162741 517.958904,128.765424 515.36047,131.361417 C512.764384,133.959759 511.161644,137.537323 511.161644,141.5 L511.161644,141.5 L511.166964,141.894962 C511.269597,145.700093 512.85092,149.126852 515.36047,151.638583 C517.958904,154.234576 521.536595,155.837259 525.499413,155.838433 C529.463405,155.837259 533.041096,154.234576 535.63953,151.638583 C538.235616,149.040241 539.838356,145.462677 539.838356,141.5 C539.838356,137.537323 538.235616,133.959759 535.63953,131.361417 C533.041096,128.765424 529.463405,127.162741 525.499413,127.161567 Z" id="形状结合"></path>
        </g>
    </g>
</svg>