<?xml version="1.0" encoding="UTF-8"?>
<svg width="96px" height="74px" viewBox="0 0 96 74" version="1.1" xmlns="http://www.w3.org/2000/svg" xmlns:xlink="http://www.w3.org/1999/xlink">
    <!-- Generator: Sketch 61.2 (89653) - https://sketch.com -->
    <title>形状结合</title>
    <desc>Created with Sketch.</desc>
    <g id="页面-1" stroke="none" stroke-width="1" fill="none" fill-rule="evenodd">
        <g id="形状素材" transform="translate(-406.000000, -576.000000)" fill="#FFFFFF">
            <path d="M496.327293,608 C499.460231,608 502,610.499731 502,613.58328 C502,633.66541 485.401693,650 465,650 C444.598307,650 428,633.66541 428,613.58328 C428,610.499731 430.539769,608 433.672707,608 C436.805645,608 439.345413,610.499731 439.345413,613.58328 C439.345413,627.506534 450.85374,638.833439 465,638.833439 C479.14626,638.833439 490.654587,627.506534 490.654587,613.58328 C490.654587,610.499731 493.194355,608 496.327293,608 Z M443,576 C463.401693,576 480,592.336645 480,612.41672 C480,615.500269 477.460231,618 474.327293,618 C471.194355,618 468.654587,615.500269 468.654587,612.41672 C468.654587,598.495522 457.14626,587.166561 443,587.166561 C428.85374,587.166561 417.345413,598.495522 417.345413,612.41672 C417.345413,615.500269 414.805645,618 411.672707,618 C408.539769,618 406,615.500269 406,612.41672 C406,592.336645 422.598307,576 443,576 Z" id="形状结合"></path>
        </g>
    </g>
</svg>