<?xml version="1.0" encoding="UTF-8"?>
<svg width="235px" height="52px" viewBox="0 0 235 52" version="1.1" xmlns="http://www.w3.org/2000/svg" xmlns:xlink="http://www.w3.org/1999/xlink">
    <!-- Generator: Sketch 61.2 (89653) - https://sketch.com -->
    <title>编组</title>
    <desc>Created with Sketch.</desc>
    <g id="页面-1" stroke="none" stroke-width="1" fill="none" fill-rule="evenodd">
        <g id="形状素材" transform="translate(-895.000000, -448.000000)" stroke="#FFFFFF">
            <g id="编组" transform="translate(896.000000, 449.000000)">
                <polygon id="Stroke-1" points="0 19 19 19 19 0 0 0"></polygon>
                <polygon id="Stroke-3" points="36 19 55 19 55 0 36 0"></polygon>
                <polygon id="Stroke-4" points="71 19 90 19 90 0 71 0"></polygon>
                <polygon id="Stroke-5" points="107 19 126 19 126 0 107 0"></polygon>
                <polygon id="Stroke-6" points="142 19 161 19 161 0 142 0"></polygon>
                <polygon id="Stroke-7" points="178 19 197 19 197 0 178 0"></polygon>
                <polygon id="Stroke-8" points="214 19 233 19 233 0 214 0"></polygon>
                <polygon id="Stroke-9" points="0 50 19 50 19 31 0 31"></polygon>
                <polygon id="Stroke-10" points="36 50 55 50 55 31 36 31"></polygon>
                <polygon id="Stroke-11" points="71 50 90 50 90 31 71 31"></polygon>
                <polygon id="Stroke-12" points="107 50 126 50 126 31 107 31"></polygon>
                <polygon id="Stroke-13" points="142 50 161 50 161 31 142 31"></polygon>
                <polygon id="Stroke-14" points="178 50 197 50 197 31 178 31"></polygon>
                <polygon id="Stroke-15" points="214 50 233 50 233 31 214 31"></polygon>
            </g>
        </g>
    </g>
</svg>