<?xml version="1.0" encoding="UTF-8"?>
<svg width="238px" height="76px" viewBox="0 0 238 76" version="1.1" xmlns="http://www.w3.org/2000/svg" xmlns:xlink="http://www.w3.org/1999/xlink">
    <!-- Generator: Sketch 61.2 (89653) - https://sketch.com -->
    <title>47</title>
    <desc>Created with Sketch.</desc>
    <g id="页面-1" stroke="none" stroke-width="1" fill="none" fill-rule="evenodd">
        <g id="形状素材" transform="translate(-1187.000000, -938.000000)" fill-rule="nonzero">
            <g id="47" transform="translate(1187.000000, 938.000000)">
                <path d="M118.068078,59.4385 C125.929227,59.4385 132.224235,62.3287886 137.071753,67.1354592 C138.765578,68.8150117 140.158659,70.6134633 141.272396,72.41368 C141.663488,73.045831 141.992256,73.6342883 142.261257,74.1645594 L142.407234,74.4585151 C142.449857,74.5464291 142.486475,74.6240932 142.51718,74.6909715 L142.59165,74.8587123 L140.978507,75.5422877 L140.87762,75.3204723 C140.846602,75.2550542 140.809812,75.1791559 140.767169,75.0933183 L140.698802,74.957175 C140.451587,74.4698485 140.146854,73.9244112 139.782479,73.335445 C138.73774,71.6467554 137.428313,69.9563008 135.838154,68.3795408 C131.302859,63.8824614 125.439805,61.1905 118.068078,61.1905 C110.698912,61.1905 104.885833,63.880549 100.430131,68.3742873 C98.8680107,69.9497428 97.5882498,71.6388583 96.5729192,73.3262145 C96.2896323,73.797003 96.0440193,74.2399427 95.8348701,74.6475665 L95.6848263,74.9465459 C95.5911488,75.137586 95.5203838,75.2899573 95.4718094,75.3993324 L95.4155003,75.5306069 L93.7926566,74.8703931 L93.8644297,74.7023109 C93.9236759,74.568324 94.0058519,74.3911875 94.1117682,74.1751885 C94.3720114,73.6444647 94.6910652,73.0555421 95.0717377,72.4229105 C96.1557821,70.6213604 97.5193962,68.8215697 99.1860259,67.1407127 C103.955324,62.330701 110.205245,59.4385 118.068078,59.4385 Z M205.245078,59.4385 C213.105798,59.4385 219.400528,62.3287944 224.247888,67.1354695 C225.941656,68.8150211 227.3347,70.6134712 228.448416,72.4136861 C228.8395,73.045836 229.168263,73.6342923 229.43726,74.1645624 L229.583235,74.4585171 C229.625858,74.5464308 229.662476,74.6240946 229.693181,74.6909725 L229.76765,74.8587123 L228.154507,75.5422877 L228.053619,75.3204708 C228.022602,75.2550523 227.985812,75.1791537 227.943169,75.0933158 L227.874803,74.957172 C227.627589,74.4698444 227.32286,73.9244062 226.958491,73.3354389 C225.91377,71.6467475 224.604376,69.9562914 223.014269,68.3795305 C218.479129,63.8824556 212.616359,61.1905 205.245078,61.1905 C197.875474,61.1905 192.062309,63.8805472 187.606766,68.3742768 C186.044705,69.9497262 184.765029,71.6388348 183.749797,73.3261836 C183.466538,73.7969698 183.220952,74.2399072 183.011829,74.6475287 L182.861805,74.9465063 C182.76814,75.1375448 182.697385,75.2899145 182.648819,75.399288 L182.592519,75.5305601 L180.969638,74.8704399 L181.041401,74.7023553 C181.100639,74.5683668 181.182804,74.3912287 181.288708,74.1752281 C181.548919,73.6445013 181.86794,73.0555758 182.248579,72.4229414 C183.332526,70.621384 184.696061,68.8215863 186.36264,67.1407232 C191.131786,62.3307028 197.381808,59.4385 205.245078,59.4385 Z M31.7830785,59.4385 C39.6442272,59.4385 45.9392354,62.3287886 50.7867527,67.1354592 C52.4805778,68.8150117 53.873659,70.6134633 54.9873965,72.41368 C55.3784884,73.045831 55.7072564,73.6342883 55.976257,74.1645594 L56.1222335,74.4585151 C56.1648567,74.5464291 56.201475,74.6240932 56.2321803,74.6909715 L56.3066497,74.8587123 L54.6935072,75.5422877 L54.5926196,75.3204723 C54.5616023,75.2550542 54.5248124,75.1791559 54.4821686,75.0933183 L54.4138023,74.957175 C54.1665871,74.4698485 53.8618541,73.9244112 53.4974792,73.335445 C52.4527401,71.6467554 51.1433135,69.9563008 49.5531542,68.3795408 C45.0178591,63.8824614 39.1548048,61.1905 31.7830785,61.1905 C24.413912,61.1905 18.6008329,63.880549 14.1451311,68.3742873 C12.5830107,69.9497428 11.3032498,71.6388583 10.2879192,73.3262145 C10.0046323,73.797003 9.75901929,74.2399427 9.54987012,74.6475665 L9.39982629,74.9465459 C9.30614876,75.137586 9.23538382,75.2899573 9.18680939,75.3993324 L9.13050035,75.5306069 L7.5076566,74.8703931 L7.57942974,74.7023109 C7.63867591,74.568324 7.72085194,74.3911875 7.82676817,74.1751885 C8.0870114,73.6444647 8.40606517,73.0555421 8.78673772,72.4229105 C9.87078212,70.6213604 11.2343962,68.8215697 12.9010259,67.1407127 C17.6703241,62.330701 23.9202449,59.4385 31.7830785,59.4385 Z M118.049078,55.849 C127.119429,55.849 134.382665,59.1838928 139.975715,64.7299613 C141.930046,66.6678757 143.537369,68.7429795 144.82238,70.8201193 C145.273614,71.5495119 145.652939,72.2284892 145.963304,72.8403292 L146.110226,73.1353058 C146.176002,73.2700526 146.230299,73.3853953 146.273344,73.4800193 L146.344497,73.6412528 L144.48366,74.4297472 L144.389344,74.2206543 C144.346996,74.1303042 144.29367,74.0197436 144.229169,73.8902987 L144.160935,73.7546083 C143.875699,73.1923076 143.524099,72.5629569 143.103684,71.8833807 C141.898264,69.9348955 140.38744,67.9843743 138.552692,66.1650387 C133.319805,60.9761072 126.554853,57.87 118.049078,57.87 C109.545745,57.87 102.838174,60.9739061 97.6970177,66.1589857 C95.8945883,67.9768141 94.4179822,69.9257876 93.2465024,71.8727311 C92.9060292,72.4385812 92.6127242,72.9695649 92.3650084,73.4559436 L92.221837,73.7423404 C92.1060343,73.9785168 92.0205793,74.1634742 91.9644468,74.2910712 L91.9110971,74.4162616 L90.0390599,73.6547384 L90.1527829,73.3915131 C90.2015962,73.2830499 90.2613979,73.1543033 90.3324366,73.0065874 L90.4072301,72.8525971 C90.7074862,72.2402332 91.0755993,71.5607175 91.5148108,70.8307689 C92.7655576,68.7520874 94.3388968,66.6754359 96.2618893,64.7360143 C101.764796,59.1860939 108.976287,55.849 118.049078,55.849 Z M205.225078,55.849 C214.295429,55.849 221.558665,59.1838928 227.151715,64.7299613 C229.106046,66.6678757 230.713369,68.7429795 231.99838,70.8201193 C232.449614,71.5495119 232.828939,72.2284892 233.139304,72.8403292 L233.286226,73.1353058 C233.352002,73.2700526 233.406299,73.3853953 233.449344,73.4800193 L233.520497,73.6412528 L231.65966,74.4297472 L231.565344,74.2206543 C231.522996,74.1303042 231.46967,74.0197436 231.405169,73.8902987 L231.336935,73.7546083 C231.051699,73.1923076 230.700099,72.5629569 230.279684,71.8833807 C229.074264,69.9348955 227.56344,67.9843743 225.728692,66.1650387 C220.495805,60.9761072 213.730853,57.87 205.225078,57.87 C196.721745,57.87 190.014174,60.9739061 184.873018,66.1589857 C183.070588,67.9768141 181.593982,69.9257876 180.422502,71.8727311 C180.082029,72.4385812 179.788724,72.9695649 179.541008,73.4559436 L179.397837,73.7423404 C179.282034,73.9785168 179.196579,74.1634742 179.140447,74.2910712 L179.087097,74.4162616 L177.21506,73.6547384 L177.328783,73.3915131 C177.377596,73.2830499 177.437398,73.1543033 177.508437,73.0065874 L177.58323,72.8525971 C177.883486,72.2402332 178.251599,71.5607175 178.690811,70.8307689 C179.941558,68.7520874 181.514897,66.6754359 183.437889,64.7360143 C188.940796,59.1860939 196.152287,55.849 205.225078,55.849 Z M31.7640785,55.849 C40.8344292,55.849 48.0976649,59.1838928 53.6907149,64.7299613 C55.6450456,66.6678757 57.2523691,68.7429795 58.5373796,70.8201193 C58.9886142,71.5495119 59.367939,72.2284892 59.6783041,72.8403292 L59.8252263,73.1353058 C59.8910018,73.2700526 59.9452991,73.3853953 59.988344,73.4800193 L60.0594974,73.6412528 L58.1986595,74.4297472 L58.1043444,74.2206543 C58.0619958,74.1303042 58.0086705,74.0197436 57.944169,73.8902987 L57.8759349,73.7546083 C57.5906994,73.1923076 57.2390994,72.5629569 56.8186836,71.8833807 C55.6132644,69.9348955 54.1024395,67.9843743 52.2676921,66.1650387 C47.0348045,60.9761072 40.2698527,57.87 31.7640785,57.87 C23.2607446,57.87 16.5531738,60.9739061 11.4120177,66.1589857 C9.60958831,67.9768141 8.1329822,69.9257876 6.96150238,71.8727311 C6.62102924,72.4385812 6.32772422,72.9695649 6.0800084,73.4559436 L5.93683697,73.7423404 C5.82103426,73.9785168 5.73557927,74.1634742 5.67944682,74.2910712 L5.62609708,74.4162616 L3.75405987,73.6547384 L3.86778289,73.3915131 C3.91659618,73.2830499 3.97639793,73.1543033 4.04743661,73.0065874 L4.12223014,72.8525971 C4.42248617,72.2402332 4.79059929,71.5607175 5.22981082,70.8307689 C6.48055756,68.7520874 8.05389677,66.6754359 9.97688925,64.7360143 C15.4797957,59.1860939 22.6912874,55.849 31.7640785,55.849 Z M162.520078,34.407 C172.8002,34.407 181.032065,38.1865478 187.370894,44.472098 C189.585817,46.6684046 191.407444,49.0201929 192.863769,51.3742895 C193.222444,51.9540752 193.541028,52.5057541 193.820676,53.0227876 C197.281424,51.8809426 201.07338,51.27 205.206078,51.27 C215.485763,51.27 223.717527,55.0495461 230.056508,61.3350878 C232.271482,63.5313884 234.093188,65.8831699 235.549609,68.2372593 C235.975798,68.9261299 236.34539,69.5753221 236.660319,70.1738685 L236.842733,70.5268311 C236.965414,70.7686627 237.064664,70.9731643 237.141089,71.1368046 L237.274786,71.4345524 L235.165371,72.3284476 L235.058476,72.0914834 C234.994479,71.9549578 234.908366,71.7777123 234.7996,71.5633095 C234.476317,70.9260452 234.077819,70.2127913 233.601329,69.4426157 C232.235133,67.2343614 230.522816,65.0237991 228.443399,62.9619122 C222.512692,57.0812039 214.845769,53.561 205.206078,53.561 C199.774051,53.561 194.988611,54.6786525 190.803212,56.7063791 L190.835497,56.7792528 L189.78794,57.2222414 C186.958239,58.7281207 184.414281,60.6620121 182.140624,62.9550466 C180.097856,65.015224 178.424344,67.2240307 177.096636,69.4305364 C176.710758,70.0718239 176.378337,70.6735962 176.097584,71.2248168 L175.935318,71.5493946 C175.830321,71.7635235 175.747337,71.9405018 175.68577,72.0767659 L175.583138,72.3131516 L173.461019,71.4498484 L173.589914,71.1515221 C173.645239,71.0285958 173.713018,70.8826817 173.793533,70.7152694 L173.878304,70.5407461 C174.21861,69.8467324 174.635823,69.076614 175.133615,68.2493386 C176.55118,65.8935005 178.334347,63.5399635 180.513783,61.3419534 C181.885623,59.958422 183.351147,58.6962278 184.912197,57.5689307 C184.725723,57.2261779 184.512425,56.8586709 184.273479,56.472445 C183.22874,54.7837554 181.919313,53.0933008 180.329154,51.5165408 C175.793859,47.0194614 169.930805,44.3275 162.559078,44.3275 C155.189474,44.3275 149.376309,47.0175472 144.920766,51.5112768 C143.358705,53.0867262 142.079029,54.7758348 141.063797,56.4631836 C140.780538,56.9339698 140.534952,57.3769072 140.325829,57.7845287 L140.175805,58.0835063 C140.08214,58.2745448 140.011385,58.4269145 139.962819,58.536288 L139.906519,58.6675601 L139.857928,58.6471272 C140.90939,59.4822438 141.916575,60.3797282 142.880029,61.3351083 C145.094895,63.531414 146.916485,65.8832008 148.372788,68.2372955 C148.798942,68.9261677 149.168501,69.5753614 149.483401,70.1739093 L149.665797,70.5268729 C149.788466,70.7687053 149.887706,70.9732077 149.964123,71.1368488 L150.097806,71.4345983 L147.988351,72.3284017 L147.881469,72.0914392 C147.81748,71.9549145 147.731376,71.7776697 147.622622,71.5632677 C147.299372,70.9260053 146.900912,70.2127532 146.424463,69.4425795 C145.058383,67.2343305 143.346184,65.0237735 141.266878,62.9618917 C135.336487,57.0811965 127.669761,53.561 118.030078,53.561 C108.392718,53.561 100.79078,57.0787056 94.9642594,62.955036 C92.9215508,65.0152073 91.2481234,67.2240071 89.920514,69.4305055 C89.5346646,70.0717906 89.202272,70.6735605 88.9215463,71.2247787 L88.7592966,71.549355 C88.6543103,71.7634825 88.5713351,71.9404595 88.5097761,72.0767222 L88.407157,72.3131048 L86.285,71.4498952 L86.4138812,71.1515658 C86.4692007,71.0286384 86.5369733,70.8827234 86.6174805,70.71531 L86.7022432,70.5407856 C87.0425181,69.8467691 87.4596974,69.0766477 87.9574555,68.2493695 C89.3749242,65.8935241 91.1580124,63.5399802 93.3373975,61.341964 C94.6154772,60.0529583 95.9748877,58.8692762 97.417119,57.8018838 L97.5688241,58.0941333 C97.3216425,57.6068085 97.0169472,57.0613731 96.6526131,56.4724088 C95.6079907,54.7837245 94.2986817,53.0932752 92.7086335,51.5165202 C88.1736536,47.0194539 82.3107965,44.3275 74.9390785,44.3275 C67.5694744,44.3275 61.7563087,47.0175472 57.3007665,51.5112768 C55.7387052,53.0867262 54.4590289,54.7758348 53.4437972,56.4631836 C53.160538,56.9339698 52.9149523,57.3769072 52.7058292,57.7845287 L52.6340504,57.9268458 C54.0283895,58.9595311 55.3483221,60.0988485 56.5950291,61.3351083 C58.809895,63.531414 60.6314847,65.8832008 62.087788,68.2372955 C62.513942,68.9261677 62.8835014,69.5753614 63.198401,70.1739093 L63.3807972,70.5268729 C63.5034659,70.7687053 63.6027057,70.9732077 63.6791231,71.1368488 L63.8128055,71.4345983 L61.7033514,72.3284017 L61.5964693,72.0914392 C61.5324803,71.9549145 61.4463763,71.7776697 61.3376215,71.5632677 C61.014372,70.9260053 60.6159119,70.2127532 60.1394627,69.4425795 C58.7733832,67.2343305 57.0611839,65.0237735 54.9818779,62.9618917 C49.051487,57.0811965 41.384761,53.561 31.7450785,53.561 C22.107718,53.561 14.5057802,57.0787056 8.67925941,62.955036 C6.63655077,65.0152073 4.96312338,67.2240071 3.63551396,69.4305055 C3.24966458,70.0717906 2.91727201,70.6735605 2.63654631,71.2247787 L2.47429659,71.549355 C2.36931028,71.7634825 2.28633512,71.9404595 2.22477609,72.0767222 L2.12215695,72.3131048 L4.54747351e-13,71.4498952 L0.128881178,71.1515658 C0.184200704,71.0286384 0.251973262,70.8827234 0.332480546,70.71531 L0.41724317,70.5407856 C0.757518147,69.8467691 1.17469741,69.0766477 1.67245549,68.2493695 C3.0899242,65.8935241 4.87301244,63.5399802 7.05239754,61.341964 C13.2890018,55.0520444 21.4621889,51.27 31.7450785,51.27 C36.1310967,51.27 40.1442658,51.9580518 43.7966401,53.2352345 C44.0899398,52.6620158 44.4338724,52.0421534 44.8284362,51.3863756 C46.2458835,49.0305322 48.0289343,46.6769898 50.2082621,44.4789745 C56.4447093,38.1890503 64.6176178,34.407 74.9000785,34.407 C85.1802,34.407 93.4120652,38.1865478 99.7508937,44.472098 C101.965817,46.6684046 103.787444,49.0201929 105.243769,51.3742895 C105.631866,52.0016357 105.973026,52.5960748 106.26871,53.1493233 C109.829838,51.9261749 113.746944,51.27 118.030078,51.27 C122.871305,51.27 127.258274,52.1082839 131.207194,53.6518239 L131.19324,53.6777887 C131.533512,52.9837732 131.950686,52.2136529 132.448436,51.3863756 C133.865884,49.0305322 135.648934,46.6769898 137.828262,44.4789745 C144.064709,38.1890503 152.237618,34.407 162.520078,34.407 Z M162.540078,41.008 C154.036745,41.008 147.329174,44.1119061 142.188018,49.2969857 C140.385588,51.1148141 138.908982,53.0637876 137.737502,55.0107311 C137.410786,55.5537186 137.127503,56.0646002 136.886258,56.5347708 C137.4236,56.8723292 137.949561,57.2272685 138.465546,57.5966196 C138.505767,57.5121847 138.551458,57.4167569 138.602708,57.3122281 C138.862919,56.7815013 139.18194,56.1925758 139.562579,55.5599414 C140.646526,53.758384 142.010061,51.9585863 143.67664,50.2777232 C148.445786,45.4677028 154.695808,42.5755 162.559078,42.5755 C170.420227,42.5755 176.715235,45.4657886 181.562753,50.2724592 C183.256578,51.9520117 184.649659,53.7504633 185.763396,55.55068 C185.984458,55.9079984 186.185607,56.2513567 186.367306,56.5781377 C186.884495,56.2420921 187.413337,55.9218495 187.952109,55.6163314 C187.840088,55.4235223 187.720465,55.2246994 187.594684,55.0213807 C186.389264,53.0728955 184.87844,51.1223743 183.043692,49.3030387 C177.810805,44.1141072 171.045853,41.008 162.540078,41.008 Z M74.9200785,41.008 C66.4167446,41.008 59.7091738,44.1119061 54.5680177,49.2969857 C52.7655883,51.1148141 51.2889822,53.0637876 50.1175024,55.0107311 C49.92847,55.324894 49.7539773,55.6283091 49.593754,55.9193099 C50.1355055,56.2343952 50.6655248,56.565463 51.1858455,56.9107824 C51.4029182,56.4903397 51.6551849,56.0375991 51.9425785,55.5599414 C53.0265264,53.758384 54.3900612,51.9585863 56.0566405,50.2777232 C60.8257858,45.4677028 67.0758075,42.5755 74.9390785,42.5755 C82.8002355,42.5755 89.0950658,45.4657961 93.9422734,50.2724798 C95.6359909,51.9520373 97.0289553,53.7504943 98.1425751,55.5507162 C98.4126083,55.9872383 98.6529246,56.4029257 98.8643661,56.7930065 C99.3794807,56.4479046 99.9067719,56.1200382 100.444078,55.8069482 C100.299262,55.5557573 100.142452,55.292568 99.9746836,55.0213807 C98.7692644,53.0728955 97.2584395,51.1223743 95.4236921,49.3030387 C90.1908045,44.1141072 83.4258527,41.008 74.9200785,41.008 Z M162.520078,36.698 C152.883164,36.698 145.28151,40.2156997 139.455145,46.0920255 C137.412488,48.1521977 135.739094,50.360999 134.411502,52.5674994 C134.025658,53.2087852 133.693268,53.8105561 133.412545,54.3617751 L133.313216,54.560724 C133.936067,54.8556834 134.54717,55.1690335 135.146597,55.500184 C135.393383,55.0238561 135.68004,54.5101852 136.005811,53.9687689 C137.256558,51.8900874 138.829897,49.8134359 140.752889,47.8740143 C146.255796,42.3240939 153.467287,38.987 162.540078,38.987 C171.610429,38.987 178.873665,42.3218928 184.466715,47.8679613 C186.421046,49.8058757 188.028369,51.8809795 189.31338,53.9581193 C189.464671,54.202672 189.607878,54.4415573 189.743113,54.6741449 C190.364432,54.3707067 190.998536,54.0865127 191.645028,53.8216523 C191.427664,53.4295176 191.18394,53.0135893 190.915451,52.5795855 C189.549354,50.3713384 187.837121,48.1607829 185.757763,46.098902 C179.827217,40.2182022 172.160207,36.698 162.520078,36.698 Z M74.9000785,36.698 C65.2631641,36.698 57.6615101,40.2156997 51.8351449,46.0920255 C49.7924883,48.1521977 48.1190937,50.360999 46.791502,52.5674994 C46.4722617,53.0980871 46.1896147,53.6016244 45.9425472,54.0718602 C46.5814772,54.3452082 47.2070877,54.6381172 47.820941,54.9492258 C47.9935804,54.635215 48.1820441,54.3074195 48.3858108,53.9687689 C49.6365576,51.8900874 51.2098968,49.8134359 53.1328893,47.8740143 C58.6357957,42.3240939 65.8472874,38.987 74.9200785,38.987 C83.9904292,38.987 91.2536649,42.3218928 96.8467149,47.8679613 C98.8010456,49.8058757 100.408369,51.8809795 101.69338,53.9581193 C101.882274,54.2634547 102.058566,54.5599554 102.222474,54.8463946 C102.837321,54.5349371 103.466592,54.2437873 104.108227,53.9718426 C103.869227,53.53497 103.59807,53.0687592 103.295451,52.5795855 C101.929354,50.3713384 100.217121,48.1607829 98.1377632,46.098902 C92.2072168,40.2182022 84.540207,36.698 74.9000785,36.698 Z" id="形状结合" fill="#838383"></path>
                <path d="M118.068078,25.0315 C125.929227,25.0315 132.224235,27.9217886 137.071753,32.7284592 C138.765578,34.4080117 140.158659,36.2064633 141.272396,38.00668 C141.663488,38.638831 141.992256,39.2272883 142.261257,39.7575594 L142.407234,40.0515151 C142.449857,40.1394291 142.486475,40.2170932 142.51718,40.2839715 L142.59165,40.4517123 L140.978507,41.1352877 L140.87762,40.9134723 C140.846602,40.8480542 140.809812,40.7721559 140.767169,40.6863183 L140.698802,40.550175 C140.451587,40.0628485 140.146854,39.5174112 139.782479,38.928445 C138.73774,37.2397554 137.428313,35.5493008 135.838154,33.9725408 C131.302859,29.4754614 125.439805,26.7835 118.068078,26.7835 C110.698912,26.7835 104.885833,29.473549 100.430131,33.9672873 C98.8680107,35.5427428 97.5882498,37.2318583 96.5729192,38.9192145 C96.2896323,39.390003 96.0440193,39.8329427 95.8348701,40.2405665 L95.6848263,40.5395459 C95.5911488,40.730586 95.5203838,40.8829573 95.4718094,40.9923324 L95.4155003,41.1236069 L93.7926566,40.4633931 L93.8644297,40.2953109 C93.9236759,40.161324 94.0058519,39.9841875 94.1117682,39.7681885 C94.3720114,39.2374647 94.6910652,38.6485421 95.0717377,38.0159105 C96.1557821,36.2143604 97.5193962,34.4145697 99.1860259,32.7337127 C103.955324,27.923701 110.205245,25.0315 118.068078,25.0315 Z M205.245078,25.0315 C213.105798,25.0315 219.400528,27.9217944 224.247888,32.7284695 C225.941656,34.4080211 227.3347,36.2064712 228.448416,38.0066861 C228.8395,38.638836 229.168263,39.2272923 229.43726,39.7575624 L229.583235,40.0515171 C229.625858,40.1394308 229.662476,40.2170946 229.693181,40.2839725 L229.76765,40.4517123 L228.154507,41.1352877 L228.053619,40.9134708 C228.022602,40.8480523 227.985812,40.7721537 227.943169,40.6863158 L227.874803,40.550172 C227.627589,40.0628444 227.32286,39.5174062 226.958491,38.9284389 C225.91377,37.2397475 224.604376,35.5492914 223.014269,33.9725305 C218.479129,29.4754556 212.616359,26.7835 205.245078,26.7835 C197.875474,26.7835 192.062309,29.4735472 187.606766,33.9672768 C186.044705,35.5427262 184.765029,37.2318348 183.749797,38.9191836 C183.466538,39.3899698 183.220952,39.8329072 183.011829,40.2405287 L182.861805,40.5395063 C182.76814,40.7305448 182.697385,40.8829145 182.648819,40.992288 L182.592519,41.1235601 L180.969638,40.4634399 L181.041401,40.2953553 C181.100639,40.1613668 181.182804,39.9842287 181.288708,39.7682281 C181.548919,39.2375013 181.86794,38.6485758 182.248579,38.0159414 C183.332526,36.214384 184.696061,34.4145863 186.36264,32.7337232 C191.131786,27.9237028 197.381808,25.0315 205.245078,25.0315 Z M31.7830785,25.0315 C39.6442272,25.0315 45.9392354,27.9217886 50.7867527,32.7284592 C52.4805778,34.4080117 53.873659,36.2064633 54.9873965,38.00668 C55.3784884,38.638831 55.7072564,39.2272883 55.976257,39.7575594 L56.1222335,40.0515151 C56.1648567,40.1394291 56.201475,40.2170932 56.2321803,40.2839715 L56.3066497,40.4517123 L54.6935072,41.1352877 L54.5926196,40.9134723 C54.5616023,40.8480542 54.5248124,40.7721559 54.4821686,40.6863183 L54.4138023,40.550175 C54.1665871,40.0628485 53.8618541,39.5174112 53.4974792,38.928445 C52.4527401,37.2397554 51.1433135,35.5493008 49.5531542,33.9725408 C45.0178591,29.4754614 39.1548048,26.7835 31.7830785,26.7835 C24.413912,26.7835 18.6008329,29.473549 14.1451311,33.9672873 C12.5830107,35.5427428 11.3032498,37.2318583 10.2879192,38.9192145 C10.0046323,39.390003 9.75901929,39.8329427 9.54987012,40.2405665 L9.39982629,40.5395459 C9.30614876,40.730586 9.23538382,40.8829573 9.18680939,40.9923324 L9.13050035,41.1236069 L7.5076566,40.4633931 L7.57942974,40.2953109 C7.63867591,40.161324 7.72085194,39.9841875 7.82676817,39.7681885 C8.0870114,39.2374647 8.40606517,38.6485421 8.78673772,38.0159105 C9.87078212,36.2143604 11.2343962,34.4145697 12.9010259,32.7337127 C17.6703241,27.923701 23.9202449,25.0315 31.7830785,25.0315 Z M118.049078,21.442 C127.119429,21.442 134.382665,24.7768928 139.975715,30.3229613 C141.930046,32.2608757 143.537369,34.3359795 144.82238,36.4131193 C145.273614,37.1425119 145.652939,37.8214892 145.963304,38.4333292 L146.110226,38.7283058 C146.176002,38.8630526 146.230299,38.9783953 146.273344,39.0730193 L146.344497,39.2342528 L144.48366,40.0227472 L144.389344,39.8136543 C144.346996,39.7233042 144.29367,39.6127436 144.229169,39.4832987 L144.160935,39.3476083 C143.875699,38.7853076 143.524099,38.1559569 143.103684,37.4763807 C141.898264,35.5278955 140.38744,33.5773743 138.552692,31.7580387 C133.319805,26.5691072 126.554853,23.463 118.049078,23.463 C109.545745,23.463 102.838174,26.5669061 97.6970177,31.7519857 C95.8945883,33.5698141 94.4179822,35.5187876 93.2465024,37.4657311 C92.9060292,38.0315812 92.6127242,38.5625649 92.3650084,39.0489436 L92.221837,39.3353404 C92.1060343,39.5715168 92.0205793,39.7564742 91.9644468,39.8840712 L91.9110971,40.0092616 L90.0390599,39.2477384 L90.1527829,38.9845131 C90.2015962,38.8760499 90.2613979,38.7473033 90.3324366,38.5995874 L90.4072301,38.4455971 C90.7074862,37.8332332 91.0755993,37.1537175 91.5148108,36.4237689 C92.7655576,34.3450874 94.3388968,32.2684359 96.2618893,30.3290143 C101.764796,24.7790939 108.976287,21.442 118.049078,21.442 Z M205.225078,21.442 C214.295429,21.442 221.558665,24.7768928 227.151715,30.3229613 C229.106046,32.2608757 230.713369,34.3359795 231.99838,36.4131193 C232.449614,37.1425119 232.828939,37.8214892 233.139304,38.4333292 L233.286226,38.7283058 C233.352002,38.8630526 233.406299,38.9783953 233.449344,39.0730193 L233.520497,39.2342528 L231.65966,40.0227472 L231.565344,39.8136543 C231.522996,39.7233042 231.46967,39.6127436 231.405169,39.4832987 L231.336935,39.3476083 C231.051699,38.7853076 230.700099,38.1559569 230.279684,37.4763807 C229.074264,35.5278955 227.56344,33.5773743 225.728692,31.7580387 C220.495805,26.5691072 213.730853,23.463 205.225078,23.463 C196.721745,23.463 190.014174,26.5669061 184.873018,31.7519857 C183.070588,33.5698141 181.593982,35.5187876 180.422502,37.4657311 C180.082029,38.0315812 179.788724,38.5625649 179.541008,39.0489436 L179.397837,39.3353404 C179.282034,39.5715168 179.196579,39.7564742 179.140447,39.8840712 L179.087097,40.0092616 L177.21506,39.2477384 L177.328783,38.9845131 C177.377596,38.8760499 177.437398,38.7473033 177.508437,38.5995874 L177.58323,38.4455971 C177.883486,37.8332332 178.251599,37.1537175 178.690811,36.4237689 C179.941558,34.3450874 181.514897,32.2684359 183.437889,30.3290143 C188.940796,24.7790939 196.152287,21.442 205.225078,21.442 Z M31.7640785,21.442 C40.8344292,21.442 48.0976649,24.7768928 53.6907149,30.3229613 C55.6450456,32.2608757 57.2523691,34.3359795 58.5373796,36.4131193 C58.9886142,37.1425119 59.367939,37.8214892 59.6783041,38.4333292 L59.8252263,38.7283058 C59.8910018,38.8630526 59.9452991,38.9783953 59.988344,39.0730193 L60.0594974,39.2342528 L58.1986595,40.0227472 L58.1043444,39.8136543 C58.0619958,39.7233042 58.0086705,39.6127436 57.944169,39.4832987 L57.8759349,39.3476083 C57.5906994,38.7853076 57.2390994,38.1559569 56.8186836,37.4763807 C55.6132644,35.5278955 54.1024395,33.5773743 52.2676921,31.7580387 C47.0348045,26.5691072 40.2698527,23.463 31.7640785,23.463 C23.2607446,23.463 16.5531738,26.5669061 11.4120177,31.7519857 C9.60958831,33.5698141 8.1329822,35.5187876 6.96150238,37.4657311 C6.62102924,38.0315812 6.32772422,38.5625649 6.0800084,39.0489436 L5.93683697,39.3353404 C5.82103426,39.5715168 5.73557927,39.7564742 5.67944682,39.8840712 L5.62609708,40.0092616 L3.75405987,39.2477384 L3.86778289,38.9845131 C3.91659618,38.8760499 3.97639793,38.7473033 4.04743661,38.5995874 L4.12223014,38.4455971 C4.42248617,37.8332332 4.79059929,37.1537175 5.22981082,36.4237689 C6.48055756,34.3450874 8.05389677,32.2684359 9.97688925,30.3290143 C15.4797957,24.7790939 22.6912874,21.442 31.7640785,21.442 Z M162.520078,2.13162821e-14 C172.8002,2.13162821e-14 181.032065,3.7795478 187.370894,10.065098 C189.585817,12.2614046 191.407444,14.6131929 192.863769,16.9672895 C193.222444,17.5470752 193.541028,18.0987541 193.820676,18.6157876 C197.281424,17.4739426 201.07338,16.863 205.206078,16.863 C215.485763,16.863 223.717527,20.6425461 230.056508,26.9280878 C232.271482,29.1243884 234.093188,31.4761699 235.549609,33.8302593 C235.975798,34.5191299 236.34539,35.1683221 236.660319,35.7668685 L236.842733,36.1198311 C236.965414,36.3616627 237.064664,36.5661643 237.141089,36.7298046 L237.274786,37.0275524 L235.165371,37.9214476 L235.058476,37.6844834 C234.994479,37.5479578 234.908366,37.3707123 234.7996,37.1563095 C234.476317,36.5190452 234.077819,35.8057913 233.601329,35.0356157 C232.235133,32.8273614 230.522816,30.6167991 228.443399,28.5549122 C222.512692,22.6742039 214.845769,19.154 205.206078,19.154 C199.774051,19.154 194.988611,20.2716525 190.803212,22.2993791 L190.835497,22.3722528 L189.78794,22.8152414 C186.958239,24.3211207 184.414281,26.2550121 182.140624,28.5480466 C180.097856,30.608224 178.424344,32.8170307 177.096636,35.0235364 C176.710758,35.6648239 176.378337,36.2665962 176.097584,36.8178168 L175.935318,37.1423946 C175.830321,37.3565235 175.747337,37.5335018 175.68577,37.6697659 L175.583138,37.9061516 L173.461019,37.0428484 L173.589914,36.7445221 C173.645239,36.6215958 173.713018,36.4756817 173.793533,36.3082694 L173.878304,36.1337461 C174.21861,35.4397324 174.635823,34.669614 175.133615,33.8423386 C176.55118,31.4865005 178.334347,29.1329635 180.513783,26.9349534 C181.885623,25.551422 183.351147,24.2892278 184.912197,23.1619307 C184.725723,22.8191779 184.512425,22.4516709 184.273479,22.065445 C183.22874,20.3767554 181.919313,18.6863008 180.329154,17.1095408 C175.793859,12.6124614 169.930805,9.9205 162.559078,9.9205 C155.189474,9.9205 149.376309,12.6105472 144.920766,17.1042768 C143.358705,18.6797262 142.079029,20.3688348 141.063797,22.0561836 C140.780538,22.5269698 140.534952,22.9699072 140.325829,23.3775287 L140.175805,23.6765063 C140.08214,23.8675448 140.011385,24.0199145 139.962819,24.129288 L139.906519,24.2605601 L139.857928,24.2401272 C140.90939,25.0752438 141.916575,25.9727282 142.880029,26.9281083 C145.094895,29.124414 146.916485,31.4762008 148.372788,33.8302955 C148.798942,34.5191677 149.168501,35.1683614 149.483401,35.7669093 L149.665797,36.1198729 C149.788466,36.3617053 149.887706,36.5662077 149.964123,36.7298488 L150.097806,37.0275983 L147.988351,37.9214017 L147.881469,37.6844392 C147.81748,37.5479145 147.731376,37.3706697 147.622622,37.1562677 C147.299372,36.5190053 146.900912,35.8057532 146.424463,35.0355795 C145.058383,32.8273305 143.346184,30.6167735 141.266878,28.5548917 C135.336487,22.6741965 127.669761,19.154 118.030078,19.154 C108.392718,19.154 100.79078,22.6717056 94.9642594,28.548036 C92.9215508,30.6082073 91.2481234,32.8170071 89.920514,35.0235055 C89.5346646,35.6647906 89.202272,36.2665605 88.9215463,36.8177787 L88.7592966,37.142355 C88.6543103,37.3564825 88.5713351,37.5334595 88.5097761,37.6697222 L88.407157,37.9061048 L86.285,37.0428952 L86.4138812,36.7445658 C86.4692007,36.6216384 86.5369733,36.4757234 86.6174805,36.30831 L86.7022432,36.1337856 C87.0425181,35.4397691 87.4596974,34.6696477 87.9574555,33.8423695 C89.3749242,31.4865241 91.1580124,29.1329802 93.3373975,26.934964 C94.6154772,25.6459583 95.9748877,24.4622762 97.417119,23.3948838 L97.5688241,23.6871333 C97.3216425,23.1998085 97.0169472,22.6543731 96.6526131,22.0654088 C95.6079907,20.3767245 94.2986817,18.6862752 92.7086335,17.1095202 C88.1736536,12.6124539 82.3107965,9.9205 74.9390785,9.9205 C67.5694744,9.9205 61.7563087,12.6105472 57.3007665,17.1042768 C55.7387052,18.6797262 54.4590289,20.3688348 53.4437972,22.0561836 C53.160538,22.5269698 52.9149523,22.9699072 52.7058292,23.3775287 L52.6340504,23.5198458 C54.0283895,24.5525311 55.3483221,25.6918485 56.5950291,26.9281083 C58.809895,29.124414 60.6314847,31.4762008 62.087788,33.8302955 C62.513942,34.5191677 62.8835014,35.1683614 63.198401,35.7669093 L63.3807972,36.1198729 C63.5034659,36.3617053 63.6027057,36.5662077 63.6791231,36.7298488 L63.8128055,37.0275983 L61.7033514,37.9214017 L61.5964693,37.6844392 C61.5324803,37.5479145 61.4463763,37.3706697 61.3376215,37.1562677 C61.014372,36.5190053 60.6159119,35.8057532 60.1394627,35.0355795 C58.7733832,32.8273305 57.0611839,30.6167735 54.9818779,28.5548917 C49.051487,22.6741965 41.384761,19.154 31.7450785,19.154 C22.107718,19.154 14.5057802,22.6717056 8.67925941,28.548036 C6.63655077,30.6082073 4.96312338,32.8170071 3.63551396,35.0235055 C3.24966458,35.6647906 2.91727201,36.2665605 2.63654631,36.8177787 L2.47429659,37.142355 C2.36931028,37.3564825 2.28633512,37.5334595 2.22477609,37.6697222 L2.12215695,37.9061048 L5.93303184e-13,37.0428952 L0.128881178,36.7445658 C0.184200704,36.6216384 0.251973262,36.4757234 0.332480546,36.30831 L0.41724317,36.1337856 C0.757518147,35.4397691 1.17469741,34.6696477 1.67245549,33.8423695 C3.0899242,31.4865241 4.87301244,29.1329802 7.05239754,26.934964 C13.2890018,20.6450444 21.4621889,16.863 31.7450785,16.863 C36.1310967,16.863 40.1442658,17.5510518 43.7966401,18.8282345 C44.0899398,18.2550158 44.4338724,17.6351534 44.8284362,16.9793756 C46.2458835,14.6235322 48.0289343,12.2699898 50.2082621,10.0719745 C56.4447093,3.7820503 64.6176178,2.13162821e-14 74.9000785,2.13162821e-14 C85.1802,2.13162821e-14 93.4120652,3.7795478 99.7508937,10.065098 C101.965817,12.2614046 103.787444,14.6131929 105.243769,16.9672895 C105.631866,17.5946357 105.973026,18.1890748 106.26871,18.7423233 C109.829838,17.5191749 113.746944,16.863 118.030078,16.863 C122.871305,16.863 127.258274,17.7012839 131.207194,19.2448239 L131.19324,19.2707887 C131.533512,18.5767732 131.950686,17.8066529 132.448436,16.9793756 C133.865884,14.6235322 135.648934,12.2699898 137.828262,10.0719745 C144.064709,3.7820503 152.237618,2.13162821e-14 162.520078,2.13162821e-14 Z M162.540078,6.601 C154.036745,6.601 147.329174,9.70490615 142.188018,14.8899857 C140.385588,16.7078141 138.908982,18.6567876 137.737502,20.6037311 C137.410786,21.1467186 137.127503,21.6576002 136.886258,22.1277708 C137.4236,22.4653292 137.949561,22.8202685 138.465546,23.1896196 C138.505767,23.1051847 138.551458,23.0097569 138.602708,22.9052281 C138.862919,22.3745013 139.18194,21.7855758 139.562579,21.1529414 C140.646526,19.351384 142.010061,17.5515863 143.67664,15.8707232 C148.445786,11.0607028 154.695808,8.1685 162.559078,8.1685 C170.420227,8.1685 176.715235,11.0587886 181.562753,15.8654592 C183.256578,17.5450117 184.649659,19.3434633 185.763396,21.14368 C185.984458,21.5009984 186.185607,21.8443567 186.367306,22.1711377 C186.884495,21.8350921 187.413337,21.5148495 187.952109,21.2093314 C187.840088,21.0165223 187.720465,20.8176994 187.594684,20.6143807 C186.389264,18.6658955 184.87844,16.7153743 183.043692,14.8960387 C177.810805,9.70710722 171.045853,6.601 162.540078,6.601 Z M74.9200785,6.601 C66.4167446,6.601 59.7091738,9.70490615 54.5680177,14.8899857 C52.7655883,16.7078141 51.2889822,18.6567876 50.1175024,20.6037311 C49.92847,20.917894 49.7539773,21.2213091 49.593754,21.5123099 C50.1355055,21.8273952 50.6655248,22.158463 51.1858455,22.5037824 C51.4029182,22.0833397 51.6551849,21.6305991 51.9425785,21.1529414 C53.0265264,19.351384 54.3900612,17.5515863 56.0566405,15.8707232 C60.8257858,11.0607028 67.0758075,8.1685 74.9390785,8.1685 C82.8002355,8.1685 89.0950658,11.0587961 93.9422734,15.8654798 C95.6359909,17.5450373 97.0289553,19.3434943 98.1425751,21.1437162 C98.4126083,21.5802383 98.6529246,21.9959257 98.8643661,22.3860065 C99.3794807,22.0409046 99.9067719,21.7130382 100.444078,21.3999482 C100.299262,21.1487573 100.142452,20.885568 99.9746836,20.6143807 C98.7692644,18.6658955 97.2584395,16.7153743 95.4236921,14.8960387 C90.1908045,9.70710722 83.4258527,6.601 74.9200785,6.601 Z M162.520078,2.291 C152.883164,2.291 145.28151,5.8086997 139.455145,11.6850255 C137.412488,13.7451977 135.739094,15.953999 134.411502,18.1604994 C134.025658,18.8017852 133.693268,19.4035561 133.412545,19.9547751 L133.313216,20.153724 C133.936067,20.4486834 134.54717,20.7620335 135.146597,21.093184 C135.393383,20.6168561 135.68004,20.1031852 136.005811,19.5617689 C137.256558,17.4830874 138.829897,15.4064359 140.752889,13.4670143 C146.255796,7.91709385 153.467287,4.58 162.540078,4.58 C171.610429,4.58 178.873665,7.91489278 184.466715,13.4609613 C186.421046,15.3988757 188.028369,17.4739795 189.31338,19.5511193 C189.464671,19.795672 189.607878,20.0345573 189.743113,20.2671449 C190.364432,19.9637067 190.998536,19.6795127 191.645028,19.4146523 C191.427664,19.0225176 191.18394,18.6065893 190.915451,18.1725855 C189.549354,15.9643384 187.837121,13.7537829 185.757763,11.691902 C179.827217,5.8112022 172.160207,2.291 162.520078,2.291 Z M74.9000785,2.291 C65.2631641,2.291 57.6615101,5.8086997 51.8351449,11.6850255 C49.7924883,13.7451977 48.1190937,15.953999 46.791502,18.1604994 C46.4722617,18.6910871 46.1896147,19.1946244 45.9425472,19.6648602 C46.5814772,19.9382082 47.2070877,20.2311172 47.820941,20.5422258 C47.9935804,20.228215 48.1820441,19.9004195 48.3858108,19.5617689 C49.6365576,17.4830874 51.2098968,15.4064359 53.1328893,13.4670143 C58.6357957,7.91709385 65.8472874,4.58 74.9200785,4.58 C83.9904292,4.58 91.2536649,7.91489278 96.8467149,13.4609613 C98.8010456,15.3988757 100.408369,17.4739795 101.69338,19.5511193 C101.882274,19.8564547 102.058566,20.1529554 102.222474,20.4393946 C102.837321,20.1279371 103.466592,19.8367873 104.108227,19.5648426 C103.869227,19.12797 103.59807,18.6617592 103.295451,18.1725855 C101.929354,15.9643384 100.217121,13.7537829 98.1377632,11.691902 C92.2072168,5.8112022 84.540207,2.291 74.9000785,2.291 Z" id="形状结合" fill="#FFFFFF"></path>
            </g>
        </g>
    </g>
</svg>