<?xml version="1.0" encoding="UTF-8"?>
<svg width="138px" height="100px" viewBox="0 0 138 100" version="1.1" xmlns="http://www.w3.org/2000/svg" xmlns:xlink="http://www.w3.org/1999/xlink">
    <!-- Generator: Sketch 61.2 (89653) - https://sketch.com -->
    <title>编组 14</title>
    <desc>Created with Sketch.</desc>
    <g id="页面-1" stroke="none" stroke-width="1" fill="none" fill-rule="evenodd">
        <g id="形状素材" transform="translate(-656.000000, -743.000000)">
            <g id="编组-14" transform="translate(657.000000, 744.000000)">
                <path d="M97.88,48.939 C97.88,75.968 75.969,97.879 48.94,97.879 C21.911,97.879 5.68434189e-14,75.968 5.68434189e-14,48.939 C5.68434189e-14,21.911 21.911,4.26325641e-13 48.94,4.26325641e-13 C75.969,4.26325641e-13 97.88,21.911 97.88,48.939 Z" id="Stroke-3" stroke="#FFFFFF" stroke-width="2"></path>
                <path d="M109.055,48.939 C109.055,75.968 87.144,97.879 60.115,97.879 C33.086,97.879 11.175,75.968 11.175,48.939 C11.175,21.911 33.086,4.26325641e-13 60.115,4.26325641e-13 C87.144,4.26325641e-13 109.055,21.911 109.055,48.939" id="Fill-132" fill="#838383"></path>
                <path d="M135.02,48.939 C135.02,75.968 113.109,97.879 86.081,97.879 C59.052,97.879 37.141,75.968 37.141,48.939 C37.141,21.911 59.052,4.26325641e-13 86.081,4.26325641e-13 C113.109,4.26325641e-13 135.02,21.911 135.02,48.939 Z" id="Stroke-133" stroke="#FFFFFF" stroke-width="2" stroke-dasharray="2.655,2.655"></path>
            </g>
        </g>
    </g>
</svg>