<?xml version="1.0" encoding="UTF-8"?>
<svg width="84px" height="153px" viewBox="0 0 84 153" version="1.1" xmlns="http://www.w3.org/2000/svg" xmlns:xlink="http://www.w3.org/1999/xlink">
    <!-- Generator: Sketch 61.2 (89653) - https://sketch.com -->
    <title>57</title>
    <desc>Created with Sketch.</desc>
    <g id="页面-1" stroke="none" stroke-width="1" fill="none" fill-rule="evenodd">
        <g id="形状素材" transform="translate(-271.000000, -1256.000000)">
            <g id="57" transform="translate(271.000000, 1256.000000)">
                <polygon id="Fill-138" fill="#FFFFFF" points="8 61 69 61 69 0 8 0"></polygon>
                <polygon id="Fill-139" fill="#636363" points="24 83 84 83 84 22 24 22"></polygon>
                <path d="M1.56081162,106.419178 L76.4391884,106.419178 L76.4391884,30.580822 L1.56081162,30.580822 L1.56081162,106.419178 Z M0,108 L78,108 L78,29 L0,29 L0,108 Z" id="Fill-140" fill="#838383"></path>
                <path d="M15.0547447,146.858806 C16.734776,146.858806 18.1079237,148.224741 18.1079237,149.927828 C18.1079237,151.61831 16.734776,153 15.0547447,153 C13.3606218,153 12,151.61831 12,149.927828 C12,148.224741 13.3606218,146.858806 15.0547447,146.858806 Z M31.8613208,146.858806 C33.5413521,146.858806 34.9176313,148.224741 34.9176313,149.927828 C34.9176313,151.61831 33.5413521,153 31.8613208,153 C30.1671979,153 28.8081418,151.61831 28.8081418,149.927828 C28.8081418,148.224741 30.1671979,146.858806 31.8613208,146.858806 Z M48.1355477,146.858806 C49.8296706,146.858806 51.1902925,148.224741 51.1902925,149.927828 C51.1902925,151.61831 49.8296706,153 48.1355477,153 C46.4570821,153 45.0823687,151.61831 45.0823687,149.927828 C45.0823687,148.224741 46.4570821,146.858806 48.1355477,146.858806 Z M64.9452553,146.858806 C66.6205894,146.858806 68,148.224741 68,149.927828 C68,151.61831 66.6205894,153 64.9452553,153 C63.2495666,153 61.893642,151.61831 61.893642,149.927828 C61.893642,148.224741 63.2495666,146.858806 64.9452553,146.858806 Z M48.1355477,131.220661 C49.8296706,131.220661 51.1902925,132.583445 51.1902925,134.292833 C51.1902925,135.980165 49.8296706,137.36343 48.1355477,137.36343 C46.4570821,137.36343 45.0823687,135.980165 45.0823687,134.292833 C45.0823687,132.583445 46.4570821,131.220661 48.1355477,131.220661 Z M64.9452553,131.204906 C66.6205894,131.204906 68,132.583445 68,134.292833 C68,135.980165 66.6205894,137.36343 64.9452553,137.36343 C63.2495666,137.36343 61.893642,135.980165 61.893642,134.292833 C61.893642,132.583445 63.2495666,131.204906 64.9452553,131.204906 Z M15.0547447,131.204906 C16.734776,131.204906 18.1079237,132.583445 18.1079237,134.292833 C18.1079237,135.980165 16.734776,137.347675 15.0547447,137.347675 C13.3606218,137.347675 12,135.980165 12,134.292833 C12,132.583445 13.3606218,131.204906 15.0547447,131.204906 Z M31.8613208,131.220661 C33.5413521,131.220661 34.9176313,132.583445 34.9176313,134.292833 C34.9176313,135.980165 33.5413521,137.347675 31.8613208,137.347675 C30.1671979,137.347675 28.8081418,135.980165 28.8081418,134.292833 C28.8081418,132.583445 30.1671979,131.220661 31.8613208,131.220661 Z M15.0547447,115.56361 C16.734776,115.56361 18.1079237,116.948451 18.1079237,118.637358 C18.1079237,120.343595 16.734776,121.711106 15.0547447,121.711106 C13.3606218,121.711106 12,120.343595 12,118.637358 C12,116.948451 13.3606218,115.56361 15.0547447,115.56361 Z M31.8613208,115.56361 C33.5413521,115.56361 34.9176313,116.948451 34.9176313,118.637358 C34.9176313,120.343595 33.5413521,121.711106 31.8613208,121.711106 C30.1671979,121.711106 28.8081418,120.343595 28.8081418,118.637358 C28.8081418,116.948451 30.1671979,115.56361 31.8613208,115.56361 Z M48.1355477,115.56361 C49.8296706,115.56361 51.1902925,116.948451 51.1902925,118.637358 C51.1902925,120.343595 49.8296706,121.711106 48.1355477,121.711106 C46.4570821,121.711106 45.0823687,120.343595 45.0823687,118.637358 C45.0823687,116.948451 46.4570821,115.56361 48.1355477,115.56361 Z M64.9452553,115.56361 C66.6205894,115.56361 68,116.948451 68,118.637358 C68,120.343595 66.6205894,121.711106 64.9452553,121.711106 C63.2495666,121.711106 61.893642,120.343595 61.893642,118.637358 C61.893642,116.948451 63.2495666,115.56361 64.9452553,115.56361 Z M15.0547447,99.9270398 C16.734776,99.9270398 18.1079237,101.311881 18.1079237,102.999212 C18.1079237,104.707025 16.734776,106.07296 15.0547447,106.07296 C13.3606218,106.07296 12,104.707025 12,102.999212 C12,101.311881 13.3606218,99.9270398 15.0547447,99.9270398 Z M31.8613208,99.9270398 C33.5413521,99.9270398 34.9176313,101.311881 34.9176313,102.999212 C34.9176313,104.707025 33.5413521,106.07296 31.8613208,106.07296 C30.1671979,106.07296 28.8081418,104.707025 28.8081418,102.999212 C28.8081418,101.311881 30.1671979,99.9270398 31.8613208,99.9270398 Z M48.1355477,99.9270398 C49.8296706,99.9270398 51.1902925,101.311881 51.1902925,102.999212 C51.1902925,104.707025 49.8296706,106.07296 48.1355477,106.07296 C46.4570821,106.07296 45.0823687,104.707025 45.0823687,102.999212 C45.0823687,101.311881 46.4570821,99.9270398 48.1355477,99.9270398 Z M64.9452553,99.9270398 C66.6205894,99.9270398 68,101.311881 68,102.999212 C68,104.707025 66.6205894,106.07296 64.9452553,106.07296 C63.2495666,106.07296 61.893642,104.707025 61.893642,102.999212 C61.893642,101.311881 63.2495666,99.9270398 64.9452553,99.9270398 Z M15.0547447,84.29047 C16.734776,84.29047 18.1079237,85.6564051 18.1079237,87.3642179 C18.1079237,89.0547004 16.734776,90.4363903 15.0547447,90.4363903 C13.3606218,90.4363903 12,89.0547004 12,87.3642179 C12,85.6564051 13.3606218,84.29047 15.0547447,84.29047 Z M31.8613208,84.29047 C33.5413521,84.29047 34.9176313,85.6721598 34.9176313,87.3642179 C34.9176313,89.0547004 33.5413521,90.4363903 31.8613208,90.4363903 C30.1671979,90.4363903 28.8081418,89.0547004 28.8081418,87.3642179 C28.8081418,85.6721598 30.1671979,84.29047 31.8613208,84.29047 Z M48.1355477,84.29047 C49.8296706,84.29047 51.1902925,85.6721598 51.1902925,87.3642179 C51.1902925,89.0547004 49.8296706,90.4363903 48.1355477,90.4363903 C46.4570821,90.4363903 45.0823687,89.0547004 45.0823687,87.3642179 C45.0823687,85.6721598 46.4570821,84.29047 48.1355477,84.29047 Z M64.9452553,84.29047 C66.6205894,84.29047 68,85.6721598 68,87.3642179 C68,89.0673042 66.6205894,90.4363903 64.9452553,90.4363903 C63.2495666,90.4363903 61.893642,89.0673042 61.893642,87.3642179 C61.893642,85.6721598 63.2495666,84.29047 64.9452553,84.29047 Z M15.0547447,68.6523246 C16.734776,68.6523246 18.1079237,70.0229862 18.1079237,71.727648 C18.1079237,73.4165551 16.734776,74.7998204 15.0547447,74.7998204 C13.3606218,74.7998204 12,73.4165551 12,71.727648 C12,70.0229862 13.3606218,68.6523246 15.0547447,68.6523246 Z M31.8613208,68.6523246 C33.5413521,68.6523246 34.9176313,70.0229862 34.9176313,71.727648 C34.9176313,73.4165551 33.5413521,74.7998204 31.8613208,74.7998204 C30.1671979,74.7998204 28.8081418,73.4165551 28.8081418,71.727648 C28.8081418,70.0229862 30.1671979,68.6523246 31.8613208,68.6523246 Z M48.1355477,68.6523246 C49.8296706,68.6523246 51.1902925,70.0229862 51.1902925,71.727648 C51.1902925,73.4165551 49.8296706,74.7998204 48.1355477,74.7998204 C46.4570821,74.7998204 45.0823687,73.4165551 45.0823687,71.727648 C45.0823687,70.0229862 46.4570821,68.6523246 48.1355477,68.6523246 Z M64.9452553,68.6523246 C66.6205894,68.6523246 68,70.0229862 68,71.727648 C68,73.4165551 66.6205894,74.7998204 64.9452553,74.7998204 C63.2495666,74.7998204 61.893642,73.4165551 61.893642,71.727648 C61.893642,70.0229862 63.2495666,68.6523246 64.9452553,68.6523246 Z M15.0547447,53 C15.8485713,53 16.6439635,53.3403022 17.2044959,53.905897 C17.79008,54.4730673 18.1079237,55.2749831 18.1079237,56.0895026 C18.1079237,56.8882675 17.79008,57.6854568 17.2044959,58.255778 C16.6439635,58.8229483 15.8485713,59.161675 15.0547447,59.161675 C14.2624839,59.161675 13.4686574,58.8229483 12.9034278,58.255778 C11.7573114,57.116711 11.7573114,55.044964 12.8893362,53.905897 C13.4686574,53.3403022 14.2624839,53 15.0547447,53 Z M31.8613208,53 C32.6551473,53 33.4521054,53.3403022 34.0157692,53.905897 C34.5809987,54.4730673 34.9176313,55.2749831 34.9176313,56.0895026 C34.9176313,56.8882675 34.5809987,57.6854568 34.0157692,58.255778 C33.4521054,58.8229483 32.6551473,59.161675 31.8613208,59.161675 C31.0534027,59.161675 30.2736677,58.8229483 29.6943466,58.255778 C28.567019,57.1009563 28.567019,55.0607187 29.6943466,53.905897 C30.2736677,53.3403022 31.0534027,53 31.8613208,53 Z M48.1355477,53.0157547 C48.9465973,53.0157547 49.7372924,53.3403022 50.3056534,53.905897 C50.870883,54.4903975 51.1902925,55.2749831 51.1902925,56.0895026 C51.1902925,56.8882675 50.870883,57.6854568 50.3056534,58.255778 C49.7247665,58.8229483 48.9465973,59.161675 48.1355477,59.161675 C47.3448527,59.161675 46.5494604,58.8229483 45.9857966,58.255778 C44.8537717,57.1009563 44.8537717,55.0607187 45.9857966,53.905897 C46.5494604,53.3403022 47.3448527,53.0157547 48.1355477,53.0157547 Z M64.9452553,53 C65.7375161,53 66.5344741,53.3403022 67.0950064,53.905897 C67.6790248,54.4903975 68,55.2749831 68,56.0895026 C68,56.8882675 67.6790248,57.6854568 67.1137952,58.255778 C66.5344741,58.8229483 65.7375161,59.161675 64.9452553,59.161675 C64.1357714,59.161675 63.3560365,58.8229483 62.7923726,58.255778 C61.647822,57.1009563 61.647822,55.0607187 62.7767153,53.905897 C63.3560365,53.3403022 64.149863,53 64.9452553,53 Z" id="形状结合" fill="#FFFFFF"></path>
            </g>
        </g>
    </g>
</svg>