<?xml version="1.0" encoding="UTF-8"?>
<svg width="86px" height="112px" viewBox="0 0 86 112" version="1.1" xmlns="http://www.w3.org/2000/svg" xmlns:xlink="http://www.w3.org/1999/xlink">
    <!-- Generator: Sketch 61.2 (89653) - https://sketch.com -->
    <title>编组 15</title>
    <desc>Created with Sketch.</desc>
    <defs>
        <path d="M85.383,42.967 C85.383,66.447 66.349,85.481 42.869,85.481 C19.389,85.481 0.355,66.447 0.355,42.967 C0.355,19.487 19.389,0.453 42.869,0.453 C66.349,0.453 85.383,19.487 85.383,42.967" id="path-1"></path>
    </defs>
    <g id="页面-1" stroke="none" stroke-width="1" fill="none" fill-rule="evenodd">
        <g id="形状素材" transform="translate(-866.000000, -740.000000)">
            <g id="编组-15" transform="translate(866.000000, 740.000000)">
                <path d="M83.821,70.437 C83.821,93.023 65.512,111.333 42.926,111.333 C20.34,111.333 2.03,93.023 2.03,70.437 C2.03,47.851 20.34,29.542 42.926,29.542 C65.512,29.542 83.821,47.851 83.821,70.437" id="Fill-4" fill="#838383"></path>
                <g id="编组">
                    <mask id="mask-2" fill="white">
                        <use xlink:href="#path-1"></use>
                    </mask>
                    <g id="Clip-173"></g>
                    <path d="M-32.913,0.761 L123.701,0.761 M-32.913,4.755 L123.701,4.755 M-32.913,8.748 L123.701,8.748 M-32.913,12.741 L123.701,12.741 M-32.913,16.734 L123.701,16.734 M-32.913,20.727 L123.701,20.727 M-32.913,24.72 L123.701,24.72 M-32.913,28.713 L123.701,28.713 M-32.913,32.706 L123.701,32.706 M-32.913,36.699 L123.701,36.699 M-32.913,40.692 L123.701,40.692 M-32.913,44.685 L123.701,44.685 M-32.913,48.678 L123.701,48.678 M-32.913,52.671 L123.701,52.671 M-32.913,56.665 L123.701,56.665 M-32.913,60.658 L123.701,60.658 M-32.913,64.651 L123.701,64.651 M-32.913,68.644 L123.701,68.644 M-32.913,72.637 L123.701,72.637 M-32.913,76.63 L123.701,76.63 M-32.913,80.623 L123.701,80.623 M-32.913,84.616 L123.701,84.616" id="形状结合" stroke="#FFFFFF" stroke-width="1.357" mask="url(#mask-2)"></path>
                </g>
            </g>
        </g>
    </g>
</svg>