<?xml version="1.0" encoding="UTF-8"?>
<svg width="49px" height="73px" viewBox="0 0 49 73" version="1.1" xmlns="http://www.w3.org/2000/svg" xmlns:xlink="http://www.w3.org/1999/xlink">
    <!-- Generator: Sketch 61.2 (89653) - https://sketch.com -->
    <title>形状结合</title>
    <desc>Created with Sketch.</desc>
    <g id="页面-1" stroke="none" stroke-width="1" fill="none" fill-rule="evenodd">
        <g id="形状素材" transform="translate(-219.000000, -438.000000)" fill="#FFFFFF">
            <path d="M220.418063,508.181014 C221.202203,508.181014 221.837127,508.811716 221.837127,509.589648 C221.837127,510.368575 221.202203,510.999277 220.418063,510.999277 C219.633922,510.999277 219,510.368575 219,509.589648 C219,508.811716 219.633922,508.181014 220.418063,508.181014 Z M233.369902,509.443412 C233.45102,510.21836 232.885197,510.91074 232.106063,510.992313 C231.32693,511.072892 230.628915,510.510831 230.547797,509.735883 C230.466679,508.96193 231.032502,508.269551 231.811635,508.188972 C232.59177,508.107399 233.288784,508.670454 233.369902,509.443412 Z M244.911689,509.443412 C244.992807,510.21836 244.425983,510.91074 243.64685,510.992313 C242.867716,511.072892 242.169701,510.510831 242.088583,509.735883 C242.007465,508.96193 242.57429,508.269551 243.352421,508.188972 C244.131555,508.107399 244.82957,508.670454 244.911689,509.443412 Z M267.992261,509.443412 C268.073379,510.21836 267.507556,510.91074 266.729424,510.992313 C265.949289,511.072892 265.251274,510.510831 265.170156,509.735883 C265.089038,508.96193 265.654861,508.269551 266.434996,508.188972 C267.214129,508.107399 267.911143,508.670454 267.992261,509.443412 Z M256.451475,509.443412 C256.532593,510.21836 255.967771,510.91074 255.187636,510.992313 C254.408503,511.072892 253.711489,510.510831 253.630371,509.735883 C253.549253,508.96193 254.114075,508.269551 254.893208,508.188972 C255.673343,508.107399 256.370357,508.670454 256.451475,509.443412 Z M244.911689,499.43276 C244.992807,500.206712 244.425983,500.900087 243.64685,500.980665 C242.867716,501.061244 242.169701,500.499183 242.088583,499.72523 C242.007465,498.951277 242.57429,498.257903 243.352421,498.177324 C244.131555,498.096746 244.82957,498.658807 244.911689,499.43276 Z M267.992261,499.43276 C268.073379,500.206712 267.507556,500.900087 266.729424,500.980665 C265.949289,501.061244 265.251274,500.499183 265.170156,499.72523 C265.089038,498.951277 265.654861,498.257903 266.434996,498.177324 C267.214129,498.096746 267.911143,498.658807 267.992261,499.43276 Z M256.451475,499.43276 C256.532593,500.206712 255.967771,500.900087 255.187636,500.980665 C254.408503,501.061244 253.711489,500.499183 253.630371,499.72523 C253.549253,498.951277 254.114075,498.257903 254.893208,498.177324 C255.673343,498.096746 256.370357,498.658807 256.451475,499.43276 Z M233.369902,499.43276 C233.45102,500.206712 232.885197,500.900087 232.106063,500.980665 C231.32693,501.061244 230.628915,500.499183 230.547797,499.72523 C230.466679,498.951277 231.032502,498.257903 231.811635,498.177324 C232.59177,498.096746 233.288784,498.658807 233.369902,499.43276 Z M220.418063,498.169366 C221.202203,498.169366 221.837127,498.801063 221.837127,499.578995 C221.837127,500.357922 221.202203,500.987629 220.418063,500.987629 C219.633922,500.987629 219,500.357922 219,499.578995 C219,498.801063 219.633922,498.169366 220.418063,498.169366 Z M244.911689,488.774493 C244.992807,489.548446 244.425983,490.24182 243.64685,490.322399 C242.867716,490.402978 242.169701,489.840917 242.088583,489.066964 C242.007465,488.293011 242.57429,487.599637 243.352421,487.519058 C244.131555,487.438479 244.82957,488.00054 244.911689,488.774493 Z M267.992261,488.774493 C268.073379,489.548446 267.507556,490.24182 266.729424,490.322399 C265.949289,490.402978 265.251274,489.840917 265.170156,489.066964 C265.089038,488.293011 265.654861,487.599637 266.434996,487.519058 C267.214129,487.438479 267.911143,488.00054 267.992261,488.774493 Z M256.451475,488.774493 C256.532593,489.548446 255.967771,490.24182 255.187636,490.322399 C254.408503,490.402978 253.711489,489.840917 253.630371,489.066964 C253.549253,488.293011 254.114075,487.599637 254.893208,487.519058 C255.673343,487.438479 256.370357,488.00054 256.451475,488.774493 Z M220.418063,487.5111 C221.202203,487.5111 221.837127,488.142796 221.837127,488.920728 C221.837127,489.699655 221.202203,490.330357 220.418063,490.330357 C219.633922,490.330357 219,489.699655 219,488.920728 C219,488.142796 219.633922,487.5111 220.418063,487.5111 Z M233.369902,488.774493 C233.45102,489.548446 232.885197,490.24182 232.106063,490.322399 C231.32693,490.402978 230.628915,489.840917 230.547797,489.066964 C230.466679,488.293011 231.032502,487.599637 231.811635,487.519058 C232.59177,487.438479 233.288784,488.00054 233.369902,488.774493 Z M233.369902,478.76384 C233.45102,479.537793 232.885197,480.231167 232.106063,480.311746 C231.32693,480.392325 230.628915,479.830264 230.547797,479.055316 C230.466679,478.281363 231.032502,477.587989 231.811635,477.50741 C232.59177,477.426832 233.288784,477.988892 233.369902,478.76384 Z M244.911689,478.76384 C244.992807,479.537793 244.425983,480.231167 243.64685,480.311746 C242.867716,480.392325 242.169701,479.830264 242.088583,479.055316 C242.007465,478.281363 242.57429,477.587989 243.352421,477.50741 C244.131555,477.426832 244.82957,477.988892 244.911689,478.76384 Z M267.992261,478.76384 C268.073379,479.537793 267.507556,480.231167 266.729424,480.311746 C265.949289,480.392325 265.251274,479.830264 265.170156,479.055316 C265.089038,478.281363 265.654861,477.587989 266.434996,477.50741 C267.214129,477.426832 267.911143,477.988892 267.992261,478.76384 Z M256.451475,478.76384 C256.532593,479.537793 255.967771,480.231167 255.187636,480.311746 C254.408503,480.392325 253.711489,479.830264 253.630371,479.055316 C253.549253,478.281363 254.114075,477.587989 254.893208,477.50741 C255.673343,477.426832 256.370357,477.988892 256.451475,478.76384 Z M220.418063,477.500447 C221.202203,477.500447 221.837127,478.131149 221.837127,478.910075 C221.837127,479.688008 221.202203,480.31871 220.418063,480.31871 C219.633922,480.31871 219,479.688008 219,478.910075 C219,478.131149 219.633922,477.500447 220.418063,477.500447 Z M220.418063,468.681562 C221.202203,468.681562 221.837127,469.312264 221.837127,470.090196 C221.837127,470.869123 221.202203,471.499825 220.418063,471.499825 C219.633922,471.499825 219,470.869123 219,470.090196 C219,469.312264 219.633922,468.681562 220.418063,468.681562 Z M267.992261,469.943961 C268.073379,470.718908 267.507556,471.411288 266.729424,471.491866 C265.949289,471.57344 265.251274,471.011379 265.170156,470.236431 C265.089038,469.462478 265.654861,468.770099 266.434996,468.688525 C267.214129,468.607947 267.911143,469.170008 267.992261,469.943961 Z M233.369902,469.943961 C233.45102,470.718908 232.885197,471.411288 232.106063,471.491866 C231.32693,471.57344 230.628915,471.011379 230.547797,470.236431 C230.466679,469.462478 231.032502,468.770099 231.811635,468.688525 C232.59177,468.607947 233.288784,469.170008 233.369902,469.943961 Z M244.911689,469.943961 C244.992807,470.718908 244.425983,471.411288 243.64685,471.491866 C242.867716,471.57344 242.169701,471.011379 242.088583,470.236431 C242.007465,469.462478 242.57429,468.770099 243.352421,468.688525 C244.131555,468.607947 244.82957,469.170008 244.911689,469.943961 Z M256.451475,469.943961 C256.532593,470.718908 255.967771,471.411288 255.187636,471.491866 C254.408503,471.57344 253.711489,471.011379 253.630371,470.236431 C253.549253,469.462478 254.114075,468.770099 254.893208,468.688525 C255.673343,468.607947 256.370357,469.170008 256.451475,469.943961 Z M220.418063,458.669914 C221.202203,458.669914 221.837127,459.301611 221.837127,460.079543 C221.837127,460.857475 221.202203,461.488177 220.418063,461.488177 C219.633922,461.488177 219,460.857475 219,460.079543 C219,459.301611 219.633922,458.669914 220.418063,458.669914 Z M233.369902,459.933308 C233.45102,460.707261 232.885197,461.39964 232.106063,461.481213 C231.32693,461.561792 230.628915,460.999731 230.547797,460.225778 C230.466679,459.450831 231.032502,458.758451 231.811635,458.677873 C232.59177,458.597294 233.288784,459.159355 233.369902,459.933308 Z M244.911689,459.933308 C244.992807,460.707261 244.425983,461.39964 243.64685,461.481213 C242.867716,461.561792 242.169701,460.999731 242.088583,460.225778 C242.007465,459.450831 242.57429,458.758451 243.352421,458.677873 C244.131555,458.597294 244.82957,459.159355 244.911689,459.933308 Z M267.992261,459.933308 C268.073379,460.707261 267.507556,461.39964 266.729424,461.481213 C265.949289,461.561792 265.251274,460.999731 265.170156,460.225778 C265.089038,459.450831 265.654861,458.758451 266.434996,458.677873 C267.214129,458.597294 267.911143,459.159355 267.992261,459.933308 Z M256.451475,459.933308 C256.532593,460.707261 255.967771,461.39964 255.187636,461.481213 C254.408503,461.561792 253.711489,460.999731 253.630371,460.225778 C253.549253,459.450831 254.114075,458.758451 254.893208,458.677873 C255.673343,458.597294 256.370357,459.159355 256.451475,459.933308 Z M233.369902,449.275041 C233.45102,450.048994 232.885197,450.742368 232.106063,450.822947 C231.32693,450.903526 230.628915,450.341465 230.547797,449.567512 C230.466679,448.793559 231.032502,448.100185 231.811635,448.019606 C232.59177,447.939027 233.288784,448.501088 233.369902,449.275041 Z M244.911689,449.275041 C244.992807,450.048994 244.425983,450.742368 243.64685,450.822947 C242.867716,450.903526 242.169701,450.341465 242.088583,449.567512 C242.007465,448.793559 242.57429,448.100185 243.352421,448.019606 C244.131555,447.939027 244.82957,448.501088 244.911689,449.275041 Z M267.992261,449.275041 C268.073379,450.048994 267.507556,450.742368 266.729424,450.822947 C265.949289,450.903526 265.251274,450.341465 265.170156,449.567512 C265.089038,448.793559 265.654861,448.100185 266.434996,448.019606 C267.214129,447.939027 267.911143,448.501088 267.992261,449.275041 Z M256.451475,449.275041 C256.532593,450.048994 255.967771,450.742368 255.187636,450.822947 C254.408503,450.903526 253.711489,450.341465 253.630371,449.567512 C253.549253,448.793559 254.114075,448.100185 254.893208,448.019606 C255.673343,447.939027 256.370357,448.501088 256.451475,449.275041 Z M220.418063,448.011648 C221.202203,448.011648 221.837127,448.643344 221.837127,449.421277 C221.837127,450.199209 221.202203,450.829911 220.418063,450.829911 C219.633922,450.829911 219,450.199209 219,449.421277 C219,448.643344 219.633922,448.011648 220.418063,448.011648 Z M220.418063,438 C221.202203,438 221.837127,438.631697 221.837127,439.409629 C221.837127,440.188556 221.202203,440.819258 220.418063,440.819258 C219.633922,440.819258 219,440.188556 219,439.409629 C219,438.631697 219.633922,438 220.418063,438 Z M233.369902,439.263394 C233.45102,440.038341 232.885197,440.730721 232.106063,440.811299 C231.32693,440.892873 230.628915,440.329817 230.547797,439.555864 C230.466679,438.781911 231.032502,438.088537 231.811635,438.007958 C232.59177,437.92738 233.288784,438.489441 233.369902,439.263394 Z M244.911689,439.263394 C244.992807,440.038341 244.425983,440.730721 243.64685,440.811299 C242.867716,440.892873 242.169701,440.329817 242.088583,439.555864 C242.007465,438.781911 242.57429,438.088537 243.352421,438.007958 C244.131555,437.92738 244.82957,438.489441 244.911689,439.263394 Z M267.992261,439.263394 C268.073379,440.038341 267.507556,440.730721 266.729424,440.811299 C265.949289,440.892873 265.251274,440.329817 265.170156,439.555864 C265.089038,438.781911 265.654861,438.088537 266.434996,438.007958 C267.214129,437.92738 267.911143,438.489441 267.992261,439.263394 Z M256.451475,439.263394 C256.532593,440.038341 255.967771,440.730721 255.187636,440.811299 C254.408503,440.892873 253.711489,440.329817 253.630371,439.555864 C253.549253,438.781911 254.114075,438.088537 254.893208,438.007958 C255.673343,437.92738 256.370357,438.489441 256.451475,439.263394 Z" id="形状结合"></path>
        </g>
    </g>
</svg>