<?xml version="1.0" encoding="UTF-8"?>
<svg width="120px" height="116px" viewBox="0 0 120 116" version="1.1" xmlns="http://www.w3.org/2000/svg" xmlns:xlink="http://www.w3.org/1999/xlink">
    <!-- Generator: Sketch 61.2 (89653) - https://sketch.com -->
    <title>编组</title>
    <desc>Created with Sketch.</desc>
    <g id="页面-1" stroke="none" stroke-width="1" fill="none" fill-rule="evenodd">
        <g id="形状素材" transform="translate(-1065.000000, -83.000000)">
            <g id="编组" transform="translate(1065.000000, 83.000000)">
                <path d="M119.61,64.674 C119.61,92.997 96.648,115.9575 68.3265,115.9575 C40.0035,115.9575 17.043,92.997 17.043,64.674 C17.043,36.3525 40.0035,13.392 68.3265,13.392 C96.648,13.392 119.61,36.3525 119.61,64.674" id="Fill-3" fill="#838383"></path>
                <path d="M52.326,40.7265 C45.93,40.7265 40.7265,45.9285 40.7265,52.3245 C40.7265,58.722 45.93,63.924 52.326,63.924 C58.722,63.924 63.9255,58.722 63.9255,52.3245 C63.9255,45.9285 58.722,40.7265 52.326,40.7265 Z M52.326,65.424 C45.1035,65.424 39.2265,59.547 39.2265,52.3245 C39.2265,45.102 45.1035,39.2265 52.326,39.2265 C59.5485,39.2265 65.4255,45.102 65.4255,52.3245 C65.4255,59.547 59.5485,65.424 52.326,65.424 L52.326,65.424 Z" id="Fill-4" fill="#FFFFFF"></path>
                <path d="M52.326,77.6235 C38.376,77.6235 27.027,66.2745 27.027,52.3245 C27.027,38.376 38.376,27.027 52.326,27.027 L52.326,28.527 C39.204,28.527 28.527,39.2025 28.527,52.3245 C28.527,65.448 39.204,76.1235 52.326,76.1235 C65.4495,76.1235 76.125,65.448 76.125,52.3245 L77.625,52.3245 C77.625,66.2745 66.276,77.6235 52.326,77.6235" id="Fill-5" fill="#FFFFFF"></path>
                <path d="M52.326,94.098 C29.2935,94.098 10.554,75.357 10.554,52.3245 L12.054,52.3245 C12.054,74.532 30.12,92.598 52.326,92.598 C74.532,92.598 92.598,74.532 92.598,52.3245 C92.598,35.5515 82.0335,20.37 66.3105,14.547 L66.831,13.14 C83.1405,19.179 94.098,34.926 94.098,52.3245 C94.098,75.357 75.36,94.098 52.326,94.098" id="Fill-6" fill="#FFFFFF"></path>
                <path d="M52.326,104.6505 C23.4735,104.6505 1.42108547e-14,81.177 1.42108547e-14,52.3245 C1.42108547e-14,23.472 23.4735,-7.10542736e-14 52.326,-7.10542736e-14 C81.1785,-7.10542736e-14 104.652,23.472 104.652,52.3245 C104.652,63.33 101.274,73.86 94.8825,82.776 L93.6645,81.903 C99.87,73.242 103.152,63.015 103.152,52.3245 C103.152,24.3 80.352,1.5 52.326,1.5 C24.3,1.5 1.5,24.3 1.5,52.3245 C1.5,80.3505 24.3,103.1505 52.326,103.1505 L52.326,104.6505" id="Fill-7" fill="#FFFFFF"></path>
            </g>
        </g>
    </g>
</svg>