<?xml version="1.0" encoding="UTF-8"?>
<svg width="57px" height="55px" viewBox="0 0 57 55" version="1.1" xmlns="http://www.w3.org/2000/svg" xmlns:xlink="http://www.w3.org/1999/xlink">
    <!-- Generator: Sketch 61.2 (89653) - https://sketch.com -->
    <title>编组 9</title>
    <desc>Created with Sketch.</desc>
    <g id="页面-1" stroke="none" stroke-width="1" fill="none" fill-rule="evenodd">
        <g id="形状素材" transform="translate(-767.000000, -580.000000)">
            <g id="编组-9" transform="translate(767.000000, 580.000000)">
                <path d="M30.4988231,16.6009416 C23.9387548,16.6009416 18.6003138,21.9396289 18.6003138,28.5 C18.6003138,35.0603711 23.9387548,40.4014124 30.4988231,40.4014124 C37.0612452,40.4014124 42.3996862,35.0603711 42.3996862,28.5 C42.3996862,21.9396289 37.0612452,16.6009416 30.4988231,16.6009416 Z M30.4988231,54 C16.4395163,54 5,42.5623096 5,28.5 C5,14.4376904 16.4395163,3 30.4988231,3 C44.5604837,3 56,14.4376904 56,28.5 C56,42.5623096 44.5604837,54 30.4988231,54 L30.4988231,54 Z" id="Fill-85" stroke="#FFFFFF"></path>
                <path d="M25.5011769,13.6003138 C18.9387548,13.6003138 13.6003138,18.9387548 13.6003138,25.5011769 C13.6003138,32.0612452 18.9387548,37.3996862 25.5011769,37.3996862 C32.0612452,37.3996862 37.3996862,32.0612452 37.3996862,25.5011769 C37.3996862,18.9387548 32.0612452,13.6003138 25.5011769,13.6003138 Z M25.5011769,51 C11.4395163,51 0,39.5628375 0,25.5011769 C0,11.4395163 11.4395163,0 25.5011769,0 C39.5604837,0 51,11.4395163 51,25.5011769 C51,39.5628375 39.5604837,51 25.5011769,51 L25.5011769,51 Z" id="Fill-86" fill="#838383"></path>
            </g>
        </g>
    </g>
</svg>