<?xml version="1.0" encoding="UTF-8"?>
<svg width="84px" height="60px" viewBox="0 0 84 60" version="1.1" xmlns="http://www.w3.org/2000/svg" xmlns:xlink="http://www.w3.org/1999/xlink">
    <!-- Generator: Sketch 61.2 (89653) - https://sketch.com -->
    <title>编组 2</title>
    <desc>Created with Sketch.</desc>
    <g id="页面-1" stroke="none" stroke-width="1" fill="none" fill-rule="evenodd">
        <g id="形状素材" transform="translate(-424.000000, -286.000000)">
            <g id="编组-2" transform="translate(424.000000, 286.000000)">
                <polygon id="Fill-120" fill="#838383" points="0 59.935 73.349 59.935 73.349 12.15 0 12.15"></polygon>
                <path d="M39.623,42.883 L40.961,44.221 L39.145,46.038 L40.961,47.855 L39.623,49.193 L37.806,47.377 L35.989,49.193 L34.65,47.855 L36.467,46.038 L34.65,44.221 L35.989,42.883 L37.806,44.699 L39.623,42.883 Z M54.049,42.883 L55.387,44.221 L53.571,46.038 L55.387,47.855 L54.049,49.193 L52.232,47.377 L50.415,49.193 L49.077,47.855 L50.893,46.038 L49.077,44.221 L50.415,42.883 L52.232,44.699 L54.049,42.883 Z M69.623,42.883 L70.961,44.221 L69.145,46.038 L70.961,47.855 L69.623,49.193 L67.806,47.377 L65.989,49.193 L64.651,47.855 L66.467,46.038 L64.651,44.221 L65.989,42.883 L67.806,44.699 L69.623,42.883 Z M24.048,42.883 L25.387,44.221 L23.57,46.038 L25.387,47.855 L24.048,49.193 L22.231,47.377 L20.415,49.193 L19.076,47.855 L20.893,46.038 L19.076,44.221 L20.415,42.883 L22.231,44.699 L24.048,42.883 Z M39.623,28.589 L40.961,29.927 L39.145,31.744 L40.961,33.56 L39.623,34.899 L37.806,33.083 L35.989,34.899 L34.65,33.56 L36.467,31.744 L34.65,29.927 L35.989,28.589 L37.806,30.405 L39.623,28.589 Z M54.049,28.589 L55.387,29.927 L53.571,31.744 L55.387,33.56 L54.049,34.899 L52.232,33.083 L50.415,34.899 L49.077,33.56 L50.893,31.744 L49.077,29.927 L50.415,28.589 L52.232,30.405 L54.049,28.589 Z M69.623,28.589 L70.961,29.927 L69.145,31.744 L70.961,33.56 L69.623,34.899 L67.806,33.083 L65.989,34.899 L64.651,33.56 L66.467,31.744 L64.651,29.927 L65.989,28.589 L67.806,30.405 L69.623,28.589 Z M24.048,28.589 L25.387,29.927 L23.57,31.744 L25.387,33.56 L24.048,34.899 L22.231,33.083 L20.415,34.899 L19.076,33.56 L20.893,31.744 L19.076,29.927 L20.415,28.589 L22.231,30.405 L24.048,28.589 Z M39.623,14.295 L40.961,15.633 L39.145,17.45 L40.961,19.266 L39.623,20.605 L37.806,18.789 L35.989,20.605 L34.65,19.266 L36.467,17.45 L34.65,15.633 L35.989,14.295 L37.806,16.111 L39.623,14.295 Z M54.049,14.295 L55.387,15.633 L53.571,17.45 L55.387,19.266 L54.049,20.605 L52.232,18.789 L50.415,20.605 L49.077,19.266 L50.893,17.45 L49.077,15.633 L50.415,14.295 L52.232,16.111 L54.049,14.295 Z M69.623,14.295 L70.961,15.633 L69.145,17.45 L70.961,19.266 L69.623,20.605 L67.806,18.789 L65.989,20.605 L64.651,19.266 L66.467,17.45 L64.651,15.633 L65.989,14.295 L67.806,16.111 L69.623,14.295 Z M24.048,14.295 L25.387,15.633 L23.57,17.45 L25.387,19.266 L24.048,20.605 L22.231,18.789 L20.415,20.605 L19.076,19.266 L20.893,17.45 L19.076,15.633 L20.415,14.295 L22.231,16.111 L24.048,14.295 Z" id="形状结合" fill="#FFFFFE"></path>
                <path d="M82.513,42.883 L83.852,44.221 L82.035,46.038 L83.852,47.855 L82.513,49.193 L80.696,47.377 L78.879,49.193 L77.541,47.855 L79.357,46.038 L77.541,44.221 L78.879,42.883 L80.696,44.699 L82.513,42.883 Z M82.513,28.589 L83.852,29.927 L82.035,31.744 L83.852,33.56 L82.513,34.899 L80.696,33.083 L78.879,34.899 L77.541,33.56 L79.357,31.744 L77.541,29.927 L78.879,28.589 L80.696,30.405 L82.513,28.589 Z M82.513,14.295 L83.852,15.633 L82.035,17.45 L83.852,19.266 L82.513,20.605 L80.696,18.789 L78.879,20.605 L77.541,19.266 L79.357,17.45 L77.541,15.633 L78.879,14.295 L80.696,16.111 L82.513,14.295 Z M39.623,-1.56319402e-13 L40.961,1.339 L39.145,3.155 L40.961,4.972 L39.623,6.311 L37.806,4.494 L35.989,6.311 L34.65,4.972 L36.467,3.155 L34.65,1.339 L35.989,-1.56319402e-13 L37.806,1.817 L39.623,-1.56319402e-13 Z M54.049,-1.56319402e-13 L55.387,1.339 L53.571,3.155 L55.387,4.972 L54.049,6.311 L52.232,4.494 L50.415,6.311 L49.077,4.972 L50.893,3.155 L49.077,1.339 L50.415,-1.56319402e-13 L52.232,1.817 L54.049,-1.56319402e-13 Z M69.623,-1.56319402e-13 L70.961,1.339 L69.145,3.155 L70.961,4.972 L69.623,6.311 L67.806,4.494 L65.989,6.311 L64.651,4.972 L66.467,3.155 L64.651,1.339 L65.989,-1.56319402e-13 L67.806,1.817 L69.623,-1.56319402e-13 Z M82.513,-1.56319402e-13 L83.852,1.339 L82.035,3.155 L83.852,4.972 L82.513,6.311 L80.696,4.494 L78.879,6.311 L77.541,4.972 L79.357,3.155 L77.541,1.339 L78.879,-1.56319402e-13 L80.696,1.817 L82.513,-1.56319402e-13 Z M24.048,-1.56319402e-13 L25.387,1.339 L23.57,3.155 L25.387,4.972 L24.048,6.311 L22.231,4.494 L20.415,6.311 L19.076,4.972 L20.893,3.155 L19.076,1.339 L20.415,-1.56319402e-13 L22.231,1.817 L24.048,-1.56319402e-13 Z" id="形状结合" fill="#838383"></path>
            </g>
        </g>
    </g>
</svg>