<?xml version="1.0" encoding="UTF-8"?>
<svg width="94px" height="95px" viewBox="0 0 94 95" version="1.1" xmlns="http://www.w3.org/2000/svg" xmlns:xlink="http://www.w3.org/1999/xlink">
    <!-- Generator: Sketch 61.2 (89653) - https://sketch.com -->
    <title>48</title>
    <desc>Created with Sketch.</desc>
    <g id="页面-1" stroke="none" stroke-width="1" fill="none" fill-rule="evenodd">
        <g id="形状素材" transform="translate(-68.000000, -1100.000000)">
            <g id="48" transform="translate(68.000000, 1100.000000)">
                <path d="M76.572,47.199 C76.572,66.3675 61.0335,81.9045 41.8665,81.9045 C22.7025,81.9045 7.1625,66.3675 7.1625,47.199 C7.1625,28.0335 22.7025,12.495 41.8665,12.495 C61.0335,12.495 76.572,28.0335 76.572,47.199" id="Fill-430" fill="#636363"></path>
                <path d="M46.734,2.367 C21.792,2.367 1.5,22.6605 1.5,47.604 C1.5,72.5475 21.792,92.8395 46.734,92.8395 C71.679,92.8395 91.971,72.5475 91.971,47.604 C91.971,22.6605 71.679,2.367 46.734,2.367 Z M46.734,94.3395 C20.964,94.3395 1.56319402e-13,73.3725 1.56319402e-13,47.604 C1.56319402e-13,21.834 20.964,0.867 46.734,0.867 C72.5055,0.867 93.471,21.834 93.471,47.604 C93.471,73.3725 72.5055,94.3395 46.734,94.3395 L46.734,94.3395 Z" id="Fill-431" fill="#FFFFFF"></path>
                <path d="M86.1975,20.5755 C86.1975,31.9395 76.9875,41.151 65.622,41.151 C54.258,41.151 45.048,31.9395 45.048,20.5755 C45.048,9.2145 54.258,5.52446977e-13 65.622,5.52446977e-13 C76.9875,5.52446977e-13 86.1975,9.2145 86.1975,20.5755" id="Fill-456" fill="#838383"></path>
            </g>
        </g>
    </g>
</svg>