<?xml version="1.0" encoding="UTF-8"?>
<svg width="104px" height="82px" viewBox="0 0 104 82" version="1.1" xmlns="http://www.w3.org/2000/svg" xmlns:xlink="http://www.w3.org/1999/xlink">
    <!-- Generator: Sketch 61.2 (89653) - https://sketch.com -->
    <title>形状结合</title>
    <desc>Created with Sketch.</desc>
    <g id="页面-1" stroke="none" stroke-width="1" fill="none" fill-rule="evenodd">
        <g id="形状素材" transform="translate(-576.000000, -576.000000)" fill="#FFFFFE">
            <path d="M577.389445,636 L598,656.610555 L596.610555,658 L576,637.389445 L577.389445,636 Z M582.389445,631 L603,651.613242 L601.610555,653 L581,632.389445 L582.389445,631 Z M588.389445,625 L609,645.610555 L607.610555,647 L587,626.389445 L588.389445,625 Z M593.389445,620 L614,640.610555 L612.610555,642 L592,621.389445 L593.389445,620 Z M615.424064,598 L658,639.610906 L656.575936,641 L614,599.389094 L615.424064,598 Z M599.389445,614 L620,634.610555 L618.610555,636 L598,615.386758 L599.389445,614 Z M620.421488,593 L663,634.608214 L661.578512,636 L619,594.389094 L620.421488,593 Z M604.389445,609 L625,629.610555 L623.613242,631 L603,610.389445 L604.389445,609 Z M626.424064,587 L669,628.608301 L667.575936,630 L625,588.391699 L626.424064,587 Z M631.421399,582 L674,623.608214 L672.575847,625 L630,583.389094 L631.421399,582 Z M610.389445,603 L631,623.610555 L629.613242,625 L609,604.386758 L610.389445,603 Z M637.421399,576 L680,617.608301 L678.575847,619 L636,577.391699 L637.421399,576 Z" id="形状结合"></path>
        </g>
    </g>
</svg>