<?xml version="1.0" encoding="UTF-8"?>
<svg width="116px" height="116px" viewBox="0 0 116 116" version="1.1" xmlns="http://www.w3.org/2000/svg" xmlns:xlink="http://www.w3.org/1999/xlink">
    <!-- Generator: Sketch 61.2 (89653) - https://sketch.com -->
    <title>54</title>
    <desc>Created with Sketch.</desc>
    <g id="页面-1" stroke="none" stroke-width="1" fill="none" fill-rule="evenodd">
        <g id="形状素材" transform="translate(-1084.000000, -1090.000000)">
            <g id="54" transform="translate(1084.000000, 1090.000000)">
                <path d="M106,57.9989627 C106,84.5108379 84.5087632,106 57.9989627,106 C31.4933114,106 10,84.5108379 10,57.9989627 C10,31.4912368 31.4933114,10 57.9989627,10 C84.5087632,10 106,31.4912368 106,57.9989627" id="Fill-33" fill="#838383"></path>
                <path d="M57.997922,2.07799652 C27.163084,2.07799652 2.0779593,27.1635706 2.0779593,57.998961 C2.0779593,88.8364294 27.163084,113.922003 57.997922,113.922003 C88.8348381,113.922003 113.922041,88.8364294 113.922041,57.998961 C113.922041,27.1635706 88.8348381,2.07799652 57.997922,2.07799652 Z M57.997922,116 C26.0160504,116 0,89.9814055 0,57.998961 C0,26.0185945 26.0160504,0 57.997922,0 C89.9818716,0 116,26.0185945 116,57.998961 C116,89.9814055 89.9818716,116 57.997922,116 L57.997922,116 Z" id="Fill-34" fill="#FFFFFF"></path>
                <path d="M86,57.5 C86,73.2428374 73.2407596,86 57.5,86 C41.7592404,86 29,73.2428374 29,57.5 C29,41.7633958 41.7592404,29 57.5,29 C73.2407596,29 86,41.7633958 86,57.5" id="Fill-429" fill="#FFFFFF"></path>
            </g>
        </g>
    </g>
</svg>