<?xml version="1.0" encoding="UTF-8"?>
<svg width="126px" height="126px" viewBox="0 0 126 126" version="1.1" xmlns="http://www.w3.org/2000/svg" xmlns:xlink="http://www.w3.org/1999/xlink">
    <!-- Generator: Sketch 61.2 (89653) - https://sketch.com -->
    <title>62@3x</title>
    <desc>Created with Sketch.</desc>
    <g id="页面-1" stroke="none" stroke-width="1" fill="none" fill-rule="evenodd">
        <g id="形状素材" transform="translate(-1071.000000, -1269.000000)">
            <g id="62" transform="translate(1071.000000, 1269.000000)">
                <path d="M63.061288,5.99942863 C58.9462901,5.99942863 54.8132967,6.44938577 50.7582842,7.33730121 C35.8879058,10.6129892 23.1889985,19.4801447 14.9949941,32.3009237 C6.79499111,45.1277021 4.08365143,60.3782497 7.35285525,75.2448338 C13.0634645,101.180364 36.4337729,120.000571 62.9413172,120.000571 C67.056315,120.000571 71.195307,119.544615 75.2503194,118.656699 C90.1146993,115.387011 102.813607,106.519855 111.01361,93.6930768 C119.207614,80.8662984 121.918954,65.6157509 118.643751,50.7551662 C112.939141,24.8136368 89.5628337,5.99942863 63.061288,5.99942863 Z M62.9413172,126 C33.6384536,126 7.80274568,105.199981 1.49828108,76.5287116 C-2.12483655,60.102276 0.874433009,43.249881 9.9382256,29.0672317 C19.0020182,14.8965813 33.0385997,5.09951433 49.4685983,1.48185887 C53.9435085,0.497952576 58.5143953,0 63.061288,0 C92.3521544,0 118.199859,20.800019 124.504324,49.465289 C128.121443,65.8917246 125.128172,82.750119 116.06438,96.9267689 C107.006585,111.103419 92.970004,120.900486 76.5400053,124.512142 C72.0650952,125.502047 67.4882098,126 62.9413172,126 L62.9413172,126 Z" id="Fill-306" fill="#838383"></path>
                <path d="M45.993962,60.037085 C37.7461185,60.037085 31.0379528,66.7503234 31.0379528,74.9969815 C31.0379528,83.2496766 37.7461185,89.962915 45.993962,89.962915 C54.2478436,89.962915 60.9620472,83.2496766 60.9620472,74.9969815 C60.9620472,66.7503234 54.2478436,60.037085 45.993962,60.037085 Z M45.993962,96 C34.4131685,96 25,86.5761104 25,74.9969815 C25,63.4178525 34.4131685,54 45.993962,54 C57.5747556,54 67,63.4178525 67,74.9969815 C67,86.5761104 57.5747556,96 45.993962,96 L45.993962,96 Z" id="Fill-521" fill="#FFFFFF"></path>
            </g>
        </g>
    </g>
</svg>