<?xml version="1.0" encoding="UTF-8"?>
<svg width="72px" height="75px" viewBox="0 0 72 75" version="1.1" xmlns="http://www.w3.org/2000/svg" xmlns:xlink="http://www.w3.org/1999/xlink">
    <!-- Generator: Sketch 61.2 (89653) - https://sketch.com -->
    <title>编组 12</title>
    <desc>Created with Sketch.</desc>
    <g id="页面-1" stroke="none" stroke-width="1" fill="none" fill-rule="evenodd">
        <g id="形状素材" transform="translate(-1142.000000, -575.000000)">
            <g id="编组-12" transform="translate(1142.000000, 575.000000)">
                <path d="M70.9036069,50.0011187 L72,50.0011187 C72,36.1938963 61.0316835,25.0022374 47.5,25 C33.9683165,25.0022374 23,36.1938963 23,50.0011187 C23,63.8083412 33.9683165,75 47.5,75 C61.0316835,75 72,63.8083412 72,50.0011187 L69.8072138,50.0011187 C69.8072138,56.2905535 67.3140159,61.973643 63.2749038,66.0950016 C59.2335989,70.2163601 53.663922,72.7625632 47.5,72.7625632 C41.336078,72.7625632 35.7664011,70.2163601 31.727289,66.0950016 C27.6881769,61.973643 25.1927862,56.2905535 25.1927862,50.0011187 C25.1927862,43.7116839 27.6881769,38.0285944 31.727289,33.9049984 C35.7664011,29.7836399 41.336078,27.2396742 47.5,27.2374368 C53.663922,27.2396742 59.2335989,29.7836399 63.2749038,33.9049984 C67.3140159,38.0285944 69.8072138,43.7116839 69.8072138,50.0011187 L70.9036069,50.0011187" id="Fill-1345" fill="#F0EEF2"></path>
                <path d="M59,50.0011004 C59,43.3722146 53.6272927,38 47,38 C40.3727073,38 35,43.3722146 35,50.0011004 C35,56.6277854 40.3727073,62 47,62 C53.6272927,62 59,56.6277854 59,50.0011004" id="Fill-1348" fill="#838383"></path>
                <path d="M54,6.5 C54,2.91093593 51.0890641,0 47.5,0 C43.9109359,0 41,2.91093593 41,6.5 C41,10.0890641 43.9109359,13 47.5,13 C51.0890641,13 54,10.0890641 54,6.5" id="Fill-1349" fill="#838383"></path>
                <path d="M8,40 C8,37.7897143 6.21028571,36 4,36 C1.792,36 0,37.7897143 0,40 C0,42.208 1.792,44 4,44 C6.21028571,44 8,42.208 8,40" id="Fill-1350" fill="#838383"></path>
            </g>
        </g>
    </g>
</svg>