<?xml version="1.0" encoding="UTF-8"?>
<svg width="124px" height="108px" viewBox="0 0 124 108" version="1.1" xmlns="http://www.w3.org/2000/svg" xmlns:xlink="http://www.w3.org/1999/xlink">
    <!-- Generator: Sketch 61.2 (89653) - https://sketch.com -->
    <title>形状结合</title>
    <desc>Created with Sketch.</desc>
    <g id="页面-1" stroke="none" stroke-width="1" fill="none" fill-rule="evenodd">
        <g id="形状素材" transform="translate(-40.000000, -569.000000)" fill="#FFFFFF">
            <path d="M110,569 L164,623 L110,677 L102,669 L94,677 L40,623 L94,569 L102,577 L110,569 Z M94,571.428046 L42.4280463,623 L94,674.569864 L100.784,667.784 L56,623 L100.785,578.215 L94,571.428046 Z M110,571.428046 L103.214,578.214 L148,623 L103.215,667.785 L110,674.569864 L161.569864,623 L110,571.428046 Z M101.999,579.428 L58.4280463,623 L101.999,666.569 L145.569864,623 L101.999,579.428 Z" id="形状结合"></path>
        </g>
    </g>
</svg>