<?xml version="1.0" encoding="UTF-8"?>
<svg width="33px" height="118px" viewBox="0 0 33 118" version="1.1" xmlns="http://www.w3.org/2000/svg" xmlns:xlink="http://www.w3.org/1999/xlink">
    <!-- Generator: Sketch 61.2 (89653) - https://sketch.com -->
    <title>Stroke 71</title>
    <desc>Created with Sketch.</desc>
    <g id="页面-1" stroke="none" stroke-width="1" fill="none" fill-rule="evenodd">
        <g id="形状素材" transform="translate(-1227.000000, -733.000000)" stroke="#FFFFFF" stroke-width="2">
            <path d="M1247.18361,811.163124 C1236.58924,811.163124 1228,802.542627 1228,791.909712 C1228,781.275793 1236.58924,772.6563 1247.18361,772.6563 M1246.39295,805.708726 C1238.79928,805.708726 1232.64297,799.531021 1232.64297,791.909712 C1232.64297,784.288403 1238.79928,778.109695 1246.39295,778.109695 M1247.18361,772.506823 C1236.58924,772.506823 1228,763.88733 1228,753.253412 C1228,742.620496 1236.58924,734 1247.18361,734 M1246.39295,767.053429 C1238.79928,767.053429 1232.64297,760.874721 1232.64297,753.253412 C1232.64297,745.632102 1238.79928,739.453394 1246.39295,739.453394 M1247.18361,850 C1236.58924,850 1228,841.380507 1228,830.746588 C1228,820.113673 1236.58924,811.493177 1247.18361,811.493177 M1246.39295,844.546606 C1238.79928,844.546606 1232.64297,838.367898 1232.64297,830.746588 C1232.64297,823.125279 1238.79928,816.946571 1246.39295,816.946571 M1260,811.163124 C1249.40464,811.163124 1240.81639,802.542627 1240.81639,791.909712 C1240.81639,781.275793 1249.40464,772.6563 1260,772.6563 M1259.20835,805.708726 C1251.61467,805.708726 1245.45936,799.531021 1245.45936,791.909712 C1245.45936,784.288403 1251.61467,778.109695 1259.20835,778.109695 M1260,772.506823 C1249.40464,772.506823 1240.81639,763.88733 1240.81639,753.253412 C1240.81639,742.620496 1249.40464,734 1260,734 M1259.20835,767.053429 C1251.61467,767.053429 1245.45936,760.874721 1245.45936,753.253412 C1245.45936,745.632102 1251.61467,739.453394 1259.20835,739.453394 M1260,850 C1249.40464,850 1240.81639,841.380507 1240.81639,830.746588 C1240.81639,820.113673 1249.40464,811.493177 1260,811.493177 M1259.20835,844.546606 C1251.61467,844.546606 1245.45936,838.367898 1245.45936,830.746588 C1245.45936,823.125279 1251.61467,816.946571 1259.20835,816.946571" id="Stroke-71"></path>
        </g>
    </g>
</svg>