<?xml version="1.0" encoding="UTF-8"?>
<svg width="196px" height="93px" viewBox="0 0 196 93" version="1.1" xmlns="http://www.w3.org/2000/svg" xmlns:xlink="http://www.w3.org/1999/xlink">
    <!-- Generator: Sketch 61.2 (89653) - https://sketch.com -->
    <title>Fill 800</title>
    <desc>Created with Sketch.</desc>
    <g id="页面-1" stroke="none" stroke-width="1" fill="none" fill-rule="evenodd">
        <g id="形状素材" transform="translate(-243.000000, -764.000000)" fill="#FFFFFF">
            <path d="M243,857 L439,857 L426.136111,845.024787 L243,845.024787 L243,857 Z M243,832.05164 L413,832.05164 L403.256647,823.070231 L243,823.070231 L243,832.05164 Z M243,813.090887 L393,813.090887 L385.366786,806.105346 L243,806.105346 L243,813.090887 Z M243,798.121871 L377,798.121871 L370.866999,792.134265 L243,792.134265 L243,798.121871 Z M243,785.033962 L364,785.033962 L358.967596,780.273815 L243,780.273815 L243,785.033962 Z M244,775.663358 L354,775.663358 L349.812783,771.6816 L244,771.6816 L244,775.663358 Z M243,764 L243,767.378008 L345,767.378008 L341.41767,764 L243,764 L243,764 Z" id="Fill-800"></path>
        </g>
    </g>
</svg>