<?xml version="1.0" encoding="UTF-8"?>
<svg width="137px" height="116px" viewBox="0 0 137 116" version="1.1" xmlns="http://www.w3.org/2000/svg" xmlns:xlink="http://www.w3.org/1999/xlink">
    <!-- Generator: Sketch 61.2 (89653) - https://sketch.com -->
    <title>53</title>
    <desc>Created with Sketch.</desc>
    <g id="页面-1" stroke="none" stroke-width="1" fill="none" fill-rule="evenodd">
        <g id="形状素材" transform="translate(-890.000000, -1090.000000)">
            <g id="53" transform="translate(890.000000, 1090.000000)">
                <path d="M50.421633,31.277994 C65.6544418,16.2406687 90.3453104,16.2406687 105.576137,31.277994 C120.806963,46.3094484 120.808946,70.6873715 105.576137,85.7227399 C90.3472928,100.760065 65.6524594,100.758108 50.421633,85.7227399 C35.192789,70.6873715 35.192789,46.3114054 50.421633,31.277994" id="Fill-546" fill="#838383"></path>
                <path d="M78.4847838,1.96194503 C63.3844021,1.96194503 49.1865993,7.79284567 38.5080622,18.3775391 C16.4661366,40.223797 16.4681159,75.776203 38.5100416,97.6283467 C49.1865993,108.211078 63.3844021,114.038055 78.4828045,114.038055 C93.5831862,114.038055 107.780989,108.211078 118.459526,97.6263848 C129.138063,87.0416913 135.02066,72.9686596 135.02066,57.999019 C135.02066,43.0313404 129.140043,28.9602706 118.463485,18.3775391 C107.782968,7.79284567 93.5851655,1.96194503 78.4847838,1.96194503 Z M78.4828045,116 C62.8539391,116 48.1613014,109.968981 37.1106485,99.0154419 C14.2967804,76.3981395 14.2967804,39.6018605 37.1086691,16.990444 C48.1613014,6.03494292 62.8559185,0 78.4847838,0 C94.1136492,0 108.810246,6.03494292 119.862878,16.990444 C130.913531,27.9439831 137,42.5075011 137,57.999019 C137,73.490537 130.911551,88.0579789 119.858919,99.0134799 C108.808266,109.967019 94.1136492,116 78.4828045,116 L78.4828045,116 Z" id="Fill-547" fill="#FFFFFF"></path>
                <path d="M7.7587833,45.7612039 C18.1140556,35.412932 34.8891612,35.412932 45.2384947,45.7612039 C55.5878282,56.1114556 55.5878282,72.8900292 45.2345355,83.2402809 C34.8911408,93.586573 18.1100964,93.586573 7.7607629,83.2402809 C-2.58857061,72.8900292 -2.58461141,56.1074961 7.7587833,45.7612039" id="Fill-572" fill="#636363"></path>
            </g>
        </g>
    </g>
</svg>