<?xml version="1.0" encoding="UTF-8"?>
<svg width="195px" height="69px" viewBox="0 0 195 69" version="1.1" xmlns="http://www.w3.org/2000/svg" xmlns:xlink="http://www.w3.org/1999/xlink">
    <!-- Generator: Sketch 61.2 (89653) - https://sketch.com -->
    <title>形状结合</title>
    <desc>Created with Sketch.</desc>
    <g id="页面-1" stroke="none" stroke-width="1" fill="none" fill-rule="evenodd">
        <g id="形状素材" transform="translate(-196.000000, -100.000000)" fill="#FFFFFF">
            <path d="M214.114094,158 C216.822921,158 219.448873,159.800443 220.843539,162.996899 C221.965903,165.50144 223.744162,166.553931 225.437179,166.563677 C227.130196,166.553931 228.908455,165.50144 230.030819,162.996899 C231.425485,159.800443 234.049069,158 236.760264,158 L236.800517,158 L236.800517,158 C239.511712,158 242.137663,159.800443 243.529962,162.996899 C244.652326,165.50144 246.430585,166.553931 248.123602,166.563677 C249.818987,166.553931 251.594878,165.50144 252.719609,162.996899 C254.111908,159.800443 256.73786,158 259.449055,158 L259.489308,158 L259.489308,158 C262.193399,158 264.812247,159.790698 266.206914,162.972536 L266.209282,162.974972 L266.218753,162.996899 C267.341117,165.50144 269.119376,166.553931 270.812393,166.563677 C272.50541,166.553931 274.283669,165.50144 275.406033,162.996899 C276.800699,159.800443 279.424283,158 282.135478,158 L282.175731,158 L282.175731,158 C284.886926,158 287.51051,159.800443 288.905176,162.996899 C290.029908,165.50144 291.805799,166.553931 293.498816,166.563677 C295.191833,166.553931 296.970092,165.50144 298.092456,162.996899 C299.487123,159.800443 302.113074,158 304.821901,158 L304.862154,158 L304.862154,158 C307.573349,158 310.199301,159.800443 311.593967,162.996899 C312.716331,165.50144 314.492223,166.553931 316.187607,166.563677 C317.880624,166.553931 319.656515,165.50144 320.781247,162.996899 C322.175913,159.800443 324.799497,158 327.510692,158 L327.550945,158 L327.550945,158 C330.26214,158 332.885724,159.800443 334.280391,162.996899 C335.402754,165.50144 337.181013,166.553931 338.87403,166.563677 C340.567047,166.553931 342.345306,165.50144 343.46767,162.996899 C344.862337,159.800443 347.48592,158 350.197115,158 L350.237368,158 L350.237368,158 C352.948563,158 355.574515,159.800443 356.966814,162.996899 C358.091545,165.50144 359.867437,166.553931 361.562821,166.563677 C363.255838,166.553931 365.031729,165.50144 366.156461,162.996899 C367.54876,159.800443 370.174711,158 372.885906,158 L372.926159,158 L372.926159,158 C375.637354,158 378.260938,159.800443 379.655605,162.996899 C380.777968,165.50144 382.556227,166.553931 384.249244,166.563677 C385.942261,166.553931 387.72052,165.50144 388.842884,162.996899 L391,164.003101 C389.605333,167.199557 386.979381,169 384.268187,169 L384.230301,169 L384.230301,169 C381.519107,169 378.893155,167.199557 377.498488,164.003101 C376.376125,161.49856 374.597865,160.443632 372.904849,160.436323 C371.211832,160.443632 369.43594,161.49856 368.311209,164.003101 L368.304105,164.022591 C366.907071,167.206866 364.285855,169 361.581764,169 L361.54151,169 L361.54151,169 C358.830316,169 356.206732,167.199557 354.812065,164.003101 C353.687334,161.49856 351.911442,160.443632 350.218426,160.436323 C348.525409,160.443632 346.747149,161.49856 345.624786,164.003101 C344.230119,167.199557 341.604167,169 338.892973,169 L338.855087,169 L338.855087,169 C336.143893,169 333.517941,167.199557 332.125642,164.003101 C331.000911,161.49856 329.222651,160.443632 327.529635,160.436323 C325.836618,160.443632 324.060726,161.49856 322.935995,164.003101 C321.541328,167.199557 318.917744,169 316.20655,169 L316.166296,169 L316.166296,169 C313.45747,169 310.831518,167.199557 309.436851,164.003101 C308.314488,161.49856 306.536228,160.443632 304.843212,160.436323 C303.150195,160.443632 301.371935,161.49856 300.249572,164.003101 C298.854905,167.199557 296.228953,169 293.517759,169 L293.479873,169 L293.479873,169 C290.768679,169 288.142727,167.199557 286.750428,164.003101 C285.625697,161.49856 283.849805,160.443632 282.154421,160.436323 C280.461404,160.443632 278.685512,161.49856 277.560781,164.003101 C276.166114,167.199557 273.54253,169 270.831336,169 L270.79345,169 L270.79345,169 C268.082256,169 265.456304,167.199557 264.061637,164.003101 C262.939274,161.49856 261.161014,160.443632 259.467998,160.436323 C257.774981,160.443632 255.996721,161.49856 254.874358,164.003101 C253.479691,167.199557 250.856107,169 248.142545,169 L248.104659,169 L248.104659,169 C245.393465,169 242.767513,167.199557 241.375214,164.003101 C240.250483,161.49856 238.474591,160.443632 236.781574,160.436323 C235.08619,160.443632 233.310298,161.49856 232.185567,164.003101 C230.793268,167.199557 228.167316,169 225.456122,169 L225.418236,169 L225.418236,169 C222.707042,169 220.08109,167.199557 218.686423,164.003101 C217.56406,161.49856 215.7858,160.443632 214.092784,160.436323 C212.399767,160.443632 210.621507,161.49856 209.499144,164.003101 C208.104477,167.199557 205.480893,169 202.769699,169 L202.729445,169 L202.729445,169 C200.018251,169 197.394667,167.199557 196,164.003101 L198.154748,162.996899 C199.27948,165.50144 201.055371,166.553931 202.748388,166.563677 C204.443773,166.553931 206.219664,165.50144 207.342028,162.996899 C208.736694,159.800443 211.362646,158 214.073841,158 L214.114094,158 L214.114094,158 Z M214.025091,146 C216.687134,146 219.273322,147.803851 220.655309,151.037826 C221.793137,153.633975 223.616032,154.75017 225.363072,154.757644 C227.110112,154.75017 228.930636,153.633975 230.068464,151.037826 C231.452821,147.803851 234.036639,146 236.701053,146 L236.73661,146 L236.73661,146 C239.401024,146 241.987212,147.803851 243.369198,151.037826 C244.507026,153.633975 246.327551,154.75017 248.074591,154.757644 C249.821631,154.75017 251.644526,153.633975 252.782354,151.037826 C254.164341,147.803851 256.750529,146 259.412572,146 L259.4505,146 L259.4505,146 C262.107802,146 264.686879,147.793884 266.071236,151.015402 L266.073606,151.017894 L266.080718,151.037826 C267.218546,153.633975 269.041441,154.75017 270.788481,154.757644 C272.535521,154.75017 274.356045,153.633975 275.493873,151.037826 C276.878231,147.803851 279.462048,146 282.126462,146 L282.162019,146 L282.162019,146 C284.826433,146 287.41025,147.803851 288.794607,151.037826 C289.932435,153.633975 291.75296,154.75017 293.5,154.757644 C295.24704,154.75017 297.069935,153.633975 298.207763,151.037826 C299.58975,147.803851 302.175938,146 304.837981,146 L304.873538,146 L304.873538,146 C307.537952,146 310.12414,147.803851 311.506127,151.037826 C312.643955,153.633975 314.46685,154.75017 316.21389,154.757644 C317.958559,154.75017 319.781454,153.633975 320.919282,151.037826 L320.928764,151.017894 L320.928764,151.015402 C322.313121,147.796376 324.894569,146 327.551871,146 L327.587428,146 L327.587428,146 C330.251842,146 332.835659,147.803851 334.217646,151.037826 C335.357844,153.633975 337.178369,154.75017 338.925409,154.757644 C340.672449,154.75017 342.495344,153.633975 343.633172,151.037826 C345.015159,147.803851 347.601347,146 350.26339,146 L350.298947,146 L350.298947,146 C352.963361,146 355.549549,147.803851 356.931536,151.037826 C358.069364,153.633975 359.892259,154.75017 361.639299,154.757644 C363.383968,154.75017 365.206863,153.633975 366.344691,151.037826 C367.726678,147.803851 370.312866,146 372.97728,146 L373.012837,146 L373.012837,146 C375.67488,146 378.261068,147.803851 379.643055,151.037826 C380.783254,153.633975 382.603778,154.75017 384.350818,154.757644 C386.097858,154.75017 387.918383,153.633975 389.058581,151.037826 L391,151.964666 C389.618013,155.198641 387.031825,157 384.369782,157 L384.331854,157 L384.331854,157 C381.669811,157 379.083623,155.198641 377.701636,151.964666 C376.563808,149.366025 374.740913,148.24983 372.993873,148.242356 C371.246833,148.24983 369.426309,149.366025 368.288481,151.964666 C366.904123,155.198641 364.320306,157 361.655892,157 L361.620335,157 L361.620335,157 C358.955921,157 356.372104,155.198641 354.990117,151.964666 C353.849919,149.366025 352.029394,148.24983 350.282354,148.242356 C348.535314,148.24983 346.712419,149.366025 345.574591,151.964666 C344.192604,155.198641 341.606416,157 338.944373,157 L338.906445,157 L338.906445,157 C336.244402,157 333.658214,155.198641 332.276227,151.964666 C331.138399,149.366025 329.315504,148.24983 327.568464,148.242356 C325.823795,148.24983 324.0009,149.366025 322.863072,151.964666 L322.85596,151.979615 C321.471603,155.203624 318.890156,157 316.230483,157 L316.194926,157 L316.194926,157 C313.532883,157 310.946695,155.198641 309.564708,151.964666 C308.424509,149.366025 306.603985,148.24983 304.856945,148.242356 C303.109905,148.24983 301.28701,149.366025 300.149182,151.964666 C298.767195,155.198641 296.181007,157 293.518964,157 L293.483407,157 L293.483407,157 C290.818993,157 288.232805,155.198641 286.850818,151.964666 C285.71299,149.366025 283.890095,148.24983 282.143055,148.242356 C280.398386,148.24983 278.575491,149.366025 277.437663,151.964666 C276.055676,155.198641 273.469488,157 270.805074,157 L270.769517,157 L270.769517,157 C268.107474,157 265.521286,155.198641 264.139299,151.964666 C262.9991,149.366025 261.178576,148.24983 259.431536,148.242356 C257.684496,148.24983 255.863971,149.366025 254.723773,151.964666 C253.341786,155.198641 250.757968,157 248.093555,157 L248.057998,157 L248.057998,157 C245.393584,157 242.807396,155.198641 241.425409,151.964666 C240.287581,149.366025 238.464686,148.24983 236.720017,148.242356 C234.972977,148.24983 233.150081,149.366025 232.012254,151.964666 C230.630267,155.198641 228.044079,157 225.379665,157 L225.344108,157 L225.344108,157 C222.686806,157 220.107729,155.206116 218.723372,151.984598 L218.721001,151.982106 L218.71389,151.964666 C217.576062,149.366025 215.753167,148.24983 214.006127,148.242356 C212.259087,148.24983 210.438562,149.366025 209.298364,151.964666 C207.916377,155.198641 205.332559,157 202.668146,157 L202.632589,157 L202.632589,157 C199.968175,157 197.381987,155.198641 196,151.964666 L197.943789,151.037826 C199.081617,153.633975 200.904512,154.75017 202.649182,154.757644 C204.396222,154.75017 206.219117,153.633975 207.356945,151.037826 C208.738932,147.803851 211.32512,146 213.989533,146 L214.025091,146 L214.025091,146 Z M213.933517,135 C216.548673,135 219.095009,136.642725 220.466661,139.617702 C221.619988,142.066728 223.485244,143.139481 225.286427,143.144115 C227.085237,143.139481 228.952867,142.066728 230.106193,139.617702 C231.477845,136.642725 234.024181,135 236.639337,135 L236.670188,135 L236.670188,135 C239.285344,135 241.834053,136.642725 243.203332,139.617702 C244.356659,142.066728 246.224288,143.139481 248.023098,143.144115 C249.824281,143.139481 251.689538,142.066728 252.842864,139.617702 C254.214516,136.642725 256.760852,135 259.376009,135 L259.409232,135 L259.409232,135 C262.019642,135 264.561232,136.635774 265.932884,139.599166 L265.935257,139.601483 L265.942376,139.617702 C267.095703,142.066728 268.960959,143.139481 270.762142,143.144115 C272.560952,143.139481 274.428582,142.066728 275.581908,139.617702 L275.589028,139.601483 L275.591401,139.596849 C276.963053,136.635774 279.504643,135 282.115053,135 L282.145903,135 L282.145903,135 C284.761059,135 287.309769,136.642725 288.679047,139.617702 C289.832374,142.066728 291.700004,143.139481 293.498813,143.144115 C295.299996,143.139481 297.165253,142.066728 298.31858,139.617702 C299.690231,136.642725 302.236568,135 304.851724,135 L304.884947,135 L304.884947,135 C307.500103,135 310.04644,136.642725 311.415718,139.617702 C312.569045,142.066728 314.436675,143.139481 316.237858,143.144115 C318.036667,143.139481 319.904297,142.066728 321.057624,139.617702 L321.064743,139.601483 L321.064743,139.599166 C322.436395,136.635774 324.977985,135 327.590768,135 L327.621618,135 L327.621618,135 C330.236775,135 332.783111,136.642725 334.154763,139.617702 C335.308089,142.066728 337.175719,143.139481 338.974529,143.144115 C340.775712,143.139481 342.640968,142.066728 343.794295,139.617702 C345.165947,136.642725 347.712283,135 350.327439,135 L350.358289,135 L350.358289,135 C352.975819,135 355.522155,136.642725 356.891434,139.617702 C358.04476,142.066728 359.91239,143.139481 361.713573,143.144115 C363.512383,143.139481 365.380012,142.066728 366.533339,139.617702 C367.902618,136.642725 370.448954,135 373.066483,135 L373.097334,135 L373.097334,135 C375.707744,135 378.249334,136.635774 379.620986,139.596849 L379.623359,139.601483 L379.630478,139.617702 C380.783805,142.066728 382.651434,143.139481 384.450244,143.144115 C386.249054,143.139481 388.116684,142.066728 389.27001,139.617702 L391,140.382298 C389.628348,143.357275 387.082012,145 384.466856,145 L384.433632,145 L384.433632,145 C381.823222,145 379.281632,143.364226 377.90998,140.400834 L377.90998,140.398517 L377.900488,140.382298 C376.747161,137.933272 374.881905,136.860519 373.080722,136.853568 C371.281912,136.860519 369.414282,137.933272 368.260956,140.382298 C366.891677,143.357275 364.345341,145 361.727812,145 L361.696961,145 L361.696961,145 C359.079432,145 356.533096,143.357275 355.163817,140.382298 L355.156698,140.36608 C354.000998,137.928638 352.140488,136.860519 350.344051,136.853568 C348.547614,136.860519 346.684731,137.928638 345.531404,140.36608 L345.524285,140.382298 C344.152633,143.357275 341.606297,145 338.99114,145 L338.957917,145 L338.957917,145 C336.342761,145 333.796425,143.357275 332.427146,140.382298 L332.417653,140.36608 C331.264327,137.928638 329.401443,136.860519 327.605007,136.853568 C325.806197,136.860519 323.938567,137.933272 322.785241,140.382298 C321.415962,143.357275 318.869626,145 316.254469,145 L316.221246,145 L316.221246,145 C313.60609,145 311.059753,143.357275 309.688102,140.382298 L309.680982,140.36608 C308.527656,137.928638 306.664772,136.860519 304.868336,136.853568 C303.074272,136.860519 301.211388,137.928638 300.058062,140.361446 L300.048569,140.382298 C298.676918,143.357275 296.130581,145 293.515425,145 L293.482202,145 L293.482202,145 C290.867046,145 288.320709,143.357275 286.951431,140.382298 L286.941938,140.36608 C285.788612,137.928638 283.925728,136.860519 282.129291,136.853568 C280.330482,136.860519 278.462852,137.933272 277.309525,140.382298 C277.309525,140.384615 277.309525,140.386932 277.307152,140.389249 L277.302406,140.398517 L277.302406,140.400834 C275.928381,143.364226 273.389164,145 270.778754,145 L270.745531,145 L270.745531,145 C268.130374,145 265.584038,143.357275 264.212386,140.382298 C263.05906,137.933272 261.19143,136.860519 259.39262,136.853568 C257.598557,136.860519 255.735673,137.928638 254.582347,140.361446 L254.572854,140.382298 C253.201202,143.357275 250.654866,145 248.03971,145 L248.006486,145 L248.006486,145 C245.39133,145 242.844994,143.357275 241.475715,140.382298 L241.466223,140.361446 C240.310523,137.928638 238.450013,136.860519 236.655949,136.853568 C234.859512,136.860519 232.999002,137.928638 231.843302,140.361446 L231.83381,140.382298 C230.464531,143.357275 227.918195,145 225.303039,145 L225.269815,145 L225.269815,145 C222.659405,145 220.117815,143.364226 218.746163,140.400834 L218.74379,140.398517 C218.741417,140.393883 218.739044,140.389249 218.736671,140.382298 C217.583344,137.933272 215.718088,136.860519 213.916905,136.853568 C212.122841,136.860519 210.259958,137.928638 209.106631,140.361446 L209.097139,140.382298 C207.725487,143.357275 205.181524,145 202.563995,145 L202.530771,145 L202.530771,145 C199.915615,145 197.369279,143.357275 196,140.382298 L197.727617,139.617702 C198.880943,142.066728 200.748573,143.139481 202.547383,143.144115 C204.348566,143.139481 206.216195,142.066728 207.369522,139.617702 C208.738801,136.642725 211.285137,135 213.902666,135 L213.933517,135 L213.933517,135 Z M213.844115,123 C216.407529,123 218.91155,124.639383 220.272844,127.642942 L220.277595,127.654804 C221.446455,130.198102 223.358918,131.332147 225.211988,131.339265 C227.065058,131.332147 228.977522,130.198102 230.146382,127.654804 C231.502924,124.644128 234.011696,123 236.579861,123 L236.60837,123 L236.60837,123 C239.174159,123 241.682931,124.644128 243.041849,127.654804 C244.208333,130.198102 246.120797,131.332147 247.973867,131.339265 C249.826937,131.332147 251.739401,130.198102 252.90826,127.654804 C254.267178,124.644128 256.773575,123 259.34174,123 L259.370249,123 L259.370249,123 C261.933662,123 264.437683,124.639383 265.796601,127.642942 L265.803728,127.654804 C266.972588,130.198102 268.885051,131.332147 270.738121,131.339265 C272.591192,131.332147 274.503655,130.198102 275.670139,127.654804 C277.029057,124.644128 279.537829,123 282.103618,123 L282.132127,123 L282.132127,123 C284.700292,123 287.209064,124.644128 288.565607,127.654804 C289.734466,130.198102 291.64693,131.332147 293.5,131.339265 C295.35307,131.332147 297.265534,130.198102 298.434393,127.654804 C299.793311,124.644128 302.299708,123 304.867873,123 L304.896382,123 L304.896382,123 C307.464547,123 309.970943,124.644128 311.329861,127.654804 C312.498721,130.198102 314.408808,131.332147 316.264254,131.339265 C318.117325,131.332147 320.029788,130.198102 321.196272,127.654804 C322.55519,124.644128 325.061586,123 327.629751,123 L327.65826,123 L327.65826,123 C330.226425,123 332.735197,124.644128 334.09174,127.654804 C335.260599,130.198102 337.173063,131.332147 339.026133,131.339265 C340.879203,131.332147 342.791667,130.198102 343.960526,127.654804 C345.317069,124.644128 347.825841,123 350.394006,123 L350.422515,123 L350.422515,123 C352.99068,123 355.497076,124.644128 356.855994,127.654804 C358.024854,130.198102 359.934942,131.332147 361.790387,131.339265 C363.643458,131.332147 365.553545,130.198102 366.722405,127.654804 C368.081323,124.644128 370.587719,123 373.155885,123 L373.184393,123 L373.184393,123 C375.752558,123 378.258955,124.644128 379.617873,127.654804 C380.786732,130.198102 382.699196,131.332147 384.552266,131.339265 C386.405336,131.332147 388.3178,130.198102 389.486659,127.654804 L391,128.342823 C389.641082,131.355872 387.134686,133 384.56652,133 L384.538012,133 L384.538012,133 C381.969846,133 379.46345,131.355872 378.104532,128.342823 C376.935673,125.801898 375.023209,124.66548 373.170139,124.660735 C371.38325,124.665311 369.541134,125.722169 368.36592,128.075943 L368.238121,128.342823 C366.879203,131.355872 364.370431,133 361.804642,133 L361.773757,133 L361.773757,133 C359.207968,133 356.699196,131.355872 355.340278,128.342823 L355.333151,128.326216 C354.164291,125.794781 352.256579,124.66548 350.40826,124.660735 C348.557566,124.66548 346.65223,125.794781 345.48337,128.326216 L345.473867,128.342823 C344.114949,131.355872 341.608553,133 339.040387,133 L339.011879,133 L339.011879,133 C336.443713,133 333.937317,131.355872 332.578399,128.342823 L332.568896,128.319098 C331.397661,125.794781 329.492325,124.66548 327.644006,124.660735 C325.790936,124.66548 323.878472,125.801898 322.711988,128.342823 C321.35307,131.355872 318.846674,133 316.278509,133 L316.25,133 L316.25,133 C313.681835,133 311.173063,131.355872 309.81652,128.342823 L309.804642,128.319098 C308.635782,125.794781 306.730446,124.66548 304.882127,124.660735 C303.033808,124.66548 301.126096,125.794781 299.957237,128.323843 L299.947734,128.342823 C298.588816,131.355872 296.08242,133 293.514254,133 L293.485746,133 L293.485746,133 C290.91758,133 288.411184,131.355872 287.052266,128.342823 L287.042763,128.319098 C285.873904,125.794781 283.966192,124.66548 282.117873,124.660735 C280.264803,124.66548 278.352339,125.801898 277.185855,128.342823 C275.826937,131.355872 273.320541,133 270.752376,133 L270.723867,133 L270.723867,133 C268.160453,133 265.656433,131.360617 264.297515,128.359431 L264.295139,128.357058 L264.292763,128.349941 C264.292763,128.347568 264.290387,128.345196 264.290387,128.342823 C263.121528,125.801898 261.209064,124.66548 259.355994,124.660735 C257.507675,124.66548 255.602339,125.794781 254.43348,128.319098 L254.421601,128.342823 C253.062683,131.355872 250.556287,133 247.988121,133 L247.959613,133 L247.959613,133 C245.391447,133 242.885051,131.355872 241.526133,128.342823 L241.51663,128.319098 C240.34777,125.794781 238.440058,124.66548 236.594115,124.660735 C234.743421,124.66548 232.838085,125.794781 231.669225,128.323843 L231.659722,128.342823 C230.300804,131.355872 227.794408,133 225.226243,133 L225.197734,133 L225.197734,133 C222.629569,133 220.123173,131.355872 218.764254,128.342823 C217.595395,125.801898 215.682931,124.66548 213.829861,124.660735 C211.981542,124.66548 210.07383,125.794781 208.904971,128.323843 L208.895468,128.342823 C207.538925,131.355872 205.030154,133 202.461988,133 L202.43348,133 L202.43348,133 C199.86769,133 197.358918,131.355872 196,128.342823 L197.515716,127.654804 C198.6822,130.198102 200.594664,131.332147 202.447734,131.339265 C204.30318,131.332147 206.213268,130.198102 207.382127,127.654804 C208.741045,124.644128 211.247442,123 213.815607,123 L213.844115,123 L213.844115,123 Z M213.752354,112 C216.240157,112 218.675635,113.603888 220.0337,116.575942 L220.0337,116.578372 L220.062241,116.643985 L220.088403,116.697448 L220.088403,116.697448 C221.270466,119.336574 223.227887,120.53706 225.135361,120.54192 C227.042836,120.53706 229.000256,119.336574 230.182319,116.697448 L230.187076,116.685298 L230.189455,116.685298 C231.535627,113.64277 233.999646,112 236.51599,112 L236.542153,112 L236.542153,112 C239.060875,112 241.529651,113.647631 242.875823,116.697448 C244.060265,119.336574 246.017686,120.53706 247.922781,120.54192 C249.830256,120.53706 251.787676,119.336574 252.969739,116.697448 C254.31829,113.647631 256.784688,112 259.305789,112 L259.329573,112 L259.329573,112 C261.817376,112 264.252854,113.603888 265.610919,116.575942 L265.610919,116.578372 L265.639459,116.641555 C265.646595,116.660996 265.656108,116.680437 265.665622,116.697448 C266.847685,119.336574 268.805106,120.53706 270.71258,120.54192 C272.617676,120.53706 274.575096,119.336574 275.759538,116.697448 L275.7857,116.641555 L275.7857,116.641555 L275.814241,116.578372 L275.814241,116.575942 C277.172306,113.603888 279.607784,112 282.093209,112 L282.119371,112 L282.119371,112 C284.638093,112 287.106869,113.647631 288.453042,116.697448 C289.637484,119.336574 291.592526,120.53706 293.5,120.54192 C295.407474,120.53706 297.364895,119.336574 298.546958,116.697448 C299.893131,113.647631 302.361907,112 304.883007,112 L304.906791,112 L304.906791,112 C307.427892,112 309.894289,113.647631 311.240462,116.697448 C312.424904,119.336574 314.382324,120.53706 316.289799,120.54192 C318.194894,120.53706 320.152315,119.336574 321.336757,116.697448 C321.343892,116.680437 321.353405,116.660996 321.360541,116.641555 L321.389081,116.578372 L321.39146,116.575942 C322.749524,113.603888 325.185003,112 327.670427,112 L327.694211,112 L327.694211,112 C330.215312,112 332.684088,113.647631 334.030261,116.697448 C335.212324,119.336574 337.169744,120.53706 339.077219,120.54192 C340.984693,120.53706 342.942113,119.336574 344.124177,116.697448 C345.470349,113.647631 347.939125,112 350.460226,112 L350.48401,112 L350.48401,112 C353.002732,112 355.471508,113.647631 356.817681,116.697448 C358.002122,119.336574 359.959543,120.53706 361.867017,120.54192 C363.772113,120.53706 365.729534,119.336574 366.913975,116.697448 L366.9663,116.578372 L366.968678,116.575942 C368.326743,113.603888 370.762221,112 373.247646,112 L373.27143,112 L373.27143,112 C375.759233,112 378.194711,113.603888 379.552776,116.575942 L379.552776,116.578372 L379.583695,116.643985 C379.59083,116.663426 379.597966,116.680437 379.607479,116.697448 C380.789542,119.336574 382.746963,120.53706 384.654437,120.54192 C386.561911,120.53706 388.519332,119.336574 389.701395,116.697448 L391,117.302552 C389.653827,120.352369 387.18743,122 384.666329,122 L384.642545,122 L384.642545,122 C382.154742,122 379.719264,120.396112 378.361199,117.424058 L378.361199,117.421628 L378.332658,117.358445 C378.325523,117.339004 378.31601,117.319563 378.306496,117.302552 C377.124433,114.663426 375.167012,113.46294 373.259538,113.45808 C371.352064,113.46294 369.397022,114.663426 368.21258,117.302552 C368.205445,117.319563 368.195931,117.339004 368.188796,117.358445 L368.157877,117.421628 L368.157877,117.424058 C366.799812,120.396112 364.364334,122 361.878909,122 L361.852747,122 L361.852747,122 C359.334024,122 356.865249,120.352369 355.519076,117.302552 C354.334634,114.663426 352.379592,113.46294 350.472118,113.45808 C348.564644,113.46294 346.607223,114.663426 345.42516,117.302552 C344.076609,120.352369 341.610211,122 339.089111,122 L339.065327,122 L339.065327,122 C336.544226,122 334.077828,120.352369 332.731656,117.302552 C331.547214,114.663426 329.589794,113.46294 327.682319,113.45808 C325.777223,113.46294 323.819803,114.663426 322.635361,117.302552 C322.628226,117.319563 322.618712,117.336574 322.611577,117.356015 L322.583037,117.421628 L322.580658,117.424058 C321.222594,120.396112 318.787115,122 316.30169,122 L316.277907,122 L316.277907,122 C313.756806,122 311.28803,120.352369 309.941857,117.302552 C308.759794,114.663426 306.802374,113.46294 304.894899,113.45808 C302.987425,113.46294 301.030004,114.663426 299.847941,117.302552 C298.49939,120.352369 296.032993,122 293.511892,122 L293.488108,122 L293.488108,122 C290.969386,122 288.50061,120.352369 287.154437,117.302552 C285.969996,114.663426 284.012575,113.46294 282.105101,113.45808 C280.200005,113.46294 278.242584,114.663426 277.058143,117.302552 C277.051007,117.319563 277.043872,117.336574 277.034359,117.356015 L277.005818,117.421628 L277.00344,117.424058 C275.645375,120.396112 273.209897,122 270.724472,122 L270.700688,122 L270.700688,122 C268.212885,122 265.777406,120.396112 264.419342,117.424058 L264.419342,117.421628 L264.364639,117.302552 C263.182575,114.663426 261.225155,113.46294 259.317681,113.45808 C257.410206,113.46294 255.452786,114.663426 254.270723,117.302552 C252.92455,120.352369 250.455774,122 247.934673,122 L247.910889,122 L247.910889,122 C245.392167,122 242.923391,120.352369 241.577219,117.302552 C240.392777,114.663426 238.435356,113.46294 236.530261,113.45808 C234.622786,113.46294 232.665366,114.663426 231.480924,117.302552 L231.476167,117.314702 C230.127616,120.35723 227.663597,122 225.147253,122 L225.123469,122 L225.123469,122 C222.635666,122 220.200188,120.396112 218.842123,117.424058 L218.842123,117.421628 L218.813582,117.356015 L218.78742,117.302552 L218.78742,117.302552 C217.605357,114.663426 215.647936,113.46294 213.740462,113.45808 C211.832988,113.46294 209.875567,114.663426 208.693504,117.302552 L208.688747,117.314702 L208.686369,117.314702 C207.340196,120.35723 204.876177,122 202.357455,122 L202.333671,122 L202.333671,122 C199.814949,122 197.346173,120.352369 196,117.302552 L197.298605,116.697448 C198.483046,119.336574 200.440467,120.53706 202.345563,120.54192 C204.253037,120.53706 206.210458,119.336574 207.394899,116.697448 L207.399656,116.685298 C208.748207,113.64277 211.212226,112 213.72857,112 L213.752354,112 L213.752354,112 Z M214.615005,100 C217.046438,100 219.435255,101.613948 220.770531,104.6401 L220.798941,104.704857 C220.803676,104.71731 220.810778,104.729763 220.815513,104.742217 C222.006371,107.481943 223.999814,108.752179 225.948275,108.75467 C227.896735,108.752179 229.887811,107.481943 231.081036,104.742217 L231.085771,104.732254 L231.085771,104.729763 C232.413944,101.646326 234.826437,100 237.279177,100 L237.300484,100 L237.300484,100 C239.75796,100 242.17282,101.651308 243.500993,104.742217 C244.69185,107.481943 246.682926,108.752179 248.631387,108.75467 C250.582215,108.752179 252.57329,107.481943 253.764148,104.742217 C255.089953,101.651308 257.507181,100 259.964656,100 L259.983596,100 L259.983596,100 C262.415029,100 264.803846,101.613948 266.139122,104.6401 L266.167532,104.704857 C266.172267,104.71731 266.17937,104.729763 266.184105,104.742217 C267.374962,107.481943 269.366038,108.752179 271.316866,108.75467 C273.265327,108.752179 275.256402,107.481943 276.449627,104.742217 C276.454362,104.729763 276.459097,104.71731 276.4662,104.704857 L276.492242,104.6401 L276.49461,104.6401 C277.829885,101.613948 280.218703,100 282.647768,100 L282.669076,100 L282.669076,100 C285.126551,100 287.541411,101.651308 288.867216,104.742217 C290.060441,107.481943 292.051517,108.752179 293.999978,108.75467 C295.950806,108.752179 297.941882,107.481943 299.132739,104.742217 C300.458545,101.651308 302.875772,100 305.333247,100 L305.352187,100 L305.352187,100 C307.809663,100 310.224523,101.651308 311.552696,104.742217 C312.743553,107.481943 314.734629,108.752179 316.685457,108.75467 C318.633918,108.752179 320.624994,107.481943 321.815851,104.742217 C321.822954,104.729763 321.827689,104.71731 321.832424,104.704857 L321.860834,104.6401 C323.198477,101.613948 325.587294,100 328.016359,100 L328.035299,100 L328.035299,100 C330.495142,100 332.910002,101.651308 334.235808,104.742217 C335.429033,107.481943 337.420108,108.752179 339.368569,108.75467 C341.319397,108.752179 343.308105,107.481943 344.50133,104.742217 C345.827136,101.651308 348.241996,100 350.701839,100 L350.720779,100 L350.720779,100 C353.178254,100 355.593114,101.651308 356.921287,104.742217 C358.112145,107.481943 360.10322,108.752179 362.054048,108.75467 C364.002509,108.752179 365.993585,107.481943 367.184442,104.742217 C367.191545,104.729763 367.19628,104.71731 367.201015,104.704857 L367.229425,104.6401 C368.567068,101.613948 370.953518,100 373.384951,100 L373.403891,100 L373.403891,100 C375.835323,100 378.224141,101.613948 379.559416,104.6401 L379.587826,104.704857 C379.594929,104.71731 379.599664,104.729763 379.604399,104.742217 C380.797624,107.481943 382.7887,108.752179 384.73716,108.75467 C386.685621,108.752179 388.676697,107.481943 389.869922,104.742217 C389.969357,104.513076 390.182433,104.37858 390.407346,104.37858 C390.490209,104.37858 390.573072,104.396015 390.653567,104.433375 C390.949506,104.575342 391.082087,104.94396 390.947139,105.257783 C389.618966,108.351183 387.204106,110 384.74663,110 L384.72769,110 L384.72769,110 C382.296258,110 379.90744,108.388543 378.572165,105.362391 L378.543755,105.297634 L378.527182,105.257783 L378.527182,105.257783 C377.336324,102.518057 375.345249,101.250311 373.394421,101.24533 C371.44596,101.250311 369.454884,102.518057 368.261659,105.257783 C368.256924,105.270237 368.252189,105.285181 368.245087,105.297634 L368.219044,105.362391 L368.216677,105.362391 C366.881401,108.388543 364.492584,110 362.063518,110 L362.042211,110 L362.042211,110 C359.584736,110 357.169876,108.351183 355.84407,105.257783 C354.650845,102.518057 352.659769,101.250311 350.711309,101.24533 C348.760481,101.250311 346.769405,102.518057 345.578547,105.257783 C344.250374,108.351183 341.837882,110 339.378039,110 L339.359099,110 L339.359099,110 C336.901624,110 334.486764,108.351183 333.158591,105.257783 C331.967733,102.518057 329.976657,101.250311 328.025829,101.24533 C326.077369,101.250311 324.086293,102.518057 322.895435,105.257783 C322.888333,105.270237 322.883598,105.28269 322.878863,105.295143 L322.850453,105.362391 C321.51281,108.388543 319.123992,110 316.694927,110 L316.675987,110 L316.675987,110 C314.216144,110 311.801284,108.351183 310.475479,105.257783 C309.282254,102.518057 307.291178,101.250311 305.342717,101.24533 C303.394257,101.250311 301.403181,102.518057 300.209956,105.257783 C298.884151,108.351183 296.469291,110 294.009448,110 L293.990508,110 L293.990508,110 C291.533033,110 289.118172,108.351183 287.789999,105.257783 C286.599142,102.518057 284.608066,101.250311 282.657238,101.24533 C280.708777,101.250311 278.717702,102.518057 277.526844,105.257783 C277.519742,105.270237 277.515007,105.28269 277.510272,105.295143 L277.481862,105.362391 C276.144218,108.388543 273.757769,110 271.326336,110 L271.307396,110 L271.307396,110 C268.875963,110 266.487146,108.388543 265.15187,105.362391 L265.149503,105.362391 L265.12346,105.297634 C265.116358,105.285181 265.111623,105.270237 265.106888,105.257783 C263.913663,102.518057 261.922587,101.250311 259.974126,101.24533 C258.025666,101.250311 256.03459,102.518057 254.841365,105.257783 C253.515559,108.351183 251.100699,110 248.640857,110 L248.621916,110 L248.621916,110 C246.164441,110 243.749581,108.351183 242.421408,105.257783 C241.230551,102.518057 239.239475,101.250311 237.291014,101.24533 C235.340186,101.250311 233.34911,102.518057 232.158253,105.257783 C230.83008,108.351183 228.41522,110 225.957745,110 L225.938805,110 L225.938805,110 C223.507372,110 221.118555,108.388543 219.783279,105.362391 L219.754869,105.297634 L219.738296,105.257783 L219.738296,105.257783 C218.545071,102.518057 216.553996,101.250311 214.605535,101.24533 C212.657074,101.250311 210.665999,102.518057 209.472774,105.257783 C208.146968,108.351183 205.732108,110 203.272265,110 L203.253325,110 L203.253325,110 C200.79585,110 198.38099,108.351183 197.052817,105.257783 C196.917869,104.946451 197.050449,104.575342 197.348756,104.433375 C197.426883,104.396015 197.509746,104.37858 197.592609,104.37858 C197.817523,104.37858 198.032966,104.513076 198.132401,104.742217 C199.323259,107.481943 201.314335,108.752179 203.262795,108.75467 C205.213623,108.752179 207.204699,107.481943 208.395557,104.742217 L208.400292,104.732254 L208.402659,104.729763 C209.730832,101.646326 212.140957,100 214.596065,100 L214.615005,100 L214.615005,100 Z" id="形状结合"></path>
        </g>
    </g>
</svg>