<?xml version="1.0" encoding="UTF-8"?>
<svg width="88px" height="117px" viewBox="0 0 88 117" version="1.1" xmlns="http://www.w3.org/2000/svg" xmlns:xlink="http://www.w3.org/1999/xlink">
    <!-- Generator: Sketch 61.2 (89653) - https://sketch.com -->
    <title>60</title>
    <desc>Created with Sketch.</desc>
    <g id="页面-1" stroke="none" stroke-width="1" fill="none" fill-rule="evenodd">
        <g id="形状素材" transform="translate(-765.000000, -1274.000000)">
            <g id="60" transform="translate(765.000000, 1274.000000)">
                <path d="M6.67887452,36.3235746 L36.3211255,36.3235746 L36.3211255,6.67642536 L6.67887452,6.67642536 L6.67887452,36.3235746 Z M0,43 L43,43 L43,0 L0,0 L0,43 Z" id="Fill-224" fill="#838383"></path>
                <path d="M68.0012242,79.4484299 C58.3225806,79.4484299 50.4484299,87.3225806 50.4484299,97.0012242 C50.4484299,106.677419 58.3225806,114.55157 68.0012242,114.55157 C77.6798678,114.55157 85.5515701,106.677419 85.5515701,97.0012242 C85.5515701,87.3225806 77.6798678,79.4484299 68.0012242,79.4484299 Z M68.0012242,117 C56.9734957,117 48,108.028953 48,97.0012242 C48,85.9734957 56.9734957,77 68.0012242,77 C79.0289527,77 88,85.9734957 88,97.0012242 C88,108.028953 79.0289527,117 68.0012242,117 L68.0012242,117 Z" id="Fill-341" fill="#838383"></path>
                <path d="M46.5,29.4375172 C28.2698091,29.4375172 13.4375172,44.2698091 13.4375172,62.5024375 C13.4375172,80.7301909 28.2698091,95.5624828 46.5,95.5624828 C64.7301909,95.5624828 79.5624828,80.7301909 79.5624828,62.5024375 C79.5624828,44.2698091 64.7301909,29.4375172 46.5,29.4375172 Z M46.5,98 C26.9242996,98 11,82.0757004 11,62.5024375 C11,42.9242996 26.9242996,27 46.5,27 C66.0732628,27 82,42.9242996 82,62.5024375 C82,82.0757004 66.0732628,98 46.5,98 L46.5,98 Z" id="Fill-514" fill="#FFFFFF"></path>
            </g>
        </g>
    </g>
</svg>