<?xml version="1.0" encoding="UTF-8"?>
<svg width="97px" height="97px" viewBox="0 0 97 97" version="1.1" xmlns="http://www.w3.org/2000/svg" xmlns:xlink="http://www.w3.org/1999/xlink">
    <!-- Generator: Sketch 61.2 (89653) - https://sketch.com -->
    <title>51</title>
    <desc>Created with Sketch.</desc>
    <g id="页面-1" stroke="none" stroke-width="1" fill="none" fill-rule="evenodd">
        <g id="形状素材" transform="translate(-572.000000, -1099.000000)">
            <g id="51" transform="translate(572.000000, 1099.000000)">
                <path d="M73,49.0007014 C73,62.2566418 62.255553,73 48.9985971,73 C35.7458499,73 25,62.2566418 25,49.0007014 C25,35.746164 35.7458499,25 48.9985971,25 C62.255553,25 73,35.746164 73,49.0007014" id="Fill-485" fill="#838383"></path>
                <path d="M48.9986033,9.39667183 C27.1626639,9.39667183 9.39669562,27.1623376 9.39669562,49.0006983 C9.39669562,70.8390591 27.1626639,88.6033282 48.9986033,88.6033282 C70.8373361,88.6033282 88.6033044,70.8390591 88.6033044,49.0006983 C88.6033044,27.1623376 70.8373361,9.39667183 48.9986033,9.39667183 Z M48.9986033,90 C26.391688,90 8,71.6072286 8,49.0006983 C8,26.3927714 26.391688,8 48.9986033,8 C71.6069153,8 90,26.3927714 90,49.0006983 C90,71.6072286 71.6069153,90 48.9986033,90 L48.9986033,90 Z" id="Fill-486" fill="#FFFFFF"></path>
                <path d="M48.4993009,1.3981982 C22.5285181,1.3981982 1.39815789,22.5291676 1.39815789,48.5006991 C1.39815789,74.4722306 22.5285181,95.6018018 48.4993009,95.6018018 C74.4728801,95.6018018 95.6018421,74.4722306 95.6018421,48.5006991 C95.6018421,22.5291676 74.4728801,1.3981982 48.4993009,1.3981982 Z M48.4993009,97 C21.7567349,97 0,75.244036 0,48.5006991 C0,21.7573622 21.7567349,0 48.4993009,0 C75.2418669,0 97,21.7573622 97,48.5006991 C97,75.244036 75.2418669,97 48.4993009,97 L48.4993009,97 Z" id="Fill-487" fill="#FFFFFF"></path>
            </g>
        </g>
    </g>
</svg>