<?xml version="1.0" encoding="UTF-8"?>
<svg width="193px" height="56px" viewBox="0 0 193 56" version="1.1" xmlns="http://www.w3.org/2000/svg" xmlns:xlink="http://www.w3.org/1999/xlink">
    <!-- Generator: Sketch 61.2 (89653) - https://sketch.com -->
    <title>44</title>
    <desc>Created with Sketch.</desc>
    <g id="页面-1" stroke="none" stroke-width="1" fill="none" fill-rule="evenodd">
        <g id="形状素材" transform="translate(-558.000000, -948.000000)">
            <g id="44" transform="translate(560.000000, 949.000000)">
                <path d="M190,46 C184.577867,46 179.440128,43.6894977 175.906184,39.6636225 C174.512187,38.0745814 172.589809,37.2100457 170.474726,37.2100457 C168.361197,37.2115677 166.438819,38.0745814 165.061917,39.6453577 L164.985768,39.7290715 C161.512433,43.6864536 156.374693,45.9969559 150.95256,45.9969559 C145.530427,45.9969559 140.392688,43.6864536 136.858744,39.6575342 C135.470964,38.0791476 133.548585,37.2130898 131.435056,37.2130898 C129.321528,37.2130898 127.397595,38.0776256 126.020694,39.6484018 L125.904139,39.7777778 C122.373303,43.7321157 117.28374,45.9969559 111.914445,45.9969559 C106.490757,45.9954338 101.353018,43.6849315 97.8206282,39.6575342 C96.4359562,38.0791476 94.5120236,37.2146119 92.398495,37.2146119 C90.2834124,37.2146119 88.3610339,38.0791476 86.9825781,39.6499239 C83.4424178,43.6834094 78.3046786,45.9954338 72.8825454,45.9954338 C72.8809913,45.9954338 72.8825454,45.9954338 72.8809913,45.9954338 C67.4573041,45.9939117 62.3195649,43.6834094 58.7856208,39.6544901 C57.4040569,38.0806697 55.4801243,37.2146119 53.3650417,37.2146119 C51.2779323,37.2146119 49.3757566,38.0578387 48.001963,39.5920852 L47.9460167,39.6560122 C44.4105186,43.6834094 39.2743334,45.9939117 33.8506462,45.9939117 C33.8490921,45.9939117 33.8490921,45.9939117 33.8490921,45.9939117 C28.4238508,45.9939117 23.2876656,43.6818874 19.7521675,39.652968 C18.3752658,38.0821918 16.4513332,37.2161339 14.3378047,37.2161339 C12.2227221,37.2161339 10.3003435,38.0806697 8.92188778,39.651446 L4.61246524,36.0243531 L0,32.6392694 L0.240880092,32.3439878 C3.77637821,28.3165906 8.91411745,26.0060883 14.3378047,26.0060883 L14.3393587,26.0060883 C19.7646,26.0060883 24.9007852,28.3181126 28.4347293,32.348554 C29.813185,33.9178082 31.7355636,34.7838661 33.8490921,34.7838661 L33.8506462,34.7838661 C35.9393097,34.7838661 37.8414854,33.9406393 39.2152789,32.4063927 L39.2712253,32.3424658 C42.8051693,28.3150685 47.9429086,26.0045662 53.3650417,26.0045662 L53.3665958,26.0045662 C58.790283,26.0045662 63.9280222,28.3165906 67.4619663,32.3455099 C68.8435302,33.9193303 70.7674628,34.7853881 72.8825454,34.7853881 C74.9960739,34.7853881 76.9184525,33.9193303 78.2969082,32.3500761 C81.8370685,28.3150685 86.9748078,26.0045662 92.398495,26.0045662 C97.8206282,26.0045662 102.958367,28.3150685 106.493866,32.3439878 C107.878538,33.9223744 109.800916,34.7869102 111.914445,34.7869102 C114.027973,34.7869102 115.950352,33.9223744 117.328807,32.3515982 L117.443808,32.2222222 C120.974644,28.2678843 126.065761,26.0030441 131.435056,26.0030441 C131.435056,26.0030441 131.435056,26.0030441 131.436611,26.0030441 C136.858744,26.0030441 141.994929,28.3135464 145.530427,32.3424658 C146.916653,33.9223744 148.839032,34.7869102 150.95256,34.7869102 C153.066089,34.7869102 154.990021,33.9223744 156.366923,32.3531202 L156.443072,32.2678843 C159.916408,28.3105023 165.052593,26.0015221 170.474726,26 C175.896859,26 181.033044,28.3089802 184.568542,32.3363775 C185.962539,33.9254186 187.886471,34.7899543 190,34.7899543 L190,46" id="Fill-5" fill="#838383"></path>
                <path d="M190,20 C184.577867,20 179.440128,17.6908441 175.906184,13.6631403 C174.512187,12.0755004 172.589809,11.2108989 170.474726,11.2108989 C168.361197,11.2108989 166.438819,12.0755004 165.061917,13.644874 L164.985768,13.7301164 C161.512433,17.6877997 156.374693,19.9969556 150.95256,19.9969556 C145.530427,19.9969556 140.392688,17.6862775 136.858744,13.6585737 C135.470964,12.0785448 133.548585,11.2139432 131.435056,11.2139432 C129.321528,11.2139432 127.397595,12.0785448 126.020694,13.6479184 L125.904139,13.7773042 C122.373303,17.7319431 117.28374,19.9969556 111.914445,19.9969556 C106.490757,19.9969556 101.353018,17.6862775 97.8206282,13.6570515 C96.4359562,12.080067 94.5120236,11.2139432 92.398495,11.2139432 C90.2834124,11.2139432 88.3610339,12.080067 86.9825781,13.6494406 C83.4424178,17.6847553 78.3046786,19.9954334 72.8825454,19.9954334 C72.8809913,19.9954334 72.8825454,19.9954334 72.8809913,19.9954334 C67.4573041,19.9954334 62.3195649,17.6847553 58.7856208,13.6555293 C57.4040569,12.080067 55.4801243,11.2139432 53.3650417,11.2139432 C51.2779323,11.2139432 49.3757566,12.0587564 48.001963,13.5915975 L47.9460167,13.6555293 C44.4105186,17.6847553 39.2743334,19.9939113 33.8506462,19.9939113 C33.8490921,19.9939113 33.8490921,19.9939113 33.8490921,19.9939113 C28.4238508,19.9939113 23.2876656,17.6817109 19.7521675,13.652485 C18.3752658,12.0815892 16.4513332,11.2169876 14.3378047,11.2169876 C12.2227221,11.2169876 10.3003435,12.0815892 8.92188778,13.652485 L4.61246524,10.0251161 L0,6.63825253 L0.240880092,6.34447066 C3.77637821,2.31524469 8.91411745,0.00608874344 14.3378047,0.00608874344 L14.3393587,0.00608874344 C19.7646,0.00608874344 24.9007852,2.31828906 28.4347293,6.34751503 C29.813185,7.91841084 31.7355636,8.78301241 33.8490921,8.78301241 L33.8506462,8.78301241 C35.9393097,8.78301241 37.8414854,7.93972144 39.2152789,6.40535809 L39.2712253,6.34294847 C42.8051693,2.31372251 47.9429086,0.00456655758 53.3650417,0.00456655758 L53.3665958,0.00456655758 C58.790283,0.00456655758 63.9280222,2.31524469 67.4619663,6.34447066 C68.8435302,7.91993302 70.7674628,8.78453459 72.8825454,8.78453459 C74.9960739,8.78453459 76.9184525,7.91993302 78.2969082,6.34903722 C81.8370685,2.31372251 86.9748078,0.00456655758 92.398495,0.00456655758 C97.8206282,0.00456655758 102.958367,2.31372251 106.493866,6.34294847 C107.878538,7.92145521 109.800916,8.78605678 111.914445,8.78605678 C114.027973,8.78605678 115.950352,7.92145521 117.328807,6.35208159 L117.443808,6.22269579 C120.974644,2.26805693 126.065761,0.00304437172 131.435056,0.00304437172 C131.435056,0.00304437172 131.435056,0.00304437172 131.436611,0.00304437172 C136.858744,0.00304437172 141.994929,2.31372251 145.530427,6.34142629 C146.916653,7.92145521 148.839032,8.78605678 150.95256,8.78605678 C153.066089,8.78605678 154.990021,7.92145521 156.366923,6.35208159 L156.443072,6.26683918 C159.916408,2.31067813 165.052593,0 170.474726,0 C175.896859,0 181.033044,2.30915595 184.568542,6.33533754 C185.962539,7.92449958 187.886471,8.78910115 190,8.78910115 L190,20 Z" id="Stroke-8" stroke="#FFFFFF" stroke-width="2"></path>
                <path d="M190,54 C184.577867,54 179.440128,51.6908441 175.906184,47.6646625 C174.512187,46.0755004 172.589809,45.2108989 170.474726,45.2108989 C168.361197,45.2108989 166.438819,46.0755004 165.061917,47.644874 L164.985768,47.7301164 C161.512433,51.6877997 156.374693,53.9969556 150.95256,53.9969556 C145.530427,53.9969556 140.392688,51.6877997 136.858744,47.6585737 C135.470964,46.0785448 133.548585,45.2139432 131.435056,45.2139432 C129.321528,45.2139432 127.397595,46.0785448 126.020694,47.6479184 L125.904139,47.7773042 C122.373303,51.7319431 117.28374,53.9969556 111.914445,53.9969556 C106.490757,53.9969556 101.353018,51.6862775 97.8206282,47.6585737 C96.4359562,46.080067 94.5120236,45.2154654 92.398495,45.2154654 C90.2834124,45.2154654 88.3610339,46.080067 86.9825781,47.6494406 C83.4424178,51.6847553 78.3046786,53.9954334 72.8825454,53.9954334 C72.8809913,53.9954334 72.8825454,53.9954334 72.8809913,53.9954334 C67.4573041,53.9954334 62.3195649,51.6847553 58.7856208,47.6555293 C57.4040569,46.080067 55.4801243,45.2154654 53.3650417,45.2154654 C51.2779323,45.2154654 49.3757566,46.0587564 48.001963,47.5931197 L47.9460167,47.6570515 C44.4105186,51.6847553 39.2743334,53.9954334 33.8506462,53.9954334 C33.8490921,53.9954334 33.8490921,53.9954334 33.8490921,53.9954334 C28.4238508,53.9939113 23.2876656,51.6832331 19.7521675,47.652485 C18.3752658,46.0815892 16.4513332,45.2169876 14.3378047,45.2169876 C12.2227221,45.2169876 10.3003435,46.0815892 8.92188778,47.652485 L4.61246524,44.0251161 L0,40.6397747 L0.240880092,40.3444707 C3.77637821,36.3152447 8.91411745,34.0060887 14.3378047,34.0060887 L14.3393587,34.0060887 C19.7646,34.0060887 24.9007852,36.3182891 28.4347293,40.347515 C29.813185,41.9184108 31.7355636,42.7830124 33.8490921,42.7845346 L33.8506462,42.7845346 C35.9393097,42.7845346 37.8414854,41.9412436 39.2152789,40.4068803 L39.2712253,40.3429485 C42.8051693,36.3152447 47.9429086,34.0045666 53.3650417,34.0045666 L53.3665958,34.0045666 C58.790283,34.0045666 63.9280222,36.3152447 67.4619663,40.3444707 C68.8435302,41.919933 70.7674628,42.7845346 72.8825454,42.7845346 C74.9960739,42.7845346 76.9184525,41.919933 78.2969082,40.3490372 C81.8370685,36.3152447 86.9748078,34.0045666 92.398495,34.0045666 C97.8206282,34.0045666 102.958367,36.3152447 106.493866,40.3444707 C107.878538,41.9214552 109.800916,42.7860568 111.914445,42.7860568 C114.027973,42.7860568 115.950352,41.9229774 117.328807,40.3520816 L117.443808,40.2226958 C120.974644,36.2680569 126.065761,34.0030444 131.435056,34.0030444 C131.435056,34.0030444 131.435056,34.0030444 131.436611,34.0030444 C136.858744,34.0030444 141.994929,36.3137225 145.530427,40.3414263 C146.916653,41.9214552 148.839032,42.7860568 150.95256,42.7860568 C153.066089,42.7860568 154.990021,41.9229774 156.366923,40.3520816 L156.443072,40.2683614 C159.916408,36.3106781 165.052593,34 170.474726,34 C175.896859,34 181.033044,36.3091559 184.568542,40.3353375 C185.962539,41.9244996 187.886471,42.7891011 190,42.7891011 L190,54 Z" id="Stroke-9" stroke="#FFFFFF"></path>
            </g>
        </g>
    </g>
</svg>