<?xml version="1.0" encoding="UTF-8"?>
<svg width="113px" height="85px" viewBox="0 0 113 85" version="1.1" xmlns="http://www.w3.org/2000/svg" xmlns:xlink="http://www.w3.org/1999/xlink">
    <!-- Generator: Sketch 61.2 (89653) - https://sketch.com -->
    <title>编组</title>
    <desc>Created with Sketch.</desc>
    <g id="页面-1" stroke="none" stroke-width="1" fill="none" fill-rule="evenodd">
        <g id="形状素材" transform="translate(-1040.000000, -751.000000)">
            <g id="编组" transform="translate(1040.000000, 751.000000)">
                <path d="M84.783,42.669 C84.783,66.047 65.831,84.999 42.452,84.999 C19.074,84.999 0.122,66.047 0.122,42.669 C0.122,19.29 19.074,0.338 42.452,0.338 C65.831,0.338 84.783,19.29 84.783,42.669" id="Fill-6" fill="#838383"></path>
                <path d="M74.386,81.677 C75.183536,81.677 75.7456677,82.0417463 76.0727024,82.5562364 C74.9294551,82.6624245 73.7731437,82.7188819 72.6051716,82.7261866 C72.9113776,82.1229909 73.5054066,81.677 74.386,81.677 Z M66.563,73.295 C69.269,73.295 69.265,77.494 66.563,77.494 C63.856,77.494 63.861,73.295 66.563,73.295 Z M80.533,72.736 C83.239,72.736 83.235,76.935 80.533,76.935 C77.826,76.935 77.831,72.736 80.533,72.736 Z M92.826,67.707 C95.533,67.707 95.528,71.906 92.826,71.906 C90.12,71.906 90.124,67.707 92.826,67.707 Z M43.652,67.707 C46.0316317,67.707 46.3155463,70.9518069 44.5139332,71.7366218 C43.5611841,70.8451881 42.6524822,69.9093797 41.7899555,68.931862 C42.0661327,68.2425867 42.687,67.707 43.652,67.707 Z M53.711,67.148 C56.417,67.148 56.413,71.347 53.711,71.347 C51.004,71.347 51.009,67.148 53.711,67.148 Z M68.798,63.236 C71.505,63.236 71.5,67.436 68.798,67.436 C66.092,67.436 66.096,63.236 68.798,63.236 Z M78.856,58.766 C81.563,58.766 81.558,62.965 78.856,62.965 C76.15,62.965 76.154,58.766 78.856,58.766 Z M102.884,57.649 C105.591,57.649 105.586,61.848 102.884,61.848 C100.178,61.848 100.183,57.649 102.884,57.649 Z M43.652,55.972 C46.359,55.972 46.354,60.171 43.652,60.171 C40.946,60.171 40.95,55.972 43.652,55.972 Z M63.21,53.737 C65.917,53.737 65.912,57.936 63.21,57.936 C60.504,57.936 60.508,53.737 63.21,53.737 Z M33.594,52.619 C36.0204718,52.619 36.2679086,55.9961022 34.3449626,56.6938075 C33.8389358,55.3894122 33.3994182,54.0533565 33.0290409,52.6888465 C33.2020653,52.6428538 33.390371,52.619 33.594,52.619 Z M91.15,52.061 C93.856,52.061 93.852,56.26 91.15,56.26 C88.443,56.26 88.448,52.061 91.15,52.061 Z M52.593,50.943 C53.77,50.943 54.642,51.905 54.693,53.043 C54.7408261,54.1267391 53.7803951,55.0576843 52.7358697,55.1365874 L52.593,55.142 L52.034,55.142 C50.857,55.142 49.986,54.18 49.935,53.043 C49.8862174,51.9583043 50.8466068,51.0273176 51.8911304,50.9484127 L52.034,50.943 L52.593,50.943 Z M72.151,50.384 C74.857,50.384 74.853,54.583 72.151,54.583 C69.444,54.583 69.449,50.384 72.151,50.384 Z M112.374181,49.5822091 L112.317272,49.8827755 C112.040904,51.2907161 111.691998,52.6726541 111.274606,54.024537 L111.266,54.025 C110.182261,54.0728261 109.251316,53.1123951 109.172413,52.0678697 L109.167,51.925 L109.167,51.366 C109.167,50.189 110.129,49.318 111.266,49.267 C111.668441,49.2489008 112.049724,49.3697184 112.374181,49.5822091 Z M93.944,44.237 C96.65,44.237 96.646,48.437 93.944,48.437 C91.237,48.437 91.242,44.237 93.944,44.237 Z M105.678,40.885 C108.385,40.885 108.38,45.084 105.678,45.084 C102.972,45.084 102.977,40.885 105.678,40.885 Z M77.739,40.326 C80.445,40.326 80.441,44.525 77.739,44.525 C75.032,44.525 75.037,40.326 77.739,40.326 Z M53.152,39.208 C55.858,39.208 55.854,43.407 53.152,43.407 C50.445,43.407 50.45,39.208 53.152,39.208 Z M67.68,35.297 C68.858,35.297 69.729,36.259 69.78,37.396 C69.8287826,38.4806957 68.8683932,39.4116824 67.8229945,39.4905873 L67.68,39.496 L67.122,39.496 C65.945,39.496 65.073,38.534 65.022,37.396 C64.9732174,36.3113043 65.9336068,35.3812325 66.9790055,35.3024072 L67.122,35.297 L67.68,35.297 Z M88.356,34.179 C89.533,34.179 90.404,35.141 90.455,36.279 C90.5037826,37.3636957 89.5433932,38.2937675 88.4988696,38.3725928 L88.356,38.378 L87.797,38.378 C86.62,38.378 85.748,37.416 85.697,36.279 C85.6491739,35.1943043 86.6096049,34.2633176 87.6541303,34.1844127 L87.797,34.179 L88.356,34.179 Z M111.825,34.179 C112.010567,34.179 112.183389,34.1987319 112.343473,34.2354906 C112.587996,35.5042245 112.773563,36.7927632 112.897421,38.0992799 C112.606602,38.2745995 112.249008,38.378 111.825,38.378 C109.119,38.378 109.123,34.179 111.825,34.179 Z M33.035,33.62 C35.742,33.62 35.737,37.82 33.035,37.82 C32.5585087,37.82 32.1660453,37.6897722 31.8575444,37.4751795 C31.9988206,36.1949358 32.1992481,34.9332449 32.4561316,33.6922125 C32.6329368,33.6451555 32.8258887,33.62 33.035,33.62 Z M47.005,33.62 C49.712,33.62 49.707,37.82 47.005,37.82 C44.299,37.82 44.303,33.62 47.005,33.62 Z M106.654593,31.1070055 L106.66,31.25 L106.66,31.808 C106.66,32.985 105.698,33.857 104.561,33.908 C103.476304,33.9567826 102.545318,32.9963932 102.466413,31.9509945 L102.461,31.808 L102.461,31.25 C102.461,30.073 103.423,29.201 104.561,29.15 C105.645696,29.1012174 106.575767,30.0616068 106.654593,31.1070055 Z M78.298,26.915 C81.004,26.915 81,31.114 78.298,31.114 C75.591,31.114 75.596,26.915 78.298,26.915 Z M41.417,24.68 C42.594,24.68 43.466,25.642 43.517,26.779 C43.5657826,27.8636957 42.6044783,28.7946824 41.5598752,28.8735873 L41.417,28.879 L40.858,28.879 C39.681,28.879 38.81,27.917 38.759,26.779 C38.7102174,25.6943043 39.6706068,24.7642325 40.7151304,24.6854072 L40.858,24.68 L41.417,24.68 Z M87.238,24.121 C89.945,24.121 89.94,28.32 87.238,28.32 C84.532,28.32 84.536,24.121 87.238,24.121 Z M58.74,23.562 C61.446,23.562 61.442,27.761 58.74,27.761 C56.033,27.761 56.038,23.562 58.74,23.562 Z M96.179,20.209 C98.885,20.209 98.881,24.408 96.179,24.408 C93.473,24.408 93.477,20.209 96.179,20.209 Z M102.884,20.209 C105.591,20.209 105.586,24.408 102.884,24.408 C100.178,24.408 100.183,20.209 102.884,20.209 Z M72.71,15.18 C75.416,15.18 75.412,19.379 72.71,19.379 C70.003,19.379 70.008,15.18 72.71,15.18 Z M86.121,14.063 C88.827,14.063 88.823,18.262 86.121,18.262 C83.414,18.262 83.419,14.063 86.121,14.063 Z M62.093,12.945 C64.799,12.945 64.794,17.144 62.093,17.144 C59.386,17.144 59.391,12.945 62.093,12.945 Z M52.034,10.71 C54.741,10.71 54.736,14.909 52.034,14.909 C49.328,14.909 49.332,10.71 52.034,10.71 Z M94.503,10.151 C95.68,10.151 96.551,11.113 96.602,12.251 C96.6507826,13.3347391 95.6903932,14.2656843 94.6458696,14.3445874 L94.503,14.35 L93.944,14.35 C92.767,14.35 91.895,13.388 91.844,12.251 C91.7952174,11.1663043 92.7565217,10.2353176 93.8011248,10.1564127 L93.944,10.151 L94.503,10.151 Z M75.504,5.122 C78.21,5.122 78.206,9.321 75.504,9.321 C72.797,9.321 72.802,5.122 75.504,5.122 Z M65.445,5.968 C63.1512769,5.968 62.8046871,2.95102126 64.3979221,2.03170805 C64.8436736,1.94266888 65.291916,1.86180971 65.7426426,1.78834779 C68.1476807,2.08374223 68.0437615,5.968 65.445,5.968 Z M84.6856311,3.15953949 L85.220776,3.332736 C86.1680579,3.64808094 87.099877,3.99726912 88.014799,4.37886646 C87.6862845,4.66931749 87.2409753,4.851 86.679,4.851 C85.5024783,4.851 84.8384329,4.05704915 84.6856311,3.15953949 Z" id="形状结合" fill="#FFFFFF"></path>
            </g>
        </g>
    </g>
</svg>