<?xml version="1.0" encoding="UTF-8"?>
<svg width="58px" height="54px" viewBox="0 0 58 54" version="1.1" xmlns="http://www.w3.org/2000/svg" xmlns:xlink="http://www.w3.org/1999/xlink">
    <!-- Generator: Sketch 61.2 (89653) - https://sketch.com -->
    <title>编组 10</title>
    <desc>Created with Sketch.</desc>
    <g id="页面-1" stroke="none" stroke-width="1" fill="none" fill-rule="evenodd">
        <g id="形状素材" transform="translate(-888.000000, -580.000000)">
            <g id="编组-10" transform="translate(888.000000, 580.000000)">
                <path d="M47.2634327,3.36572357 C51.2812047,5.3433307 54.9575975,8.17790093 58,11.8487165 L52.1384045,16.7512987 C43.2550392,6.03831835 27.3508893,4.58053938 16.6818476,13.4967224 C6.0146816,22.4166723 4.56100591,38.3863208 13.4424954,49.1011846 L7.57902421,54 C-3.99410999,40.0418605 -2.09964232,19.2317831 11.8012487,7.61098689 C22.0463798,-0.954877168 35.9997907,-2.17345985 47.2634327,3.36572357" id="Fill-33" fill="#FFFFFF"></path>
                <path d="M31.0796093,31.2203661 C34.8260889,27.9518634 40.5106028,28.3367344 43.7812775,32.0790733 C47.0480839,35.8252801 46.6631849,41.5093803 42.9186395,44.779817 C39.1740941,48.0483196 33.487646,47.6634486 30.2189054,43.9191757 C26.952099,40.1749029 27.3369981,34.4888687 31.0796093,31.2203661 Z" id="Fill-34" fill="#838383"></path>
            </g>
        </g>
    </g>
</svg>