<?xml version="1.0" encoding="UTF-8"?>
<svg width="111px" height="94px" viewBox="0 0 111 94" version="1.1" xmlns="http://www.w3.org/2000/svg" xmlns:xlink="http://www.w3.org/1999/xlink">
    <!-- Generator: Sketch 61.2 (89653) - https://sketch.com -->
    <title>形状结合</title>
    <desc>Created with Sketch.</desc>
    <g id="页面-1" stroke="none" stroke-width="1" fill="none" fill-rule="evenodd">
        <g id="形状素材" transform="translate(-233.000000, -576.000000)" fill="#FFFFFF">
            <path d="M240,656 L247,663.002798 L240,670 L233,663.002798 L240,656 Z M259.001399,656 L266,663.002798 L259.001399,670 L252,663.002798 L259.001399,656 Z M279.001399,656 L286,663.002798 L279.001399,670 L272,663.002798 L279.001399,656 Z M298.001399,656 L305,663.002798 L298.001399,670 L291,663.002798 L298.001399,656 Z M318.001399,656 L325,663.002798 L318.001399,670 L311,663.002798 L318.001399,656 Z M337.001399,656 L344,663.002798 L337.001399,670 L330,663.002798 L337.001399,656 Z M240,636 L247,642.998601 L240,650 L233,642.998601 L240,636 Z M259.001399,636 L266,642.998601 L259.001399,650 L252,642.998601 L259.001399,636 Z M279.001399,636 L286,642.998601 L279.001399,650 L272,642.998601 L279.001399,636 Z M298.001399,636 L305,642.998601 L298.001399,650 L291,642.998601 L298.001399,636 Z M318.001399,636 L325,642.998601 L318.001399,650 L311,642.998601 L318.001399,636 Z M337.001399,636 L344,642.998601 L337.001399,650 L330,642.998601 L337.001399,636 Z M240,616 L247,623 L240,630 L233,623 L240,616 Z M259.001399,616 L266,623 L259.001399,630 L252,623 L259.001399,616 Z M279.001399,616 L286,623 L279.001399,630 L272,623 L279.001399,616 Z M298.001399,616 L305,623 L298.001399,630 L291,623 L298.001399,616 Z M318.001399,616 L325,623 L318.001399,630 L311,623 L318.001399,616 Z M337.001399,616 L344,623 L337.001399,630 L330,623 L337.001399,616 Z M240,596 L247,603.001399 L240,610 L233,603.001399 L240,596 Z M259.001399,596 L266,603.001399 L259.001399,610 L252,603.001399 L259.001399,596 Z M279.001399,596 L286,603.001399 L279.001399,610 L272,603.001399 L279.001399,596 Z M298.001399,596 L305,603.001399 L298.001399,610 L291,603.001399 L298.001399,596 Z M318.001399,596 L325,603.001399 L318.001399,610 L311,603.001399 L318.001399,596 Z M337.001399,596 L344,603.001399 L337.001399,610 L330,603.001399 L337.001399,596 Z M240,576 L247,582.998601 L240,590 L233,582.998601 L240,576 Z M259.001399,576 L266,582.998601 L259.001399,590 L252,582.998601 L259.001399,576 Z M279.001399,576 L286,582.998601 L279.001399,590 L272,582.998601 L279.001399,576 Z M298.001399,576 L305,582.998601 L298.001399,590 L291,582.998601 L298.001399,576 Z M318.001399,576 L325,582.998601 L318.001399,590 L311,582.998601 L318.001399,576 Z M337.001399,576 L344,582.998601 L337.001399,590 L330,582.998601 L337.001399,576 Z" id="形状结合"></path>
        </g>
    </g>
</svg>