<?xml version="1.0" encoding="UTF-8"?>
<svg width="37px" height="74px" viewBox="0 0 37 74" version="1.1" xmlns="http://www.w3.org/2000/svg" xmlns:xlink="http://www.w3.org/1999/xlink">
    <!-- Generator: Sketch 61.2 (89653) - https://sketch.com -->
    <title>形状结合</title>
    <desc>Created with Sketch.</desc>
    <g id="页面-1" stroke="none" stroke-width="1" fill="none" fill-rule="evenodd">
        <g id="形状素材" transform="translate(-1306.000000, -586.000000)" fill="#FFFFFF">
            <path d="M1321,657 C1316.70295,658.927711 1311.9725,660 1307,660 L1307,660 L1307,657 Z M1332,650 C1330.90466,651.070433 1329.73551,652.068885 1328.5092,653 L1328.5092,653 L1306,653 L1306,650 Z M1338,642 C1337.41767,643.033282 1336.78449,644.034056 1336.10742,645 L1336.10742,645 L1307,645 L1307,642 Z M1342,634 C1341.69968,635.01935 1341.35444,636.020124 1340.96662,637 L1340.96662,637 L1307,637 L1307,634 Z M1343,626 C1342.93444,627.012384 1342.83143,628.013158 1342.68392,629 L1342.68392,629 L1307,629 L1307,626 Z M1342.68392,618 C1342.83143,618.986842 1342.93444,619.989938 1343,621 L1343,621 L1307,621 L1307,618 Z M1340.96662,610 C1341.35444,610.981439 1341.69968,611.979118 1342,613 L1342,613 L1307,613 L1307,610 Z M1336.10742,602 C1336.78449,602.965944 1337.41767,603.966718 1338,605 L1338,605 L1307,605 L1307,602 Z M1328.5092,594 C1329.73551,594.928793 1330.90466,595.927245 1332,597 L1332,597 L1306,597 L1306,594 Z M1307,586 C1311.9725,586 1316.70295,587.072289 1321,589 L1321,589 L1307,589 Z" id="形状结合"></path>
        </g>
    </g>
</svg>