<?xml version="1.0" encoding="UTF-8"?>
<svg width="139px" height="106px" viewBox="0 0 139 106" version="1.1" xmlns="http://www.w3.org/2000/svg" xmlns:xlink="http://www.w3.org/1999/xlink">
    <!-- Generator: Sketch 61.2 (89653) - https://sketch.com -->
    <title>52</title>
    <desc>Created with Sketch.</desc>
    <g id="页面-1" stroke="none" stroke-width="1" fill="none" fill-rule="evenodd">
        <g id="形状素材" transform="translate(-710.000000, -1095.000000)">
            <g id="52" transform="translate(710.000000, 1095.000000)">
                <path d="M139,46.5 C139,72.1808227 118.180823,93 92.5,93 C66.8191773,93 46,72.1808227 46,46.5 C46,20.8191773 66.8191773,0 92.5,0 C118.180823,0 139,20.8191773 139,46.5" id="Fill-324" fill="#838383"></path>
                <path d="M54.5024315,101 C55.8751224,101 57,102.123241 57,103.498787 C57,104.886463 55.8751224,106 54.5024315,106 C53.1127339,106 51.9975744,104.886463 52,103.498787 C51.9975744,102.123241 53.1127339,101 54.5024315,101 Z M48.2638205,90 C49.5051998,90 50.5123153,91.1262136 50.5079507,92.4975728 C50.5123153,93.8859223 49.5051998,95 48.2681992,95 C47.0136836,95 46,93.8907767 46,92.4975728 C46.0021894,91.1262136 47.0136836,90 48.2638205,90 Z M59.7449371,90 C60.9863164,90 62,91.1262136 62,92.4975728 C62,93.8859223 60.9863164,95 59.7449371,95 C58.4948002,95 57.4920635,93.8907767 57.4920635,92.4975728 C57.4920635,91.1262136 58.4948002,90 59.7449371,90 Z M71.7387496,78 C72.9811226,78.0048497 73.9978089,79.1275461 74,80.5 C74,81.8870029 72.9811226,82.9951503 71.7431318,83 C70.487612,83 69.484069,81.8821532 69.484069,80.5 C69.4818814,79.1275461 70.4898031,78.0048497 71.7387496,78 Z M48.762517,78 C50.0005078,78.0048497 51.0062384,79.1275461 51.0084295,80.5 C51.0084295,81.8870029 50.0005078,83 48.762517,83 C47.5069972,83 46.5012666,81.8821532 46.5012666,80.5 C46.5012666,79.1275461 47.504806,78.0048497 48.762517,78 Z M37.2590628,78 C38.5123916,78.0048497 39.515931,79.1275461 39.515931,80.5 C39.515931,81.8821532 38.5123916,82.9951503 37.2568717,83 C36.0166898,82.9951503 35,81.8821532 35,80.5 C34.9978124,79.1275461 36.0144986,78 37.2590628,78 Z M60.2484422,78.0048497 C61.4886241,78.0048497 62.5053103,79.1275461 62.5053103,80.5 C62.5053103,81.8821532 61.4908152,83 60.2484422,82.9951661 C58.9973046,82.9951661 57.9937616,81.8870029 57.9937616,80.5 C57.991574,79.1275461 58.9973046,78.0048497 60.2484422,78.0048497 Z M71.2480379,65.0048497 C72.4864597,65.0048497 73.5078838,66.1129971 73.5078838,67.5048497 C73.5056919,68.8724539 72.4886516,69.9951503 71.2480379,70 C69.9964647,69.9951503 68.988192,68.8724539 68.988192,67.5048497 C68.988192,66.1129971 69.9920809,65.0048497 71.2480379,65.0048497 Z M82.7401541,65 C83.9829598,65.0048497 84.9956162,66.1129971 85,67.5 C84.9956162,68.8724539 83.9829598,69.9951503 82.7401541,69.9951503 C81.5017323,69.9951503 80.4825002,68.8724539 80.4825002,67.5 C80.4825002,66.1129971 81.4995404,65.0048497 82.7401541,65 Z M59.7515379,65.0048497 C60.9943435,65.0048497 62.0091918,66.1129971 62.0091918,67.5048497 C62.0091918,68.8773036 60.9921516,69.9951503 59.7515379,69.9951503 C58.4999646,69.9951503 57.4938839,68.8724539 57.4938839,67.5 C57.4938839,66.1154219 58.4999646,65.0048497 59.7515379,65.0048497 Z M48.2616135,65.0048497 C49.5000354,65.0048497 50.5170756,66.1154219 50.5170756,67.5 C50.5170756,68.8724539 49.5000354,70 48.2616135,69.9951659 C47.0034646,69.9951659 46.0017641,68.8724539 46.0017641,67.5 C45.9995758,66.1129971 47.0034646,65.0048497 48.2616135,65.0048497 Z M36.754154,65.0048497 C38.0079191,65.0048497 39.011808,66.1129971 39.011808,67.5 C39.011808,68.8724539 38.0079191,69.9951503 36.754154,69.9951503 C35.5113484,69.9951503 34.4921162,68.8724539 34.4921162,67.5048497 C34.4921162,66.1129971 35.5091565,65.0048497 36.754154,65.0048497 Z M25.2598459,65.0048339 C26.513611,65.0048339 27.5174998,66.1129971 27.5174998,67.5 C27.5174998,68.8724539 26.513611,69.9951503 25.257654,69.9951503 C24.0170402,69.9951503 23.0021919,68.8724539 23,67.5048497 C23,66.1129971 24.0170402,65 25.2598459,65.0048339 Z M94.7132029,53 C95.9841386,53 97,54.1237864 97,55.4975728 C97,56.8859223 95.9841386,58 94.7132029,58 C93.4555753,58 92.4286238,56.8859223 92.4286238,55.4975728 C92.4286238,54.1237864 93.4555753,53 94.7132029,53 Z M83.0818118,53 C84.3505295,53 85.3641873,54.1237864 85.3641873,55.5024272 C85.3686089,56.8859223 84.3505295,58 83.0818118,58 C81.8241843,58 80.7972327,56.8859223 80.7972327,55.4975728 C80.7972327,54.1237864 81.8286204,53 83.0818118,53 Z M71.4504208,53 C72.7080483,53 73.7372179,54.1237864 73.7372179,55.4975728 C73.7372179,56.8859223 72.7102663,58 71.4526388,58 C70.179485,58 69.1636236,56.8859223 69.165838,55.4975728 C69.165838,54.1237864 70.1861391,53 71.4504208,53 Z M48.1920747,53 C49.4452662,53 50.4744358,54.1237864 50.4744358,55.4975728 C50.4744358,56.8859223 49.4452662,58 48.1876386,58 C46.9189209,58 45.8941874,56.8859223 45.8941874,55.4975728 C45.8941874,54.1237864 46.9189209,53 48.1920747,53 Z M36.5473754,53 C37.8160931,53 38.8319545,54.1237864 38.8319545,55.4975728 C38.8319545,56.8859223 37.8160931,58 36.5473754,58 C35.2875299,58 34.2583603,56.8859223 34.2583603,55.4975728 C34.2583603,54.1237864 35.2897479,53 36.5473754,53 Z M24.9159844,53 C26.1847021,53 27.2005635,54.1237864 27.2005635,55.4975728 C27.2005635,56.8859223 26.1847021,58 24.9159844,58 C23.6583569,58 22.6291872,56.8859223 22.6314017,55.4975728 C22.6291872,54.1237864 23.6583569,53 24.9159844,53 Z M13.2845933,53 C14.553311,53 15.5691724,54.1237864 15.5736085,55.4975728 C15.5736085,56.8859223 14.553311,58 13.2845933,58 C12.0291838,58 11,56.8859223 11,55.4975728 C10.9955782,54.1237864 12.0291838,53 13.2845933,53 Z M59.8190297,53 C61.0744392,53 62.1036088,54.1237864 62.1058268,55.4975728 C62.1036088,56.8859223 61.0744392,58 59.8190297,58 C58.55253,58 57.5344506,56.8859223 57.5344506,55.4975728 C57.5344506,54.1237864 58.55253,53 59.8190297,53 Z M25.4859211,42.0048269 C26.7515876,42.0048269 27.7650059,43.1162228 27.7650059,44.5012107 C27.7650059,45.874092 26.7515876,46.9951574 25.4859211,47 C24.2313181,46.9951574 23.2046236,45.874092 23.2046236,44.5012107 C23.2068363,43.1162228 24.2313181,42 25.4859211,42.0048269 Z M106.734188,42.0048269 C107.986578,42.0048269 109.002209,43.1162228 109,44.5012107 C109.002209,45.874092 107.984365,46.9951574 106.731975,46.9951574 C105.464096,46.9951574 104.439614,45.874092 104.439614,44.5012107 C104.439614,43.1162228 105.464096,42 106.734188,42.0048269 Z M95.1152807,42.0048269 C96.38316,42.0048269 97.3965782,43.1162228 97.3965782,44.5012107 C97.3965782,45.874092 96.38316,46.9903148 95.1152807,46.9951574 C93.8606778,46.9951574 92.8361959,45.874092 92.8361959,44.5012107 C92.8361959,43.1162228 93.8606778,42 95.1152807,42.0048269 Z M83.5118626,42.0048426 C84.7775291,42.0048426 85.7887347,43.1162228 85.7887347,44.5012107 C85.7887347,45.874092 84.7775291,46.9951574 83.5118626,46.9951574 C82.261685,46.9951574 81.2327742,45.874092 81.2327742,44.5012107 C81.2305651,43.1162228 82.2594723,42.0048426 83.5118626,42.0048426 Z M71.9106572,42.0048426 C73.1630475,42.0096852 74.1919547,43.1162228 74.1897455,44.5012107 C74.1897455,45.874092 73.1630475,46.9951574 71.9084445,46.9951574 C70.6472034,46.9951574 69.6293597,45.874092 69.6293597,44.5012107 C69.6293597,43.1162228 70.642778,42.0048426 71.9106572,42.0048426 Z M60.3050263,42.0048269 C61.5574166,42 62.5841111,43.1162228 62.5841111,44.5012107 C62.5841111,45.874092 61.5596293,46.9903148 60.3050263,46.9951574 C59.0415725,46.9951574 58.0259415,45.874092 58.0259415,44.5012107 C58.0281542,43.1162228 59.0415725,42.0048269 60.3050263,42.0048269 Z M48.6905447,42.0048426 C49.9562112,42.0048426 50.9829057,43.1162228 50.9829057,44.5012107 C50.9829057,45.874092 49.9562112,46.9951574 48.6927574,46.9951574 C47.4359417,46.9951574 46.4225234,45.874092 46.4247325,44.5012107 C46.4225234,43.1162228 47.4359417,42.0048426 48.6905447,42.0048426 Z M37.0893392,42 C38.3505803,42.0048426 39.368424,43.1162228 39.368424,44.5012107 C39.368424,45.874092 38.3550057,46.9951574 37.0893392,46.9951574 C35.8325235,46.9903148 34.805829,45.874092 34.805829,44.5012107 C34.805829,43.1162228 35.8325235,42.0048426 37.0893392,42 Z M13.8825029,42.0048426 C15.1481695,42.0048426 16.1660131,43.1162228 16.1660131,44.5012107 C16.1615877,45.874092 15.1481695,46.9951574 13.8825029,46.9951574 C12.6168364,46.9951574 11.6034181,45.874092 11.6034181,44.5012107 C11.6034181,43.1162228 12.6212618,42.0048426 13.8825029,42.0048426 Z M2.2768721,42.0048426 C3.53368779,42.0048426 4.55596046,43.1162228 4.55596046,44.5012107 C4.5581696,45.874092 3.53147509,46.9951574 2.2768721,46.9951574 C1.01341829,46.9951574 2.20268248e-13,45.874092 2.20268248e-13,44.5012107 C2.20268248e-13,43.1162228 1.01341829,42.0048426 2.2768721,42.0048426 Z" id="形状结合" fill="#FFFFFF"></path>
            </g>
        </g>
    </g>
</svg>