<?xml version="1.0" encoding="UTF-8"?>
<svg width="116px" height="116px" viewBox="0 0 116 116" version="1.1" xmlns="http://www.w3.org/2000/svg" xmlns:xlink="http://www.w3.org/1999/xlink">
    <!-- Generator: Sketch 61.2 (89653) - https://sketch.com -->
    <title>61</title>
    <desc>Created with Sketch.</desc>
    <g id="页面-1" stroke="none" stroke-width="1" fill="none" fill-rule="evenodd">
        <g id="形状素材" transform="translate(-906.000000, -1274.000000)">
            <g id="61" transform="translate(906.000000, 1274.000000)">
                <path d="M104,58.5006736 C104,83.6301834 83.6280922,104 58.4993264,104 C33.3705606,104 13,83.6301834 13,58.5006736 C13,33.3711638 33.3705606,13 58.4993264,13 C83.6280922,13 104,33.3711638 104,58.5006736" id="Fill-4" fill="#838383"></path>
                <path d="M57.9993282,1.34363453 C26.7598253,1.34363453 1.34363453,26.7598253 1.34363453,58.0006718 C1.34363453,89.2401747 26.7598253,114.656365 57.9993282,114.656365 C89.2401747,114.656365 114.656365,89.2401747 114.656365,58.0006718 C114.656365,26.7598253 89.2401747,1.34363453 57.9993282,1.34363453 Z M57.9993282,116 C26.0181391,116 0,89.9818609 0,58.0006718 C0,26.0181391 26.0181391,0 57.9993282,0 C89.9805173,0 116,26.0181391 116,58.0006718 C116,89.9818609 89.9805173,116 57.9993282,116 L57.9993282,116 Z" id="Fill-9" fill="#FFFFFF"></path>
                <polyline id="Fill-352" fill="#FFFFFF" points="97 43 44 43 70.497984 4 97 43"></polyline>
            </g>
        </g>
    </g>
</svg>