<?xml version="1.0" encoding="UTF-8"?>
<svg width="91px" height="91px" viewBox="0 0 91 91" version="1.1" xmlns="http://www.w3.org/2000/svg" xmlns:xlink="http://www.w3.org/1999/xlink">
    <!-- Generator: Sketch 61.2 (89653) - https://sketch.com -->
    <title>形状结合</title>
    <desc>Created with Sketch.</desc>
    <g id="页面-1" stroke="none" stroke-width="1" fill="none" fill-rule="evenodd">
        <g id="形状素材" transform="translate(-52.000000, -89.000000)" fill="#FFFFFF">
            <path d="M53.2082648,177.584468 C53.874756,177.584468 54.4155319,178.125244 54.4155319,178.791735 C54.4155319,179.459224 53.874756,180 53.2082648,180 C52.5407758,180 52,179.459224 52,178.791735 C52,178.125244 52.5407758,177.584468 53.2082648,177.584468 Z M61.2610355,177.584468 C61.9275267,177.584468 62.4693003,178.125244 62.4693003,178.791735 C62.4693003,179.459224 61.9275267,180 61.2610355,180 C60.5935465,180 60.0527707,179.459224 60.0527707,178.791735 C60.0527707,178.125244 60.5935465,177.584468 61.2610355,177.584468 Z M69.3138061,177.584468 C69.9812951,177.584468 70.5220709,178.125244 70.5220709,178.791735 C70.5220709,179.459224 69.9812951,180 69.3138061,180 C68.6473149,180 68.1055413,179.459224 68.1055413,178.791735 C68.1055413,178.125244 68.6473149,177.584468 69.3138061,177.584468 Z M77.3675745,177.584468 C78.0340657,177.584468 78.5748416,178.125244 78.5748416,178.791735 C78.5748416,179.459224 78.0340657,180 77.3675745,180 C76.7000855,180 76.1593097,179.459224 76.1593097,178.791735 C76.1593097,178.125244 76.7000855,177.584468 77.3675745,177.584468 Z M85.4203452,177.584468 C86.0868364,177.584468 86.62861,178.125244 86.62861,178.791735 C86.62861,179.459224 86.0868364,180 85.4203452,180 C84.7528562,180 84.2120803,179.459224 84.2120803,178.791735 C84.2120803,178.125244 84.7528562,177.584468 85.4203452,177.584468 Z M93.4731158,177.584468 C94.1406048,177.584468 94.6813806,178.125244 94.6813806,178.791735 C94.6813806,179.459224 94.1406048,180 93.4731158,180 C92.8066246,180 92.264851,179.459224 92.264851,178.791735 C92.264851,178.125244 92.8066246,177.584468 93.4731158,177.584468 Z M101.525886,177.584468 C102.193375,177.584468 102.734151,178.125244 102.734151,178.791735 C102.734151,179.459224 102.193375,180 101.525886,180 C100.859395,180 100.318619,179.459224 100.318619,178.791735 C100.318619,178.125244 100.859395,177.584468 101.525886,177.584468 Z M109.579655,177.584468 C110.247144,177.584468 110.786922,178.125244 110.786922,178.791735 C110.786922,179.459224 110.247144,180 109.579655,180 C108.912166,180 108.37139,179.459224 108.37139,178.791735 C108.37139,178.125244 108.912166,177.584468 109.579655,177.584468 Z M117.632425,177.584468 C118.299914,177.584468 118.84069,178.125244 118.84069,178.791735 C118.84069,179.459224 118.299914,180 117.632425,180 C116.965934,180 116.424161,179.459224 116.424161,178.791735 C116.424161,178.125244 116.965934,177.584468 117.632425,177.584468 Z M125.685196,177.584468 C126.352685,177.584468 126.893461,178.125244 126.893461,178.791735 C126.893461,179.459224 126.352685,180 125.685196,180 C125.018705,180 124.477929,179.459224 124.477929,178.791735 C124.477929,178.125244 125.018705,177.584468 125.685196,177.584468 Z M133.738965,177.584468 C134.405456,177.584468 134.946232,178.125244 134.946232,178.791735 C134.946232,179.459224 134.405456,180 133.738965,180 C133.071476,180 132.5307,179.459224 132.5307,178.791735 C132.5307,178.125244 133.071476,177.584468 133.738965,177.584468 Z M141.791735,177.584468 C142.459224,177.584468 143,178.125244 143,178.791735 C143,179.459224 142.459224,180 141.791735,180 C141.125244,180 140.58347,179.459224 140.58347,178.791735 C140.58347,178.125244 141.125244,177.584468 141.791735,177.584468 Z M53.2082648,169.5307 C53.874756,169.5307 54.4155319,170.071476 54.4155319,170.738965 C54.4155319,171.406454 53.874756,171.947229 53.2082648,171.947229 C52.5407758,171.947229 52,171.406454 52,170.738965 C52,170.071476 52.5407758,169.5307 53.2082648,169.5307 Z M61.2610355,169.5307 C61.9275267,169.5307 62.4693003,170.071476 62.4693003,170.738965 C62.4693003,171.406454 61.9275267,171.947229 61.2610355,171.947229 C60.5935465,171.947229 60.0527707,171.406454 60.0527707,170.738965 C60.0527707,170.071476 60.5935465,169.5307 61.2610355,169.5307 Z M69.3138061,169.5307 C69.9812951,169.5307 70.5220709,170.071476 70.5220709,170.738965 C70.5220709,171.406454 69.9812951,171.947229 69.3138061,171.947229 C68.6473149,171.947229 68.1055413,171.406454 68.1055413,170.738965 C68.1055413,170.071476 68.6473149,169.5307 69.3138061,169.5307 Z M77.3675745,169.5307 C78.0340657,169.5307 78.5748416,170.071476 78.5748416,170.738965 C78.5748416,171.406454 78.0340657,171.947229 77.3675745,171.947229 C76.7000855,171.947229 76.1593097,171.406454 76.1593097,170.738965 C76.1593097,170.071476 76.7000855,169.5307 77.3675745,169.5307 Z M85.4203452,169.5307 C86.0868364,169.5307 86.62861,170.071476 86.62861,170.738965 C86.62861,171.406454 86.0868364,171.947229 85.4203452,171.947229 C84.7528562,171.947229 84.2120803,171.406454 84.2120803,170.738965 C84.2120803,170.071476 84.7528562,169.5307 85.4203452,169.5307 Z M93.4731158,169.5307 C94.1406048,169.5307 94.6813806,170.071476 94.6813806,170.738965 C94.6813806,171.406454 94.1406048,171.947229 93.4731158,171.947229 C92.8066246,171.947229 92.264851,171.406454 92.264851,170.738965 C92.264851,170.071476 92.8066246,169.5307 93.4731158,169.5307 Z M101.525886,169.5307 C102.193375,169.5307 102.734151,170.071476 102.734151,170.738965 C102.734151,171.406454 102.193375,171.947229 101.525886,171.947229 C100.859395,171.947229 100.318619,171.406454 100.318619,170.738965 C100.318619,170.071476 100.859395,169.5307 101.525886,169.5307 Z M109.579655,169.5307 C110.247144,169.5307 110.786922,170.071476 110.786922,170.738965 C110.786922,171.406454 110.247144,171.947229 109.579655,171.947229 C108.912166,171.947229 108.37139,171.406454 108.37139,170.738965 C108.37139,170.071476 108.912166,169.5307 109.579655,169.5307 Z M117.632425,169.5307 C118.299914,169.5307 118.84069,170.071476 118.84069,170.738965 C118.84069,171.406454 118.299914,171.947229 117.632425,171.947229 C116.965934,171.947229 116.424161,171.406454 116.424161,170.738965 C116.424161,170.071476 116.965934,169.5307 117.632425,169.5307 Z M125.685196,169.5307 C126.352685,169.5307 126.893461,170.071476 126.893461,170.738965 C126.893461,171.406454 126.352685,171.947229 125.685196,171.947229 C125.018705,171.947229 124.477929,171.406454 124.477929,170.738965 C124.477929,170.071476 125.018705,169.5307 125.685196,169.5307 Z M133.738965,169.5307 C134.405456,169.5307 134.946232,170.071476 134.946232,170.738965 C134.946232,171.406454 134.405456,171.947229 133.738965,171.947229 C133.071476,171.947229 132.5307,171.406454 132.5307,170.738965 C132.5307,170.071476 133.071476,169.5307 133.738965,169.5307 Z M141.791735,169.5307 C142.459224,169.5307 143,170.071476 143,170.738965 C143,171.406454 142.459224,171.947229 141.791735,171.947229 C141.125244,171.947229 140.58347,171.406454 140.58347,170.738965 C140.58347,170.071476 141.125244,169.5307 141.791735,169.5307 Z M53.2082648,161.477929 C53.874756,161.477929 54.4155319,162.018705 54.4155319,162.686194 C54.4155319,163.352685 53.874756,163.893461 53.2082648,163.893461 C52.5407758,163.893461 52,163.352685 52,162.686194 C52,162.018705 52.5407758,161.477929 53.2082648,161.477929 Z M61.2610355,161.477929 C61.9275267,161.477929 62.4693003,162.018705 62.4693003,162.686194 C62.4693003,163.352685 61.9275267,163.893461 61.2610355,163.893461 C60.5935465,163.893461 60.0527707,163.352685 60.0527707,162.686194 C60.0527707,162.018705 60.5935465,161.477929 61.2610355,161.477929 Z M69.3138061,161.477929 C69.9812951,161.477929 70.5220709,162.018705 70.5220709,162.686194 C70.5220709,163.352685 69.9812951,163.893461 69.3138061,163.893461 C68.6473149,163.893461 68.1055413,163.352685 68.1055413,162.686194 C68.1055413,162.018705 68.6473149,161.477929 69.3138061,161.477929 Z M77.3675745,161.477929 C78.0340657,161.477929 78.5748416,162.018705 78.5748416,162.686194 C78.5748416,163.352685 78.0340657,163.893461 77.3675745,163.893461 C76.7000855,163.893461 76.1593097,163.352685 76.1593097,162.686194 C76.1593097,162.018705 76.7000855,161.477929 77.3675745,161.477929 Z M85.4203452,161.477929 C86.0868364,161.477929 86.62861,162.018705 86.62861,162.686194 C86.62861,163.352685 86.0868364,163.893461 85.4203452,163.893461 C84.7528562,163.893461 84.2120803,163.352685 84.2120803,162.686194 C84.2120803,162.018705 84.7528562,161.477929 85.4203452,161.477929 Z M93.4731158,161.477929 C94.1406048,161.477929 94.6813806,162.018705 94.6813806,162.686194 C94.6813806,163.352685 94.1406048,163.893461 93.4731158,163.893461 C92.8066246,163.893461 92.264851,163.352685 92.264851,162.686194 C92.264851,162.018705 92.8066246,161.477929 93.4731158,161.477929 Z M101.525886,161.477929 C102.193375,161.477929 102.734151,162.018705 102.734151,162.686194 C102.734151,163.352685 102.193375,163.893461 101.525886,163.893461 C100.859395,163.893461 100.318619,163.352685 100.318619,162.686194 C100.318619,162.018705 100.859395,161.477929 101.525886,161.477929 Z M109.579655,161.477929 C110.247144,161.477929 110.786922,162.018705 110.786922,162.686194 C110.786922,163.352685 110.247144,163.893461 109.579655,163.893461 C108.912166,163.893461 108.37139,163.352685 108.37139,162.686194 C108.37139,162.018705 108.912166,161.477929 109.579655,161.477929 Z M117.632425,161.477929 C118.299914,161.477929 118.84069,162.018705 118.84069,162.686194 C118.84069,163.352685 118.299914,163.893461 117.632425,163.893461 C116.965934,163.893461 116.424161,163.352685 116.424161,162.686194 C116.424161,162.018705 116.965934,161.477929 117.632425,161.477929 Z M125.685196,161.477929 C126.352685,161.477929 126.893461,162.018705 126.893461,162.686194 C126.893461,163.352685 126.352685,163.893461 125.685196,163.893461 C125.018705,163.893461 124.477929,163.352685 124.477929,162.686194 C124.477929,162.018705 125.018705,161.477929 125.685196,161.477929 Z M133.738965,161.477929 C134.405456,161.477929 134.946232,162.018705 134.946232,162.686194 C134.946232,163.352685 134.405456,163.893461 133.738965,163.893461 C133.071476,163.893461 132.5307,163.352685 132.5307,162.686194 C132.5307,162.018705 133.071476,161.477929 133.738965,161.477929 Z M141.791735,161.477929 C142.459224,161.477929 143,162.018705 143,162.686194 C143,163.352685 142.459224,163.893461 141.791735,163.893461 C141.125244,163.893461 140.58347,163.352685 140.58347,162.686194 C140.58347,162.018705 141.125244,161.477929 141.791735,161.477929 Z M77.3675745,153.425158 C78.0340657,153.425158 78.5748416,153.965934 78.5748416,154.632425 C78.5748416,155.299914 78.0340657,155.84069 77.3675745,155.84069 C76.7000855,155.84069 76.1593097,155.299914 76.1593097,154.632425 C76.1593097,153.965934 76.7000855,153.425158 77.3675745,153.425158 Z M85.4203452,153.425158 C86.0868364,153.425158 86.62861,153.965934 86.62861,154.632425 C86.62861,155.299914 86.0868364,155.84069 85.4203452,155.84069 C84.7528562,155.84069 84.2120803,155.299914 84.2120803,154.632425 C84.2120803,153.965934 84.7528562,153.425158 85.4203452,153.425158 Z M133.738965,153.425158 C134.405456,153.425158 134.946232,153.965934 134.946232,154.632425 C134.946232,155.299914 134.405456,155.84069 133.738965,155.84069 C133.071476,155.84069 132.5307,155.299914 132.5307,154.632425 C132.5307,153.965934 133.071476,153.425158 133.738965,153.425158 Z M141.791735,153.425158 C142.459224,153.425158 143,153.965934 143,154.632425 C143,155.299914 142.459224,155.84069 141.791735,155.84069 C141.125244,155.84069 140.58347,155.299914 140.58347,154.632425 C140.58347,153.965934 141.125244,153.425158 141.791735,153.425158 Z M53.2082648,153.425158 C53.874756,153.425158 54.4155319,153.965934 54.4155319,154.632425 C54.4155319,155.299914 53.874756,155.84069 53.2082648,155.84069 C52.5407758,155.84069 52,155.299914 52,154.632425 C52,153.965934 52.5407758,153.425158 53.2082648,153.425158 Z M61.2610355,153.425158 C61.9275267,153.425158 62.4693003,153.965934 62.4693003,154.632425 C62.4693003,155.299914 61.9275267,155.84069 61.2610355,155.84069 C60.5935465,155.84069 60.0527707,155.299914 60.0527707,154.632425 C60.0527707,153.965934 60.5935465,153.425158 61.2610355,153.425158 Z M69.3138061,153.425158 C69.9812951,153.425158 70.5220709,153.965934 70.5220709,154.632425 C70.5220709,155.299914 69.9812951,155.84069 69.3138061,155.84069 C68.6473149,155.84069 68.1055413,155.299914 68.1055413,154.632425 C68.1055413,153.965934 68.6473149,153.425158 69.3138061,153.425158 Z M109.579655,153.425158 C110.247144,153.425158 110.786922,153.965934 110.786922,154.632425 C110.786922,155.299914 110.247144,155.84069 109.579655,155.84069 C108.912166,155.84069 108.37139,155.299914 108.37139,154.632425 C108.37139,153.965934 108.912166,153.425158 109.579655,153.425158 Z M117.632425,153.425158 C118.299914,153.425158 118.84069,153.965934 118.84069,154.632425 C118.84069,155.299914 118.299914,155.84069 117.632425,155.84069 C116.965934,155.84069 116.424161,155.299914 116.424161,154.632425 C116.424161,153.965934 116.965934,153.425158 117.632425,153.425158 Z M125.685196,153.425158 C126.352685,153.425158 126.893461,153.965934 126.893461,154.632425 C126.893461,155.299914 126.352685,155.84069 125.685196,155.84069 C125.018705,155.84069 124.477929,155.299914 124.477929,154.632425 C124.477929,153.965934 125.018705,153.425158 125.685196,153.425158 Z M93.4731158,153.425158 C94.1406048,153.425158 94.6813806,153.965934 94.6813806,154.632425 C94.6813806,155.299914 94.1406048,155.84069 93.4731158,155.84069 C92.8066246,155.84069 92.264851,155.299914 92.264851,154.632425 C92.264851,153.965934 92.8066246,153.425158 93.4731158,153.425158 Z M101.525886,153.425158 C102.193375,153.425158 102.734151,153.965934 102.734151,154.632425 C102.734151,155.299914 102.193375,155.84069 101.525886,155.84069 C100.859395,155.84069 100.318619,155.299914 100.318619,154.632425 C100.318619,153.965934 100.859395,153.425158 101.525886,153.425158 Z M53.2082648,145.37139 C53.874756,145.37139 54.4155319,145.912166 54.4155319,146.579655 C54.4155319,147.247144 53.874756,147.78792 53.2082648,147.78792 C52.5407758,147.78792 52,147.247144 52,146.579655 C52,145.912166 52.5407758,145.37139 53.2082648,145.37139 Z M61.2610355,145.37139 C61.9275267,145.37139 62.4693003,145.912166 62.4693003,146.579655 C62.4693003,147.247144 61.9275267,147.78792 61.2610355,147.78792 C60.5935465,147.78792 60.0527707,147.247144 60.0527707,146.579655 C60.0527707,145.912166 60.5935465,145.37139 61.2610355,145.37139 Z M69.3138061,145.37139 C69.9812951,145.37139 70.5220709,145.912166 70.5220709,146.579655 C70.5220709,147.247144 69.9812951,147.78792 69.3138061,147.78792 C68.6473149,147.78792 68.1055413,147.247144 68.1055413,146.579655 C68.1055413,145.912166 68.6473149,145.37139 69.3138061,145.37139 Z M77.3675745,145.37139 C78.0340657,145.37139 78.5748416,145.912166 78.5748416,146.579655 C78.5748416,147.247144 78.0340657,147.78792 77.3675745,147.78792 C76.7000855,147.78792 76.1593097,147.247144 76.1593097,146.579655 C76.1593097,145.912166 76.7000855,145.37139 77.3675745,145.37139 Z M85.4203452,145.37139 C86.0868364,145.37139 86.62861,145.912166 86.62861,146.579655 C86.62861,147.247144 86.0868364,147.78792 85.4203452,147.78792 C84.7528562,147.78792 84.2120803,147.247144 84.2120803,146.579655 C84.2120803,145.912166 84.7528562,145.37139 85.4203452,145.37139 Z M93.4731158,145.37139 C94.1406048,145.37139 94.6813806,145.912166 94.6813806,146.579655 C94.6813806,147.247144 94.1406048,147.78792 93.4731158,147.78792 C92.8066246,147.78792 92.264851,147.247144 92.264851,146.579655 C92.264851,145.912166 92.8066246,145.37139 93.4731158,145.37139 Z M101.525886,145.37139 C102.193375,145.37139 102.734151,145.912166 102.734151,146.579655 C102.734151,147.247144 102.193375,147.78792 101.525886,147.78792 C100.859395,147.78792 100.318619,147.247144 100.318619,146.579655 C100.318619,145.912166 100.859395,145.37139 101.525886,145.37139 Z M109.579655,145.37139 C110.247144,145.37139 110.786922,145.912166 110.786922,146.579655 C110.786922,147.247144 110.247144,147.78792 109.579655,147.78792 C108.912166,147.78792 108.37139,147.247144 108.37139,146.579655 C108.37139,145.912166 108.912166,145.37139 109.579655,145.37139 Z M117.632425,145.37139 C118.299914,145.37139 118.84069,145.912166 118.84069,146.579655 C118.84069,147.247144 118.299914,147.78792 117.632425,147.78792 C116.965934,147.78792 116.424161,147.247144 116.424161,146.579655 C116.424161,145.912166 116.965934,145.37139 117.632425,145.37139 Z M125.685196,145.37139 C126.352685,145.37139 126.893461,145.912166 126.893461,146.579655 C126.893461,147.247144 126.352685,147.78792 125.685196,147.78792 C125.018705,147.78792 124.477929,147.247144 124.477929,146.579655 C124.477929,145.912166 125.018705,145.37139 125.685196,145.37139 Z M133.738965,145.37139 C134.405456,145.37139 134.946232,145.912166 134.946232,146.579655 C134.946232,147.247144 134.405456,147.78792 133.738965,147.78792 C133.071476,147.78792 132.5307,147.247144 132.5307,146.579655 C132.5307,145.912166 133.071476,145.37139 133.738965,145.37139 Z M141.791735,145.37139 C142.459224,145.37139 143,145.912166 143,146.579655 C143,147.247144 142.459224,147.78792 141.791735,147.78792 C141.125244,147.78792 140.58347,147.247144 140.58347,146.579655 C140.58347,145.912166 141.125244,145.37139 141.791735,145.37139 Z M77.3675745,137.318619 C78.0340657,137.318619 78.5748416,137.859395 78.5748416,138.526884 C78.5748416,139.193375 78.0340657,139.734151 77.3675745,139.734151 C76.7000855,139.734151 76.1593097,139.193375 76.1593097,138.526884 C76.1593097,137.859395 76.7000855,137.318619 77.3675745,137.318619 Z M93.4731158,137.318619 C94.1406048,137.318619 94.6813806,137.859395 94.6813806,138.526884 C94.6813806,139.193375 94.1406048,139.734151 93.4731158,139.734151 C92.8066246,139.734151 92.264851,139.193375 92.264851,138.526884 C92.264851,137.859395 92.8066246,137.318619 93.4731158,137.318619 Z M101.525886,137.318619 C102.193375,137.318619 102.734151,137.859395 102.734151,138.526884 C102.734151,139.193375 102.193375,139.734151 101.525886,139.734151 C100.859395,139.734151 100.318619,139.193375 100.318619,138.526884 C100.318619,137.859395 100.859395,137.318619 101.525886,137.318619 Z M53.2082648,137.318619 C53.874756,137.318619 54.4155319,137.859395 54.4155319,138.526884 C54.4155319,139.193375 53.874756,139.734151 53.2082648,139.734151 C52.5407758,139.734151 52,139.193375 52,138.526884 C52,137.859395 52.5407758,137.318619 53.2082648,137.318619 Z M61.2610355,137.318619 C61.9275267,137.318619 62.4693003,137.859395 62.4693003,138.526884 C62.4693003,139.193375 61.9275267,139.734151 61.2610355,139.734151 C60.5935465,139.734151 60.0527707,139.193375 60.0527707,138.526884 C60.0527707,137.859395 60.5935465,137.318619 61.2610355,137.318619 Z M69.3138061,137.318619 C69.9812951,137.318619 70.5220709,137.859395 70.5220709,138.526884 C70.5220709,139.193375 69.9812951,139.734151 69.3138061,139.734151 C68.6473149,139.734151 68.1055413,139.193375 68.1055413,138.526884 C68.1055413,137.859395 68.6473149,137.318619 69.3138061,137.318619 Z M109.579655,137.318619 C110.247144,137.318619 110.786922,137.859395 110.786922,138.526884 C110.786922,139.193375 110.247144,139.734151 109.579655,139.734151 C108.912166,139.734151 108.37139,139.193375 108.37139,138.526884 C108.37139,137.859395 108.912166,137.318619 109.579655,137.318619 Z M117.632425,137.318619 C118.299914,137.318619 118.84069,137.859395 118.84069,138.526884 C118.84069,139.193375 118.299914,139.734151 117.632425,139.734151 C116.965934,139.734151 116.424161,139.193375 116.424161,138.526884 C116.424161,137.859395 116.965934,137.318619 117.632425,137.318619 Z M125.685196,137.318619 C126.352685,137.318619 126.893461,137.859395 126.893461,138.526884 C126.893461,139.193375 126.352685,139.734151 125.685196,139.734151 C125.018705,139.734151 124.477929,139.193375 124.477929,138.526884 C124.477929,137.859395 125.018705,137.318619 125.685196,137.318619 Z M133.738965,137.318619 C134.405456,137.318619 134.946232,137.859395 134.946232,138.526884 C134.946232,139.193375 134.405456,139.734151 133.738965,139.734151 C133.071476,139.734151 132.5307,139.193375 132.5307,138.526884 C132.5307,137.859395 133.071476,137.318619 133.738965,137.318619 Z M141.791735,137.318619 C142.459224,137.318619 143,137.859395 143,138.526884 C143,139.193375 142.459224,139.734151 141.791735,139.734151 C141.125244,139.734151 140.58347,139.193375 140.58347,138.526884 C140.58347,137.859395 141.125244,137.318619 141.791735,137.318619 Z M85.4203452,137.318619 C86.0868364,137.318619 86.62861,137.859395 86.62861,138.526884 C86.62861,139.193375 86.0868364,139.734151 85.4203452,139.734151 C84.7528562,139.734151 84.2120803,139.193375 84.2120803,138.526884 C84.2120803,137.859395 84.7528562,137.318619 85.4203452,137.318619 Z M85.4203452,129.265849 C86.0868364,129.265849 86.62861,129.806625 86.62861,130.473116 C86.62861,131.140605 86.0868364,131.681381 85.4203452,131.681381 C84.7528562,131.681381 84.2120803,131.140605 84.2120803,130.473116 C84.2120803,129.806625 84.7528562,129.265849 85.4203452,129.265849 Z M101.525886,129.265849 C102.193375,129.265849 102.734151,129.806625 102.734151,130.473116 C102.734151,131.140605 102.193375,131.681381 101.525886,131.681381 C100.859395,131.681381 100.318619,131.140605 100.318619,130.473116 C100.318619,129.806625 100.859395,129.265849 101.525886,129.265849 Z M93.4731158,129.265849 C94.1406048,129.265849 94.6813806,129.806625 94.6813806,130.473116 C94.6813806,131.140605 94.1406048,131.681381 93.4731158,131.681381 C92.8066246,131.681381 92.264851,131.140605 92.264851,130.473116 C92.264851,129.806625 92.8066246,129.265849 93.4731158,129.265849 Z M77.3675745,129.265849 C78.0340657,129.265849 78.5748416,129.806625 78.5748416,130.473116 C78.5748416,131.140605 78.0340657,131.681381 77.3675745,131.681381 C76.7000855,131.681381 76.1593097,131.140605 76.1593097,130.473116 C76.1593097,129.806625 76.7000855,129.265849 77.3675745,129.265849 Z M69.3138061,129.265849 C69.9812951,129.265849 70.5220709,129.806625 70.5220709,130.473116 C70.5220709,131.140605 69.9812951,131.681381 69.3138061,131.681381 C68.6473149,131.681381 68.1055413,131.140605 68.1055413,130.473116 C68.1055413,129.806625 68.6473149,129.265849 69.3138061,129.265849 Z M117.632425,129.265849 C118.299914,129.265849 118.84069,129.806625 118.84069,130.473116 C118.84069,131.140605 118.299914,131.681381 117.632425,131.681381 C116.965934,131.681381 116.424161,131.140605 116.424161,130.473116 C116.424161,129.806625 116.965934,129.265849 117.632425,129.265849 Z M133.738965,129.265849 C134.405456,129.265849 134.946232,129.806625 134.946232,130.473116 C134.946232,131.140605 134.405456,131.681381 133.738965,131.681381 C133.071476,131.681381 132.5307,131.140605 132.5307,130.473116 C132.5307,129.806625 133.071476,129.265849 133.738965,129.265849 Z M125.685196,129.265849 C126.352685,129.265849 126.893461,129.806625 126.893461,130.473116 C126.893461,131.140605 126.352685,131.681381 125.685196,131.681381 C125.018705,131.681381 124.477929,131.140605 124.477929,130.473116 C124.477929,129.806625 125.018705,129.265849 125.685196,129.265849 Z M53.2082648,129.265849 C53.874756,129.265849 54.4155319,129.806625 54.4155319,130.473116 C54.4155319,131.140605 53.874756,131.681381 53.2082648,131.681381 C52.5407758,131.681381 52,131.140605 52,130.473116 C52,129.806625 52.5407758,129.265849 53.2082648,129.265849 Z M61.2610355,129.265849 C61.9275267,129.265849 62.4693003,129.806625 62.4693003,130.473116 C62.4693003,131.140605 61.9275267,131.681381 61.2610355,131.681381 C60.5935465,131.681381 60.0527707,131.140605 60.0527707,130.473116 C60.0527707,129.806625 60.5935465,129.265849 61.2610355,129.265849 Z M109.579655,129.265849 C110.247144,129.265849 110.786922,129.806625 110.786922,130.473116 C110.786922,131.140605 110.247144,131.681381 109.579655,131.681381 C108.912166,131.681381 108.37139,131.140605 108.37139,130.473116 C108.37139,129.806625 108.912166,129.265849 109.579655,129.265849 Z M141.791735,129.265849 C142.459224,129.265849 143,129.806625 143,130.473116 C143,131.140605 142.459224,131.681381 141.791735,131.681381 C141.125244,131.681381 140.58347,131.140605 140.58347,130.473116 C140.58347,129.806625 141.125244,129.265849 141.791735,129.265849 Z M53.2082648,121.21208 C53.874756,121.21208 54.4155319,121.752856 54.4155319,122.420345 C54.4155319,123.087834 53.874756,123.62861 53.2082648,123.62861 C52.5407758,123.62861 52,123.087834 52,122.420345 C52,121.752856 52.5407758,121.21208 53.2082648,121.21208 Z M61.2610355,121.21208 C61.9275267,121.21208 62.4693003,121.752856 62.4693003,122.420345 C62.4693003,123.087834 61.9275267,123.62861 61.2610355,123.62861 C60.5935465,123.62861 60.0527707,123.087834 60.0527707,122.420345 C60.0527707,121.752856 60.5935465,121.21208 61.2610355,121.21208 Z M93.4731158,121.21208 C94.1406048,121.21208 94.6813806,121.752856 94.6813806,122.420345 C94.6813806,123.087834 94.1406048,123.62861 93.4731158,123.62861 C92.8066246,123.62861 92.264851,123.087834 92.264851,122.420345 C92.264851,121.752856 92.8066246,121.21208 93.4731158,121.21208 Z M85.4203452,121.21208 C86.0868364,121.21208 86.62861,121.752856 86.62861,122.420345 C86.62861,123.087834 86.0868364,123.62861 85.4203452,123.62861 C84.7528562,123.62861 84.2120803,123.087834 84.2120803,122.420345 C84.2120803,121.752856 84.7528562,121.21208 85.4203452,121.21208 Z M141.791735,121.21208 C142.459224,121.21208 143,121.752856 143,122.420345 C143,123.087834 142.459224,123.62861 141.791735,123.62861 C141.125244,123.62861 140.58347,123.087834 140.58347,122.420345 C140.58347,121.752856 141.125244,121.21208 141.791735,121.21208 Z M117.632425,121.21208 C118.299914,121.21208 118.84069,121.752856 118.84069,122.420345 C118.84069,123.087834 118.299914,123.62861 117.632425,123.62861 C116.965934,123.62861 116.424161,123.087834 116.424161,122.420345 C116.424161,121.752856 116.965934,121.21208 117.632425,121.21208 Z M109.579655,121.21208 C110.247144,121.21208 110.786922,121.752856 110.786922,122.420345 C110.786922,123.087834 110.247144,123.62861 109.579655,123.62861 C108.912166,123.62861 108.37139,123.087834 108.37139,122.420345 C108.37139,121.752856 108.912166,121.21208 109.579655,121.21208 Z M69.3138061,121.21208 C69.9812951,121.21208 70.5220709,121.752856 70.5220709,122.420345 C70.5220709,123.087834 69.9812951,123.62861 69.3138061,123.62861 C68.6473149,123.62861 68.1055413,123.087834 68.1055413,122.420345 C68.1055413,121.752856 68.6473149,121.21208 69.3138061,121.21208 Z M77.3675745,121.21208 C78.0340657,121.21208 78.5748416,121.752856 78.5748416,122.420345 C78.5748416,123.087834 78.0340657,123.62861 77.3675745,123.62861 C76.7000855,123.62861 76.1593097,123.087834 76.1593097,122.420345 C76.1593097,121.752856 76.7000855,121.21208 77.3675745,121.21208 Z M133.738965,121.21208 C134.405456,121.21208 134.946232,121.752856 134.946232,122.420345 C134.946232,123.087834 134.405456,123.62861 133.738965,123.62861 C133.071476,123.62861 132.5307,123.087834 132.5307,122.420345 C132.5307,121.752856 133.071476,121.21208 133.738965,121.21208 Z M125.685196,121.21208 C126.352685,121.21208 126.893461,121.752856 126.893461,122.420345 C126.893461,123.087834 126.352685,123.62861 125.685196,123.62861 C125.018705,123.62861 124.477929,123.087834 124.477929,122.420345 C124.477929,121.752856 125.018705,121.21208 125.685196,121.21208 Z M101.525886,121.21208 C102.193375,121.21208 102.734151,121.752856 102.734151,122.420345 C102.734151,123.087834 102.193375,123.62861 101.525886,123.62861 C100.859395,123.62861 100.318619,123.087834 100.318619,122.420345 C100.318619,121.752856 100.859395,121.21208 101.525886,121.21208 Z M53.2082648,113.15931 C53.874756,113.15931 54.4155319,113.700086 54.4155319,114.367575 C54.4155319,115.034066 53.874756,115.574842 53.2082648,115.574842 C52.5407758,115.574842 52,115.034066 52,114.367575 C52,113.700086 52.5407758,113.15931 53.2082648,113.15931 Z M61.2610355,113.15931 C61.9275267,113.15931 62.4693003,113.700086 62.4693003,114.367575 C62.4693003,115.034066 61.9275267,115.574842 61.2610355,115.574842 C60.5935465,115.574842 60.0527707,115.034066 60.0527707,114.367575 C60.0527707,113.700086 60.5935465,113.15931 61.2610355,113.15931 Z M93.4731158,113.15931 C94.1406048,113.15931 94.6813806,113.700086 94.6813806,114.367575 C94.6813806,115.034066 94.1406048,115.574842 93.4731158,115.574842 C92.8066246,115.574842 92.264851,115.034066 92.264851,114.367575 C92.264851,113.700086 92.8066246,113.15931 93.4731158,113.15931 Z M85.4203452,113.15931 C86.0868364,113.15931 86.62861,113.700086 86.62861,114.367575 C86.62861,115.034066 86.0868364,115.574842 85.4203452,115.574842 C84.7528562,115.574842 84.2120803,115.034066 84.2120803,114.367575 C84.2120803,113.700086 84.7528562,113.15931 85.4203452,113.15931 Z M141.791735,113.15931 C142.459224,113.15931 143,113.700086 143,114.367575 C143,115.034066 142.459224,115.574842 141.791735,115.574842 C141.125244,115.574842 140.58347,115.034066 140.58347,114.367575 C140.58347,113.700086 141.125244,113.15931 141.791735,113.15931 Z M117.632425,113.15931 C118.299914,113.15931 118.84069,113.700086 118.84069,114.367575 C118.84069,115.034066 118.299914,115.574842 117.632425,115.574842 C116.965934,115.574842 116.424161,115.034066 116.424161,114.367575 C116.424161,113.700086 116.965934,113.15931 117.632425,113.15931 Z M109.579655,113.15931 C110.247144,113.15931 110.786922,113.700086 110.786922,114.367575 C110.786922,115.034066 110.247144,115.574842 109.579655,115.574842 C108.912166,115.574842 108.37139,115.034066 108.37139,114.367575 C108.37139,113.700086 108.912166,113.15931 109.579655,113.15931 Z M69.3138061,113.15931 C69.9812951,113.15931 70.5220709,113.700086 70.5220709,114.367575 C70.5220709,115.034066 69.9812951,115.574842 69.3138061,115.574842 C68.6473149,115.574842 68.1055413,115.034066 68.1055413,114.367575 C68.1055413,113.700086 68.6473149,113.15931 69.3138061,113.15931 Z M77.3675745,113.15931 C78.0340657,113.15931 78.5748416,113.700086 78.5748416,114.367575 C78.5748416,115.034066 78.0340657,115.574842 77.3675745,115.574842 C76.7000855,115.574842 76.1593097,115.034066 76.1593097,114.367575 C76.1593097,113.700086 76.7000855,113.15931 77.3675745,113.15931 Z M133.738965,113.15931 C134.405456,113.15931 134.946232,113.700086 134.946232,114.367575 C134.946232,115.034066 134.405456,115.574842 133.738965,115.574842 C133.071476,115.574842 132.5307,115.034066 132.5307,114.367575 C132.5307,113.700086 133.071476,113.15931 133.738965,113.15931 Z M125.685196,113.15931 C126.352685,113.15931 126.893461,113.700086 126.893461,114.367575 C126.893461,115.034066 126.352685,115.574842 125.685196,115.574842 C125.018705,115.574842 124.477929,115.034066 124.477929,114.367575 C124.477929,113.700086 125.018705,113.15931 125.685196,113.15931 Z M101.525886,113.15931 C102.193375,113.15931 102.734151,113.700086 102.734151,114.367575 C102.734151,115.034066 102.193375,115.574842 101.525886,115.574842 C100.859395,115.574842 100.318619,115.034066 100.318619,114.367575 C100.318619,113.700086 100.859395,113.15931 101.525886,113.15931 Z M61.2610355,105.106539 C61.9275267,105.106539 62.4693003,105.647315 62.4693003,106.313806 C62.4693003,106.981295 61.9275267,107.522071 61.2610355,107.522071 C60.5935465,107.522071 60.0527707,106.981295 60.0527707,106.313806 C60.0527707,105.647315 60.5935465,105.106539 61.2610355,105.106539 Z M93.4731158,105.106539 C94.1406048,105.106539 94.6813806,105.647315 94.6813806,106.313806 C94.6813806,106.981295 94.1406048,107.522071 93.4731158,107.522071 C92.8066246,107.522071 92.264851,106.981295 92.264851,106.313806 C92.264851,105.647315 92.8066246,105.106539 93.4731158,105.106539 Z M85.4203452,105.106539 C86.0868364,105.106539 86.62861,105.647315 86.62861,106.313806 C86.62861,106.981295 86.0868364,107.522071 85.4203452,107.522071 C84.7528562,107.522071 84.2120803,106.981295 84.2120803,106.313806 C84.2120803,105.647315 84.7528562,105.106539 85.4203452,105.106539 Z M141.791735,105.106539 C142.459224,105.106539 143,105.647315 143,106.313806 C143,106.981295 142.459224,107.522071 141.791735,107.522071 C141.125244,107.522071 140.58347,106.981295 140.58347,106.313806 C140.58347,105.647315 141.125244,105.106539 141.791735,105.106539 Z M117.632425,105.106539 C118.299914,105.106539 118.84069,105.647315 118.84069,106.313806 C118.84069,106.981295 118.299914,107.522071 117.632425,107.522071 C116.965934,107.522071 116.424161,106.981295 116.424161,106.313806 C116.424161,105.647315 116.965934,105.106539 117.632425,105.106539 Z M109.579655,105.106539 C110.247144,105.106539 110.786922,105.647315 110.786922,106.313806 C110.786922,106.981295 110.247144,107.522071 109.579655,107.522071 C108.912166,107.522071 108.37139,106.981295 108.37139,106.313806 C108.37139,105.647315 108.912166,105.106539 109.579655,105.106539 Z M53.2082648,105.106539 C53.874756,105.106539 54.4155319,105.647315 54.4155319,106.313806 C54.4155319,106.981295 53.874756,107.522071 53.2082648,107.522071 C52.5407758,107.522071 52,106.981295 52,106.313806 C52,105.647315 52.5407758,105.106539 53.2082648,105.106539 Z M133.738965,105.106539 C134.405456,105.106539 134.946232,105.647315 134.946232,106.313806 C134.946232,106.981295 134.405456,107.522071 133.738965,107.522071 C133.071476,107.522071 132.5307,106.981295 132.5307,106.313806 C132.5307,105.647315 133.071476,105.106539 133.738965,105.106539 Z M125.685196,105.106539 C126.352685,105.106539 126.893461,105.647315 126.893461,106.313806 C126.893461,106.981295 126.352685,107.522071 125.685196,107.522071 C125.018705,107.522071 124.477929,106.981295 124.477929,106.313806 C124.477929,105.647315 125.018705,105.106539 125.685196,105.106539 Z M101.525886,105.106539 C102.193375,105.106539 102.734151,105.647315 102.734151,106.313806 C102.734151,106.981295 102.193375,107.522071 101.525886,107.522071 C100.859395,107.522071 100.318619,106.981295 100.318619,106.313806 C100.318619,105.647315 100.859395,105.106539 101.525886,105.106539 Z M69.3138061,105.106539 C69.9812951,105.106539 70.5220709,105.647315 70.5220709,106.313806 C70.5220709,106.981295 69.9812951,107.522071 69.3138061,107.522071 C68.6473149,107.522071 68.1055413,106.981295 68.1055413,106.313806 C68.1055413,105.647315 68.6473149,105.106539 69.3138061,105.106539 Z M77.3675745,105.106539 C78.0340657,105.106539 78.5748416,105.647315 78.5748416,106.313806 C78.5748416,106.981295 78.0340657,107.522071 77.3675745,107.522071 C76.7000855,107.522071 76.1593097,106.981295 76.1593097,106.313806 C76.1593097,105.647315 76.7000855,105.106539 77.3675745,105.106539 Z M77.3675745,97.0527707 C78.0340657,97.0527707 78.5748416,97.5935465 78.5748416,98.2610355 C78.5748416,98.9285244 78.0340657,99.4693003 77.3675745,99.4693003 C76.7000855,99.4693003 76.1593097,98.9285244 76.1593097,98.2610355 C76.1593097,97.5935465 76.7000855,97.0527707 77.3675745,97.0527707 Z M109.579655,97.0527707 C110.247144,97.0527707 110.786922,97.5935465 110.786922,98.2610355 C110.786922,98.9285244 110.247144,99.4693003 109.579655,99.4693003 C108.912166,99.4693003 108.37139,98.9285244 108.37139,98.2610355 C108.37139,97.5935465 108.912166,97.0527707 109.579655,97.0527707 Z M133.738965,97.0527707 C134.405456,97.0527707 134.946232,97.5935465 134.946232,98.2610355 C134.946232,98.9285244 134.405456,99.4693003 133.738965,99.4693003 C133.071476,99.4693003 132.5307,98.9285244 132.5307,98.2610355 C132.5307,97.5935465 133.071476,97.0527707 133.738965,97.0527707 Z M61.2610355,97.0527707 C61.9275267,97.0527707 62.4693003,97.5935465 62.4693003,98.2610355 C62.4693003,98.9285244 61.9275267,99.4693003 61.2610355,99.4693003 C60.5935465,99.4693003 60.0527707,98.9285244 60.0527707,98.2610355 C60.0527707,97.5935465 60.5935465,97.0527707 61.2610355,97.0527707 Z M53.2082648,97.0527707 C53.874756,97.0527707 54.4155319,97.5935465 54.4155319,98.2610355 C54.4155319,98.9285244 53.874756,99.4693003 53.2082648,99.4693003 C52.5407758,99.4693003 52,98.9285244 52,98.2610355 C52,97.5935465 52.5407758,97.0527707 53.2082648,97.0527707 Z M141.791735,97.0527707 C142.459224,97.0527707 143,97.5935465 143,98.2610355 C143,98.9285244 142.459224,99.4693003 141.791735,99.4693003 C141.125244,99.4693003 140.58347,98.9285244 140.58347,98.2610355 C140.58347,97.5935465 141.125244,97.0527707 141.791735,97.0527707 Z M85.4203452,97.0527707 C86.0868364,97.0527707 86.62861,97.5935465 86.62861,98.2610355 C86.62861,98.9285244 86.0868364,99.4693003 85.4203452,99.4693003 C84.7528562,99.4693003 84.2120803,98.9285244 84.2120803,98.2610355 C84.2120803,97.5935465 84.7528562,97.0527707 85.4203452,97.0527707 Z M69.3138061,97.0527707 C69.9812951,97.0527707 70.5220709,97.5935465 70.5220709,98.2610355 C70.5220709,98.9285244 69.9812951,99.4693003 69.3138061,99.4693003 C68.6473149,99.4693003 68.1055413,98.9285244 68.1055413,98.2610355 C68.1055413,97.5935465 68.6473149,97.0527707 69.3138061,97.0527707 Z M117.632425,97.0527707 C118.299914,97.0527707 118.84069,97.5935465 118.84069,98.2610355 C118.84069,98.9285244 118.299914,99.4693003 117.632425,99.4693003 C116.965934,99.4693003 116.424161,98.9285244 116.424161,98.2610355 C116.424161,97.5935465 116.965934,97.0527707 117.632425,97.0527707 Z M125.685196,97.0527707 C126.352685,97.0527707 126.893461,97.5935465 126.893461,98.2610355 C126.893461,98.9285244 126.352685,99.4693003 125.685196,99.4693003 C125.018705,99.4693003 124.477929,98.9285244 124.477929,98.2610355 C124.477929,97.5935465 125.018705,97.0527707 125.685196,97.0527707 Z M101.525886,97.0527707 C102.193375,97.0527707 102.734151,97.5935465 102.734151,98.2610355 C102.734151,98.9285244 102.193375,99.4693003 101.525886,99.4693003 C100.859395,99.4693003 100.318619,98.9285244 100.318619,98.2610355 C100.318619,97.5935465 100.859395,97.0527707 101.525886,97.0527707 Z M93.4731158,97.0527707 C94.1406048,97.0527707 94.6813806,97.5935465 94.6813806,98.2610355 C94.6813806,98.9285244 94.1406048,99.4693003 93.4731158,99.4693003 C92.8066246,99.4693003 92.264851,98.9285244 92.264851,98.2610355 C92.264851,97.5935465 92.8066246,97.0527707 93.4731158,97.0527707 Z M53.2082648,89 C53.874756,89 54.4155319,89.5407758 54.4155319,90.2082648 C54.4155319,90.874756 53.874756,91.4155319 53.2082648,91.4155319 C52.5407758,91.4155319 52,90.874756 52,90.2082648 C52,89.5407758 52.5407758,89 53.2082648,89 Z M61.2610355,89 C61.9275267,89 62.4693003,89.5407758 62.4693003,90.2082648 C62.4693003,90.874756 61.9275267,91.4155319 61.2610355,91.4155319 C60.5935465,91.4155319 60.0527707,90.874756 60.0527707,90.2082648 C60.0527707,89.5407758 60.5935465,89 61.2610355,89 Z M69.3138061,89 C69.9812951,89 70.5220709,89.5407758 70.5220709,90.2082648 C70.5220709,90.874756 69.9812951,91.4155319 69.3138061,91.4155319 C68.6473149,91.4155319 68.1055413,90.874756 68.1055413,90.2082648 C68.1055413,89.5407758 68.6473149,89 69.3138061,89 Z M77.3675745,89 C78.0340657,89 78.5748416,89.5407758 78.5748416,90.2082648 C78.5748416,90.874756 78.0340657,91.4155319 77.3675745,91.4155319 C76.7000855,91.4155319 76.1593097,90.874756 76.1593097,90.2082648 C76.1593097,89.5407758 76.7000855,89 77.3675745,89 Z M85.4203452,89 C86.0868364,89 86.62861,89.5407758 86.62861,90.2082648 C86.62861,90.874756 86.0868364,91.4155319 85.4203452,91.4155319 C84.7528562,91.4155319 84.2120803,90.874756 84.2120803,90.2082648 C84.2120803,89.5407758 84.7528562,89 85.4203452,89 Z M93.4731158,89 C94.1406048,89 94.6813806,89.5407758 94.6813806,90.2082648 C94.6813806,90.874756 94.1406048,91.4155319 93.4731158,91.4155319 C92.8066246,91.4155319 92.264851,90.874756 92.264851,90.2082648 C92.264851,89.5407758 92.8066246,89 93.4731158,89 Z M101.525886,89 C102.193375,89 102.734151,89.5407758 102.734151,90.2082648 C102.734151,90.874756 102.193375,91.4155319 101.525886,91.4155319 C100.859395,91.4155319 100.318619,90.874756 100.318619,90.2082648 C100.318619,89.5407758 100.859395,89 101.525886,89 Z M109.579655,89 C110.247144,89 110.786922,89.5407758 110.786922,90.2082648 C110.786922,90.874756 110.247144,91.4155319 109.579655,91.4155319 C108.912166,91.4155319 108.37139,90.874756 108.37139,90.2082648 C108.37139,89.5407758 108.912166,89 109.579655,89 Z M117.632425,89 C118.299914,89 118.84069,89.5407758 118.84069,90.2082648 C118.84069,90.874756 118.299914,91.4155319 117.632425,91.4155319 C116.965934,91.4155319 116.424161,90.874756 116.424161,90.2082648 C116.424161,89.5407758 116.965934,89 117.632425,89 Z M125.685196,89 C126.352685,89 126.893461,89.5407758 126.893461,90.2082648 C126.893461,90.874756 126.352685,91.4155319 125.685196,91.4155319 C125.018705,91.4155319 124.477929,90.874756 124.477929,90.2082648 C124.477929,89.5407758 125.018705,89 125.685196,89 Z M133.738965,89 C134.405456,89 134.946232,89.5407758 134.946232,90.2082648 C134.946232,90.874756 134.405456,91.4155319 133.738965,91.4155319 C133.071476,91.4155319 132.5307,90.874756 132.5307,90.2082648 C132.5307,89.5407758 133.071476,89 133.738965,89 Z M141.791735,89 C142.459224,89 143,89.5407758 143,90.2082648 C143,90.874756 142.459224,91.4155319 141.791735,91.4155319 C141.125244,91.4155319 140.58347,90.874756 140.58347,90.2082648 C140.58347,89.5407758 141.125244,89 141.791735,89 Z" id="形状结合"></path>
        </g>
    </g>
</svg>