<?xml version="1.0" encoding="UTF-8"?>
<svg width="111px" height="57px" viewBox="0 0 111 57" version="1.1" xmlns="http://www.w3.org/2000/svg" xmlns:xlink="http://www.w3.org/1999/xlink">
    <!-- Generator: Sketch 61.2 (89653) - https://sketch.com -->
    <title>编组 7</title>
    <desc>Created with Sketch.</desc>
    <g id="页面-1" stroke="none" stroke-width="1" fill="none" fill-rule="evenodd">
        <g id="形状素材" transform="translate(-52.000000, -445.000000)">
            <g id="编组-7" transform="translate(53.000000, 446.000000)">
                <polyline id="Fill-141" fill="#535353" points="55.000616 55 28 27.999384 55.000616 1 82 27.999384 55.000616 55"></polyline>
                <path d="M54.7245,27.6388712 L81.7251288,54.6395 L108.7245,27.6388712 L81.7251288,0.6395 L54.7245,27.6388712 Z M81.7251261,55.6395 L53.7245,27.6388739 L81.7251261,-0.3605 L109.7245,27.6388739 L81.7251261,55.6395 L81.7251261,55.6395 Z" id="Fill-142" fill="#FFFFFF"></path>
                <path d="M0.7245,27.6388712 L27.7245,54.6395 L54.7245,27.6388712 L27.7245,0.6395 L0.7245,27.6388712 Z M27.7245,55.6395 L-0.2755,27.6388739 L27.7245,-0.3605 L55.7245,27.6388739 L27.7245,55.6395 L27.7245,55.6395 Z" id="Fill-143" fill="#FFFFFF"></path>
            </g>
        </g>
    </g>
</svg>