<?xml version="1.0" encoding="UTF-8"?>
<svg width="114px" height="114px" viewBox="0 0 114 114" version="1.1" xmlns="http://www.w3.org/2000/svg" xmlns:xlink="http://www.w3.org/1999/xlink">
    <!-- Generator: Sketch 61.2 (89653) - https://sketch.com -->
    <title>08</title>
    <desc>Created with Sketch.</desc>
    <g id="页面-1" stroke="none" stroke-width="1" fill="none" fill-rule="evenodd">
        <g id="形状素材" transform="translate(-51.000000, -259.000000)" stroke="#FFFFFF">
            <g id="08" transform="translate(52.000000, 260.000000)">
                <path d="M111.8506,55.9248 C111.8506,86.8118 86.8116,111.8498 55.9246,111.8498 C25.0386,111.8498 -0.0004,86.8118 -0.0004,55.9248 C-0.0004,25.0378 25.0386,-0.0002 55.9246,-0.0002 C86.8116,-0.0002 111.8506,25.0378 111.8506,55.9248 Z" id="Stroke-3" stroke-width="2" stroke-linecap="round" stroke-dasharray="0,8"></path>
                <path d="M97.8516,55.9248 C97.8516,79.0798 79.0806,97.8508 55.9246,97.8508 C32.7696,97.8508 13.9986,79.0798 13.9986,55.9248 C13.9986,32.7698 32.7696,13.9988 55.9246,13.9988 C79.0806,13.9988 97.8516,32.7698 97.8516,55.9248 Z" id="Stroke-1" stroke-width="2" opacity="0.600000024" stroke-linecap="round" stroke-dasharray="0,5.295"></path>
                <path d="M86.0791,55.9248 C86.0791,72.5788 72.5791,86.0788 55.9251,86.0788 C39.2711,86.0788 25.7711,72.5788 25.7711,55.9248 C25.7711,39.2708 39.2711,25.7708 55.9251,25.7708 C72.5791,25.7708 86.0791,39.2708 86.0791,55.9248 Z" id="Stroke-5" opacity="0.300000012" stroke-linecap="round" stroke-dasharray="3,5.295"></path>
                <path d="M75.4893,55.9248 C75.4893,66.7298 66.7303,75.4888 55.9253,75.4888 C45.1203,75.4888 36.3613,66.7298 36.3613,55.9248 C36.3613,45.1198 45.1203,36.3618 55.9253,36.3618 C66.7303,36.3618 75.4893,45.1198 75.4893,55.9248 Z" id="Stroke-7" opacity="0.100000001"></path>
            </g>
        </g>
    </g>
</svg>