<?xml version="1.0" encoding="UTF-8"?>
<svg width="125px" height="57px" viewBox="0 0 125 57" version="1.1" xmlns="http://www.w3.org/2000/svg" xmlns:xlink="http://www.w3.org/1999/xlink">
    <!-- Generator: Sketch 61.2 (89653) - https://sketch.com -->
    <title>41</title>
    <desc>Created with Sketch.</desc>
    <g id="页面-1" stroke="none" stroke-width="1" fill="none" fill-rule="evenodd">
        <g id="形状素材" transform="translate(-53.000000, -967.000000)" fill="#FFFFFF">
            <path d="M65.5,1000 C66.8750691,1000 68,1001.13661 68,1002.52595 L68,1009 L74.4739047,1009 C75.8633269,1009 77,1010.12493 77,1011.5 C77,1012.87507 75.8633269,1014 74.4739047,1014 L68,1014 L68,1021.47266 C68,1022.80642 66.9632637,1023.90856 65.6637516,1023.99459 L65.5,1024 C64.1249309,1024 63,1022.862 63,1021.47266 L63,1014 L55.5260953,1014 C54.19225,1014 53.0913382,1012.96326 53.0053995,1011.66375 L53,1011.5 C53,1010.12493 54.1366731,1009 55.5260953,1009 L63,1009 L63,1002.52595 C63,1001.13661 64.1249309,1000 65.5,1000 Z M98.5,1000 C99.8750691,1000 101,1001.13661 101,1002.52595 L101,1009 L108.473905,1009 C109.863327,1009 111,1010.12493 111,1011.5 C111,1012.87507 109.863327,1014 108.473905,1014 L101,1014 L101,1021.47266 C101,1022.80642 99.9632637,1023.90856 98.6637516,1023.99459 L98.5,1024 C97.1249309,1024 96,1022.862 96,1021.47266 L96,1014 L89.5260953,1014 C88.19225,1014 87.0913382,1012.96326 87.0053995,1011.66375 L87,1011.5 C87,1010.12493 88.1366731,1009 89.5260953,1009 L96,1009 L96,1002.52595 C96,1001.13661 97.1249309,1000 98.5,1000 Z M132.5,1000 C133.875069,1000 135,1001.13661 135,1002.52595 L135,1009 L142.474052,1009 C143.863393,1009 145,1010.12493 145,1011.5 C145,1012.87507 143.863393,1014 142.474052,1014 L135,1014 L135,1021.47266 C135,1022.80642 133.963264,1023.90856 132.663752,1023.99459 L132.5,1024 C131.124931,1024 130,1022.862 130,1021.47266 L130,1014 L123.527345,1014 C122.193577,1014 121.091442,1012.96326 121.005406,1011.66375 L121,1011.5 C121,1010.12493 122.138003,1009 123.527345,1009 L130,1009 L130,1002.52595 C130,1001.13661 131.124931,1000 132.5,1000 Z M165.500691,1000 C166.87538,1000 168,1001.13661 168,1002.52595 L168,1009 L175.473905,1009 C176.863327,1009 178,1010.12493 178,1011.5 C178,1012.87507 176.863327,1014 175.473905,1014 L168,1014 L168,1021.47266 C168,1022.80642 166.96355,1023.90856 165.664397,1023.99459 L165.500691,1024 C164.126002,1024 163,1022.862 163,1021.47266 L163,1014 L156.526095,1014 C155.19225,1014 154.091338,1012.96326 154.005399,1011.66375 L154,1011.5 C154,1010.12493 155.136673,1009 156.526095,1009 L163,1009 L163,1002.52595 C163,1001.13661 164.126002,1000 165.500691,1000 Z M65.5,967 C66.8750691,967 68,968.136673 68,969.526095 L68,977 L74.4739047,977 C75.8633269,977 77,978.124931 77,979.5 C77,980.875069 75.8633269,982 74.4739047,982 L68,982 L68,988.473905 C68,989.80775 66.9632637,990.908662 65.6637516,990.994601 L65.5,991 C64.1249309,991 63,989.863327 63,988.473905 L63,982 L55.5260953,982 C54.19225,982 53.0913382,980.963264 53.0053995,979.663752 L53,979.5 C53,978.124931 54.1366731,977 55.5260953,977 L63,977 L63,969.526095 C63,968.136673 64.1249309,967 65.5,967 Z M98.5,967 C99.8750691,967 101,968.136673 101,969.526095 L101,977 L108.473905,977 C109.863327,977 111,978.124931 111,979.5 C111,980.875069 109.863327,982 108.473905,982 L101,982 L101,988.473905 C101,989.80775 99.9632637,990.908662 98.6637516,990.994601 L98.5,991 C97.1249309,991 96,989.863327 96,988.473905 L96,982 L89.5260953,982 C88.19225,982 87.0913382,980.963264 87.0053995,979.663752 L87,979.5 C87,978.124931 88.1366731,977 89.5260953,977 L96,977 L96,969.526095 C96,968.136673 97.1249309,967 98.5,967 Z M132.5,967 C133.875069,967 135,968.136673 135,969.526095 L135,977 L142.474052,977 C143.863393,977 145,978.124931 145,979.5 C145,980.875069 143.863393,982 142.474052,982 L135,982 L135,988.473905 C135,989.80775 133.963264,990.908662 132.663752,990.994601 L132.5,991 C131.124931,991 130,989.863327 130,988.473905 L130,982 L123.527345,982 C122.193577,982 121.091442,980.963264 121.005406,979.663752 L121,979.5 C121,978.124931 122.138003,977 123.527345,977 L130,977 L130,969.526095 C130,968.136673 131.124931,967 132.5,967 Z M165.500691,967 C166.87538,967 168,968.136673 168,969.526095 L168,977 L175.473905,977 C176.863327,977 178,978.124931 178,979.5 C178,980.875069 176.863327,982 175.473905,982 L168,982 L168,988.473905 C168,989.80775 166.96355,990.908662 165.664397,990.994601 L165.500691,991 C164.126002,991 163,989.863327 163,988.473905 L163,982 L156.526095,982 C155.19225,982 154.091338,980.963264 154.005399,979.663752 L154,979.5 C154,978.124931 155.136673,977 156.526095,977 L163,977 L163,969.526095 C163,968.136673 164.126002,967 165.500691,967 Z" id="41"></path>
        </g>
    </g>
</svg>