<?xml version="1.0" encoding="UTF-8"?>
<svg width="144px" height="74px" viewBox="0 0 144 74" version="1.1" xmlns="http://www.w3.org/2000/svg" xmlns:xlink="http://www.w3.org/1999/xlink">
    <!-- Generator: Sketch 61.2 (89653) - https://sketch.com -->
    <title>编组</title>
    <desc>Created with Sketch.</desc>
    <defs>
        <polyline id="path-1" points="0.649 74.284 72.012 0.94 145.118 72.07 0.649 74.284"></polyline>
    </defs>
    <g id="页面-1" stroke="none" stroke-width="1" fill="none" fill-rule="evenodd">
        <g id="形状素材" transform="translate(-895.000000, -280.000000)">
            <g id="编组" transform="translate(894.000000, 279.000000)">
                <mask id="mask-2" fill="white">
                    <use xlink:href="#path-1"></use>
                </mask>
                <g id="Clip-80"></g>
                <path d="M185.448,61.756 L187.197,66.083 L3.878,140.184 L2.13,135.857 L185.448,61.756 Z M181.184,51.207 L182.933,55.534 L-0.386,129.635 L-2.135,125.308 L181.184,51.207 Z M176.921,40.658 L178.669,44.985 L-4.65,119.087 L-6.399,114.759 L176.921,40.658 Z M172.656,30.11 L174.405,34.436 L-8.914,108.537 L-10.663,104.211 L172.656,30.11 Z M168.392,19.561 L170.141,23.887 L-13.178,97.988 L-14.927,93.662 L168.392,19.561 Z M164.128,9.011 L165.877,13.338 L-17.443,87.439 L-19.191,83.113 L164.128,9.011 Z M159.864,-1.537 L161.613,2.789 L-21.706,76.89 L-23.455,72.564 L159.864,-1.537 Z M155.6,-12.086 L157.348,-7.76 L-25.97,66.341 L-27.719,62.015 L155.6,-12.086 Z M151.336,-22.635 L153.085,-18.308 L-30.235,55.793 L-31.984,51.466 L151.336,-22.635 Z M147.072,-33.184 L148.821,-28.857 L-34.498,45.244 L-36.247,40.918 L147.072,-33.184 Z M142.807,-43.733 L144.556,-39.406 L-38.763,34.695 L-40.511,30.368 L142.807,-43.733 Z" id="形状结合" fill="#FFFFFF" mask="url(#mask-2)"></path>
            </g>
        </g>
    </g>
</svg>