<?xml version="1.0" encoding="UTF-8"?>
<svg width="131px" height="85px" viewBox="0 0 131 85" version="1.1" xmlns="http://www.w3.org/2000/svg" xmlns:xlink="http://www.w3.org/1999/xlink">
    <!-- Generator: Sketch 61.2 (89653) - https://sketch.com -->
    <title>59</title>
    <desc>Created with Sketch.</desc>
    <g id="页面-1" stroke="none" stroke-width="1" fill="none" fill-rule="evenodd">
        <g id="形状素材" transform="translate(-590.000000, -1290.000000)">
            <g id="59" transform="translate(590.000000, 1290.000000)">
                <polygon id="Fill-152" fill="#FFFFFF" points="0 73 53 73 53 20 0 20"></polygon>
                <path d="M88.5029121,3 C66.7202521,3 49,20.7202521 49,42.5 C49,64.2797479 66.7202521,82 88.5029121,82 C110.279748,82 128,64.2797479 128,42.5 C128,20.7202521 110.279748,3 88.5029121,3 Z M88.5029182,85 C65.0643024,85 46,65.9356976 46,42.5 C46,19.0643024 65.0643024,0 88.5029182,0 C111.935698,0 131,19.0643024 131,42.5 C131,65.9356976 111.935698,85 88.5029182,85 L88.5029182,85 Z" id="Fill-513" fill="#FFFFFF"></path>
                <path d="M70,37.505843 L49.4985392,58 L29,37.505843 L49.4985392,17 L70,37.505843 Z M20,37.5028984 L49.4971016,67 L79,37.5028984 L49.4971016,8 L20,37.5028984 L20,37.5028984 Z" id="Fill-580" fill="#838383"></path>
            </g>
        </g>
    </g>
</svg>