<?xml version="1.0" encoding="UTF-8"?>
<svg width="140px" height="54px" viewBox="0 0 140 54" version="1.1" xmlns="http://www.w3.org/2000/svg" xmlns:xlink="http://www.w3.org/1999/xlink">
    <!-- Generator: Sketch 61.2 (89653) - https://sketch.com -->
    <title>45</title>
    <desc>Created with Sketch.</desc>
    <g id="页面-1" stroke="none" stroke-width="1" fill="none" fill-rule="evenodd">
        <g id="形状素材" transform="translate(-813.000000, -952.000000)">
            <g id="45" transform="translate(814.000000, 952.000000)">
                <path d="M14.9324877,3.12638804e-13 L29.8662029,23 L7.10542736e-14,23 L14.9324877,3.12638804e-13 Z M50.9779051,3.12638804e-13 L65.9103928,23 L36.0441899,23 L50.9779051,3.12638804e-13 Z M87.0220949,3.12638804e-13 L101.95581,23 L72.0883797,23 L87.0220949,3.12638804e-13 Z M123.066285,3.12638804e-13 L138,23 L108.13257,23 L123.066285,3.12638804e-13 Z" id="形状结合" fill="#FFFFFF"></path>
                <path d="M14.9324877,30 L29.8662029,53 L7.10542736e-14,53 L14.9324877,30 Z M50.9779051,30 L65.9103928,53 L36.0441899,53 L50.9779051,30 Z M87.0220949,30 L101.95581,53 L72.0883797,53 L87.0220949,30 Z M123.066285,30 L138,53 L108.13257,53 L123.066285,30 Z" id="形状结合" stroke="#FFFFFF"></path>
            </g>
        </g>
    </g>
</svg>