<?xml version="1.0" encoding="UTF-8"?>
<svg width="79px" height="74px" viewBox="0 0 79 74" version="1.1" xmlns="http://www.w3.org/2000/svg" xmlns:xlink="http://www.w3.org/1999/xlink">
    <!-- Generator: Sketch 61.2 (89653) - https://sketch.com -->
    <title>编组 8</title>
    <desc>Created with Sketch.</desc>
    <defs>
        <polyline id="path-1" points="39.602 81.77 0.433 39.185 43.018 0.016 82.187 42.601 39.602 81.77"></polyline>
    </defs>
    <g id="页面-1" stroke="none" stroke-width="1" fill="none" fill-rule="evenodd">
        <g id="形状素材" transform="translate(-470.000000, -437.000000)">
            <g id="编组-8" transform="translate(466.000000, 434.000000)">
                <polyline id="Fill-156" fill="#535353" points="57.174 67.365 31.87 42.059 57.174 16.755 82.48 42.059 57.174 67.365"></polyline>
                <g id="编组">
                    <mask id="mask-2" fill="white">
                        <use xlink:href="#path-1"></use>
                    </mask>
                    <g id="Clip-158"></g>
                    <path d="M102.511,40.766 L104.174,41.132 L103.105,45.998 C102.464,48.917 100.04,51.117 97.073,51.474 L96.701,51.519 C94.427,51.794 92.586,53.483 92.116,55.724 L92.032,56.128 C91.42,59.052 89.018,61.278 86.054,61.665 L85.553,61.73 C83.283,62.027 81.458,63.735 81.011,65.981 L80.958,66.256 C80.375,69.188 77.994,71.438 75.034,71.854 L74.409,71.942 C72.139,72.261 70.331,73.989 69.908,76.242 L69.881,76.382 C69.33,79.323 66.97,81.597 64.01,82.042 L63.267,82.154 C60.997,82.495 59.204,84.243 58.805,86.504 C58.284,89.456 55.945,91.757 52.984,92.23 L52.126,92.367 C49.855,92.73 48.078,94.499 47.704,96.767 L47.008,100.981 L45.328,100.704 L46.023,96.49 C46.518,93.497 48.862,91.165 51.857,90.685 L52.716,90.549 C54.961,90.19 56.734,88.445 57.129,86.208 C57.654,83.226 60.02,80.921 63.014,80.47 L63.757,80.359 C66.001,80.022 67.79,78.297 68.209,76.066 L68.235,75.926 C68.792,72.957 71.178,70.677 74.172,70.256 L74.797,70.169 C77.042,69.853 78.846,68.147 79.288,65.923 L79.341,65.65 C79.93,62.687 82.339,60.433 85.334,60.042 L85.835,59.977 C88.081,59.683 89.901,57.997 90.365,55.779 L90.45,55.376 C91.069,52.419 93.499,50.19 96.497,49.83 L96.87,49.785 C99.119,49.513 100.957,47.844 101.443,45.632 L102.511,40.766 Z M95.008,32.609 L96.672,32.974 L95.602,37.84 C94.961,40.758 92.537,42.96 89.57,43.317 L89.197,43.362 C86.924,43.635 85.082,45.325 84.613,47.566 L84.528,47.97 C83.917,50.895 81.514,53.12 78.551,53.507 L78.05,53.573 C75.78,53.869 73.955,55.578 73.508,57.824 L73.454,58.097 C72.872,61.03 70.491,63.28 67.531,63.696 L66.906,63.784 C64.636,64.103 62.828,65.831 62.405,68.084 L62.379,68.222 C61.826,71.165 59.466,73.44 56.506,73.884 L55.763,73.996 C53.494,74.338 51.701,76.086 51.301,78.345 C50.781,81.298 48.442,83.599 45.481,84.072 L44.623,84.21 C42.352,84.572 40.575,86.34 40.2,88.609 L39.505,92.823 L37.825,92.546 L38.52,88.333 C39.014,85.339 41.359,83.007 44.354,82.528 L45.213,82.391 C47.457,82.033 49.231,80.288 49.625,78.049 C50.152,75.068 52.516,72.763 55.51,72.313 L56.254,72.201 C58.498,71.864 60.287,70.138 60.705,67.909 L60.731,67.769 C61.29,64.798 63.675,62.519 66.669,62.098 L67.294,62.01 C69.538,61.695 71.342,59.989 71.784,57.766 L71.839,57.492 C72.426,54.53 74.835,52.276 77.83,51.884 L78.331,51.819 C80.577,51.526 82.398,49.84 82.862,47.622 L82.947,47.216 C83.565,44.261 85.995,42.033 88.994,41.672 L89.366,41.627 C91.616,41.356 93.454,39.687 93.94,37.474 L95.008,32.609 Z M87.505,24.451 L89.168,24.816 L88.098,29.681 C87.458,32.6 85.034,34.801 82.067,35.159 L81.693,35.204 C79.422,35.478 77.579,37.168 77.11,39.409 L77.025,39.812 C76.413,42.737 74.011,44.962 71.048,45.349 L70.547,45.415 C68.277,45.712 66.451,47.421 66.005,49.667 L65.951,49.94 C65.369,52.873 62.988,55.123 60.027,55.539 L59.403,55.627 C57.133,55.945 55.324,57.673 54.902,59.925 L54.876,60.065 C54.323,63.007 51.964,65.282 49.004,65.727 L48.259,65.839 C45.99,66.179 44.197,67.927 43.798,70.188 C43.277,73.14 40.938,75.441 37.978,75.915 L37.12,76.051 C34.849,76.415 33.071,78.182 32.697,80.452 L32.002,84.665 L30.322,84.388 L31.017,80.174 C31.511,77.181 33.855,74.849 36.851,74.371 L37.71,74.234 C39.954,73.875 41.727,72.131 42.122,69.892 C42.648,66.911 45.013,64.605 48.007,64.155 L48.751,64.044 C50.995,63.706 52.784,61.981 53.202,59.752 L53.228,59.612 C53.786,56.64 56.172,54.361 59.166,53.941 L59.79,53.852 C62.035,53.537 63.839,51.832 64.281,49.608 L64.336,49.335 C64.923,46.372 67.332,44.118 70.327,43.727 L70.828,43.661 C73.074,43.368 74.895,41.68 75.359,39.464 L75.443,39.06 C76.062,36.104 78.492,33.875 81.491,33.513 L81.864,33.468 C84.112,33.198 85.95,31.53 86.436,29.317 L87.505,24.451 Z M80.003,16.294 L81.665,16.659 L80.595,21.524 C79.955,24.442 77.53,26.644 74.563,27.002 L74.191,27.047 C71.918,27.32 70.075,29.01 69.607,31.251 L69.521,31.655 C68.91,34.579 66.507,36.804 63.545,37.192 L63.044,37.257 C60.773,37.553 58.948,39.262 58.502,41.508 L58.447,41.783 C57.865,44.715 55.485,46.965 52.524,47.381 L51.899,47.468 C49.63,47.788 47.821,49.515 47.398,51.768 L47.372,51.908 C46.82,54.848 44.46,57.125 41.501,57.569 L40.757,57.681 C38.487,58.022 36.694,59.769 36.296,62.03 C35.774,64.983 33.435,67.284 30.474,67.757 L29.617,67.893 C27.345,68.257 25.568,70.025 25.194,72.294 L24.499,76.507 L22.819,76.23 L23.513,72.017 C24.007,69.024 26.352,66.691 29.348,66.213 L30.206,66.076 C32.45,65.717 34.223,63.972 34.619,61.734 C35.145,58.753 37.51,56.447 40.504,55.998 L41.247,55.885 C43.491,55.548 45.28,53.823 45.699,51.593 L45.724,51.454 C46.282,48.483 48.669,46.204 51.663,45.783 L52.287,45.695 C54.532,45.38 56.336,43.673 56.777,41.451 L56.832,41.176 C57.421,38.214 59.829,35.961 62.824,35.569 L63.325,35.504 C65.571,35.21 67.391,33.523 67.855,31.306 L67.94,30.901 C68.558,27.946 70.989,25.717 73.987,25.356 L74.36,25.311 C76.609,25.041 78.447,23.372 78.933,21.159 L80.003,16.294 Z M69.782,10.228 L71.445,10.592 L70.376,15.459 C69.734,18.378 67.31,20.579 64.343,20.936 L63.971,20.981 C61.698,21.255 59.856,22.944 59.387,25.185 L59.301,25.59 C58.69,28.514 56.288,30.739 53.325,31.126 L52.825,31.192 C50.553,31.488 48.728,33.197 48.282,35.443 L48.228,35.716 C47.645,38.649 45.265,40.899 42.304,41.315 L41.679,41.403 C39.41,41.722 37.601,43.45 37.178,45.703 L37.152,45.842 C36.6,48.784 34.24,51.059 31.281,51.504 L30.538,51.615 C28.267,51.957 26.474,53.704 26.076,55.965 C25.554,58.917 23.215,61.218 20.255,61.691 L19.397,61.828 C17.126,62.191 15.348,63.959 14.974,66.228 L14.279,70.441 L12.599,70.165 L13.294,65.951 C13.788,62.958 16.132,60.626 19.129,60.147 L19.986,60.01 C22.23,59.651 24.004,57.907 24.399,55.669 C24.925,52.687 27.291,50.382 30.284,49.931 L31.027,49.82 C33.271,49.483 35.06,47.758 35.479,45.528 L35.505,45.388 C36.062,42.418 38.449,40.138 41.442,39.717 L42.067,39.63 C44.311,39.313 46.116,37.608 46.557,35.385 L46.612,35.111 C47.201,32.148 49.608,29.895 52.604,29.504 L53.104,29.437 C55.351,29.144 57.172,27.458 57.635,25.241 L57.72,24.836 C58.339,21.881 60.769,19.651 63.767,19.291 L64.14,19.246 C66.389,18.975 68.227,17.306 68.714,15.093 L69.782,10.228 Z M62.279,2.07 L63.942,2.435 L62.873,7.3 C62.231,10.219 59.807,12.421 56.84,12.778 L56.468,12.823 C54.195,13.097 52.352,14.787 51.883,17.028 L51.799,17.431 C51.186,20.356 48.785,22.581 45.822,22.968 L45.321,23.034 C43.05,23.331 41.224,25.039 40.779,27.285 L40.724,27.559 C40.142,30.491 37.761,32.741 34.801,33.158 L34.176,33.245 C31.907,33.564 30.098,35.292 29.675,37.545 L29.649,37.684 C29.096,40.626 26.737,42.901 23.778,43.345 L23.034,43.458 C20.764,43.798 18.971,45.547 18.573,47.806 C18.051,50.758 15.713,53.06 12.752,53.533 L11.893,53.671 C9.623,54.033 7.845,55.801 7.471,58.07 L6.776,62.284 L5.095,62.007 L5.791,57.794 C6.285,54.8 8.63,52.467 11.625,51.99 L12.483,51.852 C14.727,51.494 16.501,49.749 16.896,47.51 C17.422,44.529 19.787,42.224 22.781,41.774 L23.525,41.663 C25.768,41.325 27.557,39.6 27.975,37.37 L28.002,37.231 C28.56,34.259 30.946,31.98 33.939,31.559 L34.564,31.471 C36.808,31.156 38.613,29.45 39.054,27.227 L39.109,26.954 C39.697,23.991 42.105,21.737 45.1,21.345 L45.601,21.28 C47.847,20.987 49.669,19.299 50.132,17.083 L50.216,16.679 C50.836,13.722 53.266,11.494 56.264,11.133 L56.636,11.089 C58.885,10.817 60.723,9.148 61.21,6.935 L62.279,2.07 Z M54.776,-6.088 L56.438,-5.723 L55.369,-0.857 C54.728,2.062 52.303,4.263 49.337,4.62 L48.964,4.665 C46.691,4.939 44.849,6.629 44.38,8.87 L44.296,9.274 C43.683,12.198 41.282,14.423 38.319,14.81 L37.818,14.876 C35.547,15.173 33.721,16.881 33.276,19.127 L33.221,19.401 C32.639,22.334 30.258,24.584 27.297,25 L26.673,25.088 C24.404,25.406 22.594,27.134 22.172,29.387 L22.146,29.526 C21.593,32.468 19.234,34.743 16.274,35.188 L15.531,35.299 C13.261,35.64 11.468,37.388 11.069,39.649 C10.547,42.601 8.209,44.903 5.248,45.376 L4.39,45.512 C2.119,45.876 0.341,47.644 -0.033,49.913 L-0.728,54.126 L-2.408,53.849 L-1.712,49.635 C-1.218,46.643 1.126,44.31 4.122,43.832 L4.98,43.695 C7.224,43.336 8.997,41.591 9.392,39.353 C9.919,36.372 12.284,34.066 15.278,33.617 L16.021,33.505 C18.265,33.167 20.053,31.442 20.472,29.213 L20.499,29.073 C21.056,26.101 23.442,23.822 26.436,23.402 L27.06,23.314 C29.305,22.998 31.11,21.293 31.551,19.07 L31.605,18.796 C32.195,15.833 34.602,13.579 37.597,13.187 L38.098,13.123 C40.344,12.829 42.166,11.142 42.63,8.924 L42.714,8.52 C43.333,5.565 45.762,3.337 48.761,2.975 L49.133,2.93 C51.382,2.66 53.22,0.991 53.707,-1.222 L54.776,-6.088 Z M47.272,-14.245 L48.935,-13.881 L47.866,-9.015 C47.225,-6.096 44.8,-3.895 41.834,-3.537 L41.462,-3.493 C39.188,-3.219 37.346,-1.53 36.878,0.712 L36.793,1.116 C36.18,4.041 33.778,6.265 30.815,6.653 L30.314,6.718 C28.044,7.014 26.218,8.723 25.772,10.969 L25.718,11.243 C25.135,14.175 22.755,16.425 19.795,16.841 L19.17,16.929 C16.9,17.249 15.091,18.977 14.669,21.229 L14.642,21.369 C14.089,24.31 11.731,26.586 8.771,27.03 L8.027,27.141 C5.757,27.483 3.964,29.231 3.566,31.491 C3.045,34.443 0.706,36.745 -2.255,37.217 L-3.114,37.355 C-5.384,37.717 -7.161,39.486 -7.536,41.755 L-8.231,45.967 L-9.911,45.691 L-9.216,41.478 C-8.722,38.485 -6.377,36.153 -3.382,35.673 L-2.524,35.537 C-0.279,35.178 1.495,33.433 1.889,31.195 C2.416,28.214 4.781,25.909 7.774,25.459 L8.518,25.346 C10.762,25.009 12.55,23.285 12.969,21.054 L12.995,20.915 C13.553,17.944 15.939,15.665 18.933,15.244 L19.557,15.156 C21.801,14.84 23.606,13.135 24.048,10.912 L24.102,10.639 C24.691,7.675 27.099,5.422 30.094,5.03 L30.594,4.965 C32.84,4.672 34.662,2.984 35.126,0.766 L35.211,0.363 C35.829,-2.593 38.259,-4.822 41.257,-5.183 L41.63,-5.228 C43.88,-5.498 45.717,-7.167 46.204,-9.38 L47.272,-14.245 Z" id="形状结合" fill="#FFFFFF" mask="url(#mask-2)"></path>
                </g>
            </g>
        </g>
    </g>
</svg>