<?xml version="1.0" encoding="UTF-8"?>
<svg width="69px" height="70px" viewBox="0 0 69 70" version="1.1" xmlns="http://www.w3.org/2000/svg" xmlns:xlink="http://www.w3.org/1999/xlink">
    <!-- Generator: Sketch 61.2 (89653) - https://sketch.com -->
    <title>编组</title>
    <desc>Created with Sketch.</desc>
    <defs>
        <path d="M48.151,66.921 C30.455,73.968 10.396,65.337 3.347,47.64 C-3.701,29.945 4.931,9.885 22.628,2.838 C40.324,-4.211 60.382,4.421 67.431,22.117 C74.479,39.813 65.847,59.873 48.151,66.921" id="path-1"></path>
    </defs>
    <g id="页面-1" stroke="none" stroke-width="1" fill="none" fill-rule="evenodd">
        <g id="形状素材" transform="translate(-346.000000, -438.000000)">
            <g id="编组" transform="translate(345.000000, 438.000000)">
                <mask id="mask-2" fill="white">
                    <use xlink:href="#path-1"></use>
                </mask>
                <g id="Clip-14"></g>
                <path d="M-28.075,-9.099 L18.867,108.76 L16.086,109.868 L-30.857,-7.992 L-28.075,-9.099 Z M-21.293,-11.8 L25.649,106.059 L22.868,107.167 L-24.075,-10.693 L-21.293,-11.8 Z M-14.511,-14.501 L32.431,103.357 L29.65,104.465 L-17.292,-13.394 L-14.511,-14.501 Z M-7.729,-17.202 L39.214,100.656 L36.432,101.764 L-10.51,-16.095 L-7.729,-17.202 Z M-0.947,-19.904 L45.996,97.955 L43.214,99.063 L-3.728,-18.796 L-0.947,-19.904 Z M5.836,-22.605 L52.778,95.254 L49.996,96.362 L3.053,-21.497 L5.836,-22.605 Z M12.618,-25.306 L59.559,92.552 L56.778,93.661 L9.836,-24.199 L12.618,-25.306 Z M19.399,-28.008 L66.341,89.851 L63.56,90.96 L16.618,-26.9 L19.399,-28.008 Z M26.181,-30.709 L73.124,87.15 L70.342,88.258 L23.4,-29.601 L26.181,-30.709 Z M32.964,-33.41 L79.906,84.449 L77.125,85.557 L30.182,-32.302 L32.964,-33.41 Z M39.746,-36.112 L86.688,81.748 L83.906,82.855 L36.964,-35.003 L39.746,-36.112 Z" id="形状结合" fill="#FFFFFF" mask="url(#mask-2)"></path>
            </g>
        </g>
    </g>
</svg>