<?xml version="1.0" encoding="UTF-8"?>
<svg width="92px" height="96px" viewBox="0 0 92 96" version="1.1" xmlns="http://www.w3.org/2000/svg" xmlns:xlink="http://www.w3.org/1999/xlink">
    <!-- Generator: Sketch 61.2 (89653) - https://sketch.com -->
    <title>编组 5</title>
    <desc>Created with Sketch.</desc>
    <g id="页面-1" stroke="none" stroke-width="1" fill="none" fill-rule="evenodd">
        <g id="形状素材" transform="translate(-1272.000000, -103.000000)" fill="#FFFFFF">
            <g id="编组-5" transform="translate(1272.000000, 103.000000)">
                <path d="M1.24545192,8.98335276 L43.6164212,94.4123523 L74.5204543,25.797403 L1.24545192,8.98335276 Z M43.6456829,96 L0,8 L74.9813264,25.2059264 L75.6195977,24.9770268 L75.4732891,25.3194606 L76,25.4384884 L75.2611416,25.8083902 L43.6456829,96 L43.6456829,96 Z" id="Fill-22"></path>
                <path d="M9.24545192,4.98337322 L51.6164212,90.4141505 L82.5204543,21.7959421 L9.24545192,4.98337322 Z M51.6456829,92 L8,4 L82.9813264,21.2044532 L83.6195977,20.9755489 L83.4714602,21.3179898 L84,21.4388513 L83.2611416,21.8069296 L51.6456829,92 L51.6456829,92 Z" id="Fill-23"></path>
                <path d="M17.243653,0.981521558 L59.6156419,86.4105211 L90.5204187,17.7955718 L17.243653,0.981521558 Z M59.6449043,88 L16,0 L90.9813019,17.2040952 L91.6195885,16.9733644 L91.4732764,17.3176294 L92,17.4366572 L91.2611238,17.806559 L59.6449043,88 L59.6449043,88 Z" id="Fill-24"></path>
            </g>
        </g>
    </g>
</svg>