<?xml version="1.0" standalone="no"?><!DOCTYPE svg PUBLIC "-//W3C//DTD SVG 1.1//EN" "http://www.w3.org/Graphics/SVG/1.1/DTD/svg11.dtd"><svg t="1623297752960" class="icon" viewBox="0 0 1024 1024" version="1.1" xmlns="http://www.w3.org/2000/svg" p-id="3532" width="64" height="64"><path d="M900 96H124c-33.14 0-60 26.86-60 60v520c0 33.14 26.86 60 60 60h776c33.14 0 60-26.86 60-60V156c0-33.14-26.86-60-60-60zM336 600c0 22.09-17.91 40-40 40s-40-17.91-40-40V472c0-22.09 17.91-40 40-40s40 17.91 40 40v128z m144 0c0 22.09-17.91 40-40 40s-40-17.91-40-40V248c0-22.09 17.91-40 40-40s40 17.91 40 40v352z m144 0c0 22.09-17.91 40-40 40s-40-17.91-40-40v-64c0-22.09 17.91-40 40-40s40 17.91 40 40v64z m144 0c0 22.09-17.91 40-40 40s-40-17.91-40-40V328c0-22.09 17.91-40 40-40s40 17.91 40 40v272zM866 926H158c-16.57 0-30-13.43-30-30v-36c0-16.57 13.43-30 30-30h708c16.57 0 30 13.43 30 30v36c0 16.57-13.43 30-30 30z" p-id="3533"></path></svg>
