<?xml version="1.0" standalone="no"?><!DOCTYPE svg PUBLIC "-//W3C//DTD SVG 1.1//EN" "http://www.w3.org/Graphics/SVG/1.1/DTD/svg11.dtd"><svg t="1636513083631" class="icon" viewBox="0 0 1024 1024" version="1.1" xmlns="http://www.w3.org/2000/svg" p-id="23864" width="64" height="64"><path d="M512 0C228.072727 0 0 228.072727 0 512s228.072727 512 512 512 512-228.072727 512-512S795.927273 0 512 0zM269.963636 232.727273h256c18.618182 0 32.581818 13.963636 32.581819 37.236363s-13.963636 37.236364-37.236364 37.236364H269.963636c-23.272727-4.654545-37.236364-18.618182-37.236363-37.236364s13.963636-37.236364 37.236363-37.236363z m0 139.636363h116.363637c18.618182 0 32.581818 13.963636 32.581818 37.236364s-13.963636 32.581818-37.236364 32.581818H269.963636c-23.272727 0-37.236364-13.963636-37.236363-32.581818s13.963636-37.236364 37.236363-37.236364z m0 139.636364h162.909091c18.618182 0 37.236364 13.963636 37.236364 37.236364s-13.963636 37.236364-37.236364 37.236363H269.963636c-18.618182 0-37.236364-13.963636-37.236363-37.236363s13.963636-37.236364 37.236363-37.236364z m484.072728 209.454545H269.963636c-18.618182 0-37.236364-13.963636-37.236363-37.236363s13.963636-32.581818 37.236363-32.581818h488.727273c18.618182 0 37.236364 13.963636 37.236364 37.236363s-18.618182 32.581818-41.890909 32.581818z m27.927272-279.272727l-102.4 102.4c-13.963636 13.963636-37.236364 13.963636-51.2 0l-102.4-102.4c-13.963636-13.963636-13.963636-37.236364 0-51.2 13.963636-13.963636 37.236364-13.963636 51.2 0l41.890909 41.890909V269.963636c-4.654545-23.272727 9.309091-37.236364 32.581819-37.236363 23.272727 0 37.236364 13.963636 37.236363 37.236363v162.909091l41.890909-41.890909c13.963636-13.963636 37.236364-13.963636 51.2 0 13.963636 13.963636 13.963636 37.236364 0 51.2z" p-id="23865"></path></svg>
