<?xml version="1.0" standalone="no"?><!DOCTYPE svg PUBLIC "-//W3C//DTD SVG 1.1//EN" "http://www.w3.org/Graphics/SVG/1.1/DTD/svg11.dtd"><svg t="1601173755978" class="icon" viewBox="0 0 1024 1024" version="1.1" xmlns="http://www.w3.org/2000/svg" p-id="6618" width="200" height="200"><path d="M120 288h224c30.93 0 56 25.07 56 56s-25.07 56-56 56H120c-30.93 0-56-25.07-56-56s25.07-56 56-56z" p-id="6619"></path><path d="M400 120v224c0 30.93-25.07 56-56 56s-56-25.07-56-56V120c0-30.93 25.07-56 56-56s56 25.07 56 56zM736 120v224c0 30.93-25.07 56-56 56s-56-25.07-56-56V120c0-30.93 25.07-56 56-56s56 25.07 56 56z" p-id="6620"></path><path d="M680 288h224c30.93 0 56 25.07 56 56s-25.07 56-56 56H680c-30.93 0-56-25.07-56-56s25.07-56 56-56z" p-id="6621"></path><path d="M736 680v224c0 30.93-25.07 56-56 56s-56-25.07-56-56V680c0-30.93 25.07-56 56-56s56 25.07 56 56z" p-id="6622"></path><path d="M680 624h224c30.93 0 56 25.07 56 56s-25.07 56-56 56H680c-30.93 0-56-25.07-56-56s25.07-56 56-56z" p-id="6623"></path><path d="M400 680v224c0 30.93-25.07 56-56 56s-56-25.07-56-56V680c0-30.93 25.07-56 56-56s56 25.07 56 56z" p-id="6624"></path><path d="M120 624h224c30.93 0 56 25.07 56 56s-25.07 56-56 56H120c-30.93 0-56-25.07-56-56s25.07-56 56-56z" p-id="6625"></path></svg>
