<?xml version="1.0" standalone="no"?><!DOCTYPE svg PUBLIC "-//W3C//DTD SVG 1.1//EN" "http://www.w3.org/Graphics/SVG/1.1/DTD/svg11.dtd"><svg t="1601173729305" class="icon" viewBox="0 0 1024 1024" version="1.1" xmlns="http://www.w3.org/2000/svg" p-id="6476" width="200" height="200"><path d="M344 176H120c-30.93 0-56-25.07-56-56s25.07-56 56-56h224c30.93 0 56 25.07 56 56s-25.07 56-56 56z" p-id="6477"></path><path d="M64 344V120c0-30.93 25.07-56 56-56s56 25.07 56 56v224c0 30.93-25.07 56-56 56s-56-25.07-56-56zM848 344V120c0-30.93 25.07-56 56-56s56 25.07 56 56v224c0 30.93-25.07 56-56 56s-56-25.07-56-56z" p-id="6478"></path><path d="M904 176H680c-30.93 0-56-25.07-56-56s25.07-56 56-56h224c30.93 0 56 25.07 56 56s-25.07 56-56 56z" p-id="6479"></path><path d="M848 904V680c0-30.93 25.07-56 56-56s56 25.07 56 56v224c0 30.93-25.07 56-56 56s-56-25.07-56-56z" p-id="6480"></path><path d="M904 960H680c-30.93 0-56-25.07-56-56s25.07-56 56-56h224c30.93 0 56 25.07 56 56s-25.07 56-56 56z" p-id="6481"></path><path d="M64 904V680c0-30.93 25.07-56 56-56s56 25.07 56 56v224c0 30.93-25.07 56-56 56s-56-25.07-56-56z" p-id="6482"></path><path d="M344 960H120c-30.93 0-56-25.07-56-56s25.07-56 56-56h224c30.93 0 56 25.07 56 56s-25.07 56-56 56z" p-id="6483"></path></svg>
