<?xml version="1.0" standalone="no"?><!DOCTYPE svg PUBLIC "-//W3C//DTD SVG 1.1//EN" "http://www.w3.org/Graphics/SVG/1.1/DTD/svg11.dtd"><svg t="1583823818343" class="icon" viewBox="0 0 1024 1024" version="1.1" xmlns="http://www.w3.org/2000/svg" p-id="14478" width="200" height="200"><path d="M908.864 206.656c-11.52-12.096-24.768-18.432-39.872-19.072h-10.88c-38.08 6.08-71.36 11.968-99.776 17.664-28.416 5.76-51.392 11.648-68.928 17.664-14.528 2.432-34.624 9.536-60.288 21.312-25.728 11.776-55.744 27.648-90.24 47.616-17.536 6.08-35.072 6.08-52.608 0-35.072-16.896-65.024-31.424-89.792-43.52l-55.296-25.408c-19.968-6.016-43.84-11.904-71.616-17.664-27.84-5.76-61.952-11.648-102.464-17.664h-11.776c-17.536 0.64-31.424 6.976-41.728 19.072-10.304 12.096-15.744 27.2-16.32 45.312v440.704c0.576 15.104 5.76 28.736 15.424 40.832 9.664 12.096 22.08 19.648 37.184 22.656 40.512 6.016 76.48 12.864 107.904 20.416 31.424 7.552 57.408 14.336 78.016 20.416l59.84 23.552c25.408 9.664 55.616 23.296 90.688 40.832 17.536 5.44 35.072 5.44 52.608 0 34.432-17.536 64.512-31.872 90.24-43.072 25.664-11.2 45.824-18.304 60.288-21.312 20.544-5.44 46.528-11.52 78.016-18.112l107.904-22.656c14.528-3.008 26.752-9.984 36.736-20.864 9.984-10.88 14.976-25.088 14.976-42.624V251.968c-0.704-18.112-6.72-33.216-18.24-45.312z m-364.48 472.768c0 15.872-14.464 28.928-32.128 28.928s-32.128-12.992-32.128-28.928V433.856c0-15.872 14.464-28.928 32.128-28.928s32.128 12.992 32.128 28.928v245.568z" p-id="14479"></path></svg>
