<?xml version="1.0" standalone="no"?><!DOCTYPE svg PUBLIC "-//W3C//DTD SVG 1.1//EN" "http://www.w3.org/Graphics/SVG/1.1/DTD/svg11.dtd"><svg t="1600847367559" class="icon" viewBox="0 0 1024 1024" version="1.1" xmlns="http://www.w3.org/2000/svg" p-id="5206" width="200" height="200"><path d="M54.044444 36.977778v796.444444h150.755556c28.444444 99.555556 113.777778 170.666667 219.022222 170.666667s190.577778-71.111111 219.022222-170.666667h321.422223v-796.444444h-910.222223z m201.955556 739.555555c11.377778-85.333333 82.488889-150.755556 167.822222-150.755555 85.333333 0 156.444444 65.422222 167.822222 150.755555H256z m651.377778 0h-256c-5.688889-59.733333-34.133333-110.933333-76.8-147.911111l82.488889-96.711111c17.066667 5.688889 34.133333 8.533333 51.2 8.533333 79.644444 0 142.222222-62.577778 142.222222-142.222222s-62.577778-142.222222-142.222222-142.222222c-56.888889 0-105.244444 34.133333-128 79.644444l-170.666667-42.666666c-2.844444-59.733333-51.2-108.088889-113.777778-108.088889s-113.777778 51.2-113.777778 113.777778 51.2 113.777778 113.777778 113.777777c45.511111 0 82.488889-25.6 102.4-62.577777l170.666667 42.666666v5.688889c0 39.822222 17.066667 76.8 42.666667 102.4l-82.488889 93.866667c-31.288889-17.066667-65.422222-25.6-102.4-25.6-119.466667 0-216.177778 91.022222-227.555556 207.644444H113.777778v-682.666666h796.444444v682.666666z m-284.444445-375.466666c0-48.355556 36.977778-85.333333 85.333334-85.333334s85.333333 36.977778 85.333333 85.333334-36.977778 85.333333-85.333333 85.333333-85.333333-39.822222-85.333334-85.333333z m-270.222222-99.555556c0 31.288889-25.6 56.888889-56.888889 56.888889s-56.888889-25.6-56.888889-56.888889 25.6-56.888889 56.888889-56.888889 56.888889 25.6 56.888889 56.888889z" p-id="5207"></path></svg>
