<?xml version="1.0" standalone="no"?><!DOCTYPE svg PUBLIC "-//W3C//DTD SVG 1.1//EN" "http://www.w3.org/Graphics/SVG/1.1/DTD/svg11.dtd"><svg t="1596186400155" class="icon" viewBox="0 0 1024 1024" version="1.1" xmlns="http://www.w3.org/2000/svg" p-id="1488"><path d="M896.71 256H319.29c-34.95 0-63.29-28.33-63.29-63.29v-1.43c0-34.95 28.33-63.29 63.29-63.29h577.43c34.95 0 63.29 28.33 63.29 63.29v1.43C960 227.67 931.67 256 896.71 256z" p-id="1489"></path><path d="M128 192m-64 0a64 64 0 1 0 128 0 64 64 0 1 0-128 0Z" p-id="1490"></path><path d="M320 405.33m-64 0a64 64 0 1 0 128 0 64 64 0 1 0-128 0Z" p-id="1491"></path><path d="M512 618.67m-64 0a64 64 0 1 0 128 0 64 64 0 1 0-128 0Z" p-id="1492"></path><path d="M320 832m-64 0a64 64 0 1 0 128 0 64 64 0 1 0-128 0Z" p-id="1493"></path><path d="M896.71 469.33H511.29c-34.95 0-63.29-28.33-63.29-63.29v-1.43c0-34.95 28.33-63.29 63.29-63.29h385.43c34.95 0 63.29 28.33 63.29 63.29v1.43c-0.01 34.96-28.34 63.29-63.3 63.29zM896.71 682.67H703.29c-34.95 0-63.29-28.33-63.29-63.29v-1.43c0-34.95 28.33-63.29 63.29-63.29h193.43c34.95 0 63.29 28.33 63.29 63.29v1.43c-0.01 34.95-28.34 63.29-63.3 63.29zM896 896H512c-35.35 0-64-28.65-64-64s28.65-64 64-64h384c35.35 0 64 28.65 64 64s-28.65 64-64 64z" p-id="1494"></path></svg>
