<?xml version="1.0" standalone="no"?><!DOCTYPE svg PUBLIC "-//W3C//DTD SVG 1.1//EN" "http://www.w3.org/Graphics/SVG/1.1/DTD/svg11.dtd"><svg t="1600157601848" class="icon" viewBox="0 0 1024 1024" version="1.1" xmlns="http://www.w3.org/2000/svg" p-id="3029" width="200" height="200"><path d="M496.69 867.78c-72.33 0-142.42-20.86-202.69-60.32-58.69-38.43-105.13-92.38-134.28-156.02l-35.4-77.27 77.57 34.73c39.45 17.66 81.54 26.62 125.11 26.62 81.87 0 158.83-31.88 216.72-89.77 57.89-57.89 89.77-134.85 89.77-216.72 0-44.47-9.32-87.37-27.7-127.49l-35.4-77.27L647.96 159C712.35 187.85 767 234.28 806 293.29c40.03 60.57 61.18 131.11 61.18 204 0 50-9.8 98.52-29.13 144.22-18.66 44.12-45.37 83.74-79.39 117.75s-73.63 60.72-117.75 79.39c-45.69 19.33-94.21 29.13-144.22 29.13zM261.43 693.76a307.757 307.757 0 0 0 67.64 60.15c49.82 32.62 107.79 49.87 167.63 49.87 81.87 0 158.83-31.88 216.72-89.77 57.89-57.89 89.77-134.85 89.77-216.72 0-60.3-17.49-118.64-50.58-168.72a307.93 307.93 0 0 0-61.44-68.22c4.21 22.46 6.33 45.4 6.33 68.68 0 50-9.8 98.52-29.13 144.22C649.71 517.37 623 556.99 588.98 591s-73.63 60.72-117.75 79.39c-45.7 19.33-94.22 29.13-144.22 29.13-22.21 0.01-44.11-1.92-65.58-5.76z" p-id="3030"></path></svg>
