<?xml version="1.0" standalone="no"?><!DOCTYPE svg PUBLIC "-//W3C//DTD SVG 1.1//EN" "http://www.w3.org/Graphics/SVG/1.1/DTD/svg11.dtd"><svg t="1600160599268" class="icon" viewBox="0 0 1024 1024" version="1.1" xmlns="http://www.w3.org/2000/svg" p-id="3719" width="200" height="200"><path d="M512 224c-159.06 0-288 128.94-288 288s128.94 288 288 288 288-128.94 288-288-128.94-288-288-288z m0 512c-123.71 0-224-100.29-224-224s100.29-224 224-224 224 100.29 224 224-100.29 224-224 224zM480 50h64v100h-64zM480 874h64v100h-64zM974 480v64H874v-64zM150 480v64H50v-64zM162.684 207.944l45.254-45.254 70.71 70.71-45.254 45.254zM816.055 162.683l45.254 45.254-70.71 70.71-45.254-45.254zM745.338 790.6l45.254-45.254 70.71 70.71-45.254 45.254zM233.4 745.339l45.255 45.254-70.71 70.71-45.254-45.254z" p-id="3720"></path></svg>
